CommissionerFlair-ExtraLightItalic.ufo
<glyph name="numbersign" format="2">
  <advance width="674.6210526315789"/>
  <unicode hex="0023"/>
  <outline>
    <contour>
      <point x="1.8105263157894746" y="163.18947368421053" type="line"/>
      <point x="61.326315789473696" y="165.61052631578949"/>
      <point x="117.75789473684212" y="165.69473684210527"/>
      <point x="166.02105263157893" y="165.69473684210527" type="curve"/>
      <point x="414.6736842105263" y="165.69473684210527" type="line"/>
      <point x="462.93684210526317" y="165.69473684210527"/>
      <point x="519.1999999999999" y="165.61052631578949"/>
      <point x="578.5473684210526" y="163.18947368421053" type="curve"/>
      <point x="587.1578947368422" y="207.31578947368422" type="line"/>
      <point x="527.6421052631579" y="204.89473684210526"/>
      <point x="471.2947368421053" y="204.81052631578947"/>
      <point x="423.0315789473684" y="204.81052631578947" type="curve"/>
      <point x="174.37894736842105" y="204.81052631578947" type="line"/>
      <point x="126.11578947368422" y="204.81052631578947"/>
      <point x="69.76842105263158" y="204.89473684210526"/>
      <point x="10.421052631578949" y="207.31578947368422" type="curve"/>
    </contour>
    <contour>
      <point x="70.36842105263158" y="0.0" type="curve"/>
      <point x="121.09473684210526" y="0.0" type="line"/>
      <point x="148.49473684210525" y="68.08421052631579"/>
      <point x="171.57894736842104" y="126.67368421052632"/>
      <point x="206.32631578947368" y="209.8421052631579" type="curve"/>
      <point x="302.4842105263158" y="438.3473684210526" type="line"/>
      <point x="340.1473684210526" y="527.6"/>
      <point x="365.7263157894737" y="584.3473684210526"/>
      <point x="396.65263157894736" y="654.6842105263158" type="curve"/>
      <point x="346.09473684210525" y="654.6842105263158" type="line"/>
      <point x="319.1894736842105" y="584.0105263157894"/>
      <point x="294.77894736842103" y="525.5157894736842"/>
      <point x="258.11578947368423" y="438.34736842105264" type="curve"/>
      <point x="161.95789473684212" y="209.8421052631579" type="line"/>
      <point x="127.21052631578948" y="127.58947368421053"/>
      <point x="100.9578947368421" y="67.74736842105263"/>
    </contour>
    <contour>
      <point x="120.63157894736842" y="444.3684210526316" type="line"/>
      <point x="180.23157894736843" y="446.7894736842105"/>
      <point x="236.57894736842107" y="446.87368421052633"/>
      <point x="284.84210526315786" y="446.87368421052633" type="curve"/>
      <point x="533.4947368421052" y="446.87368421052633" type="line"/>
      <point x="581.7578947368421" y="446.87368421052633"/>
      <point x="638.1052631578947" y="446.7894736842105"/>
      <point x="697.3684210526314" y="444.3684210526316" type="curve"/>
      <point x="706.0631578947368" y="488.4947368421052" type="line"/>
      <point x="646.4631578947368" y="486.0736842105263"/>
      <point x="590.1157894736842" y="485.9894736842105"/>
      <point x="541.8526315789474" y="485.9894736842105" type="curve"/>
      <point x="293.19999999999993" y="485.9894736842105" type="line"/>
      <point x="244.93684210526317" y="485.9894736842105"/>
      <point x="188.58947368421053" y="486.0736842105263"/>
      <point x="129.32631578947368" y="488.4947368421052" type="curve"/>
    </contour>
    <contour>
      <point x="302.89473684210526" y="0.0" type="curve"/>
      <point x="353.621052631579" y="0.0" type="line"/>
      <point x="381.0210526315789" y="68.08421052631579"/>
      <point x="404.10526315789474" y="126.67368421052632"/>
      <point x="438.8526315789474" y="209.8421052631579" type="curve"/>
      <point x="535.0105263157895" y="438.3473684210526" type="line"/>
      <point x="572.6736842105264" y="527.6"/>
      <point x="598.2526315789473" y="584.3473684210526"/>
      <point x="629.178947368421" y="654.6842105263158" type="curve"/>
      <point x="578.6210526315789" y="654.6842105263158" type="line"/>
      <point x="551.7157894736841" y="584.0105263157894"/>
      <point x="527.3052631578948" y="525.5157894736842"/>
      <point x="490.64210526315793" y="438.34736842105264" type="curve"/>
      <point x="394.4842105263158" y="209.8421052631579" type="line"/>
      <point x="359.7368421052632" y="127.58947368421053"/>
      <point x="333.48421052631574" y="67.74736842105263"/>
    </contour>
  </outline>
</glyph>
<glyph name="dollar" format="2">
  <advance width="555.0315789473684"/>
  <unicode hex="0024"/>
  <outline>
    <contour>
      <point x="256.5052631578947" y="-9.505263157894737" type="curve" smooth="yes"/>
      <point x="398.2947368421053" y="-9.505263157894737"/>
      <point x="470.13684210526316" y="51.73684210526316"/>
      <point x="491.81052631578945" y="156.1052631578947" type="curve" smooth="yes"/>
      <point x="510.4" y="244.96842105263158"/>
      <point x="472.2315789473684" y="307.0526315789474"/>
      <point x="321.9894736842105" y="370.8736842105263" type="curve" smooth="yes"/>
      <point x="193.52631578947367" y="425.7684210526316"/>
      <point x="150.70526315789476" y="462.2526315789474"/>
      <point x="167.61052631578949" y="540.9473684210527" type="curve" smooth="yes"/>
      <point x="186.26315789473685" y="630.5473684210527"/>
      <point x="272.12631578947367" y="651.4526315789474"/>
      <point x="351.7578947368421" y="651.4526315789474" type="curve"/>
      <point x="385.75789473684216" y="651.4526315789474"/>
      <point x="453.7684210526316" y="633.0315789473685"/>
      <point x="532.5263157894738" y="591.1157894736842" type="curve"/>
      <point x="550.3157894736842" y="636.6736842105263" type="line"/>
      <point x="498.89473684210526" y="659.9157894736842"/>
      <point x="417.85263157894735" y="696.3368421052631"/>
      <point x="350.6631578947368" y="696.3368421052631" type="curve" smooth="yes"/>
      <point x="218.71578947368423" y="696.3368421052631"/>
      <point x="142.54736842105262" y="641.8315789473685"/>
      <point x="122.8736842105263" y="548.3789473684211" type="curve" smooth="yes"/>
      <point x="100.36842105263158" y="443.5157894736842"/>
      <point x="157.78947368421052" y="392.6736842105263"/>
      <point x="290.34736842105264" y="335.1894736842105" type="curve" smooth="yes"/>
      <point x="401.81052631578945" y="287.04210526315785"/>
      <point x="463.978947368421" y="244.97894736842107"/>
      <point x="446.9894736842105" y="162.94736842105263" type="curve" smooth="yes"/>
      <point x="424.7578947368421" y="56.2"/>
      <point x="338.3157894736842" y="35.04210526315789"/>
      <point x="257.01052631578943" y="35.04210526315789" type="curve"/>
      <point x="194.5157894736842" y="35.04210526315789"/>
      <point x="119.66315789473686" y="62.63157894736843"/>
      <point x="46.16842105263157" y="105.21052631578948" type="curve"/>
      <point x="29.378947368421045" y="58.06315789473684" type="line"/>
      <point x="82.46315789473682" y="32.736842105263165"/>
      <point x="163.47368421052633" y="-9.505263157894737"/>
    </contour>
    <contour>
      <point x="177.36842105263156" y="-137.0" type="curve"/>
      <point x="224.0" y="-137.0" type="line"/>
      <point x="246.2421052631579" y="-20.0"/>
      <point x="268.1578947368421" y="84.0"/>
      <point x="291.1578947368421" y="192.0" type="curve"/>
      <point x="351.1578947368421" y="474.0" type="line"/>
      <point x="374.1578947368421" y="582.0"/>
      <point x="396.2421052631579" y="686.0"/>
      <point x="424.0" y="803.0" type="curve"/>
      <point x="377.3684210526315" y="803.0" type="line"/>
      <point x="355.1263157894736" y="686.0"/>
      <point x="333.2105263157894" y="582.0"/>
      <point x="310.2105263157894" y="474.0" type="curve"/>
      <point x="250.21052631578945" y="192.0" type="line"/>
      <point x="227.21052631578945" y="84.0"/>
      <point x="205.04210526315788" y="-20.0"/>
    </contour>
  </outline>
</glyph>
<glyph name="ampersand" format="2">
  <advance width="718.0919540229885"/>
  <unicode hex="0026"/>
  <outline>
    <contour>
      <point x="581.4367816091954" y="0.0" type="curve"/>
      <point x="646.4827586206897" y="0.0" type="line"/>
      <point x="599.0919540229885" y="54.57471264367816"/>
      <point x="554.2528735632184" y="110.14942528735632"/>
      <point x="508.3333333333333" y="165.35632183908046" type="curve"/>
      <point x="320.01149425287355" y="396.88505747126436" type="line" smooth="yes"/>
      <point x="267.58620689655174" y="461.4942528735632"/>
      <point x="248.24137931034483" y="515.9195402298851"/>
      <point x="261.6896551724138" y="578.9770114942528" type="curve" smooth="yes"/>
      <point x="275.95402298850576" y="643.2988505747126"/>
      <point x="322.6436781609195" y="681.8850574712644"/>
      <point x="393.49425287356325" y="683.8850574712644" type="curve"/>
      <point x="455.735632183908" y="681.7011494252874"/>
      <point x="498.08045977011494" y="634.5632183908045"/>
      <point x="484.0" y="564.6091954022988" type="curve" smooth="yes"/>
      <point x="468.28735632183907" y="487.7586206896552"/>
      <point x="388.8850574712644" y="453.0459770114943"/>
      <point x="302.93103448275866" y="412.96551724137925" type="curve"/>
      <point x="327.55172413793105" y="380.8735632183908" type="line"/>
      <point x="410.71264367816093" y="420.05747126436785"/>
      <point x="509.1609195402299" y="462.8735632183908"/>
      <point x="528.1609195402299" y="557.1379310344828" type="curve" smooth="yes"/>
      <point x="547.5287356321838" y="652.6091954022988"/>
      <point x="481.66666666666663" y="725.3678160919541"/>
      <point x="394.3103448275862" y="725.3678160919541" type="curve" smooth="yes"/>
      <point x="307.91954022988506" y="725.3678160919541"/>
      <point x="234.60919540229887" y="673.8390804597701"/>
      <point x="215.42528735632183" y="585.0804597701149" type="curve" smooth="yes"/>
      <point x="197.79310344827587" y="500.36781609195407"/>
      <point x="231.05747126436782" y="434.08045977011494"/>
      <point x="283.5862068965517" y="369.0" type="curve" smooth="yes"/>
      <point x="474.01149425287355" y="136.0" type="line"/>
      <point x="511.45977011494256" y="91.0"/>
      <point x="549.9080459770114" y="44.0"/>
    </contour>
    <contour>
      <point x="236.81609195402297" y="-9.367816091954023" type="curve" smooth="yes"/>
      <point x="328.1609195402299" y="-9.367816091954023"/>
      <point x="396.2413793103448" y="47.8735632183908"/>
      <point x="479.13793103448273" y="120.66666666666667" type="curve"/>
      <point x="491.50574712643675" y="120.66666666666667" type="line"/>
      <point x="489.4022988505747" y="133.32183908045977" type="line"/>
      <point x="460.62068965517244" y="160.51724137931035" type="line"/>
      <point x="378.13793103448273" y="80.19540229885057"/>
      <point x="314.6091954022989" y="34.13793103448276"/>
      <point x="239.75862068965517" y="34.13793103448276" type="curve"/>
      <point x="127.82758620689653" y="36.321839080459775"/>
      <point x="74.60919540229885" y="111.72413793103448"/>
      <point x="93.50574712643679" y="203.02298850574712" type="curve" smooth="yes"/>
      <point x="113.2183908045977" y="296.95402298850576"/>
      <point x="187.0689655172414" y="342.1149425287356"/>
      <point x="291.816091954023" y="377.0114942528736" type="curve"/>
      <point x="275.7471264367816" y="412.4712643678161" type="line"/>
      <point x="174.29885057471265" y="380.28735632183907"/>
      <point x="73.6896551724138" y="328.18390804597703"/>
      <point x="48.05747126436782" y="207.28735632183907" type="curve" smooth="yes"/>
      <point x="25.873563218390807" y="102.816091954023"/>
      <point x="91.3448275862069" y="-9.367816091954023"/>
    </contour>
    <contour>
      <point x="513.3563218390805" y="150.9655172413793" type="line"/>
      <point x="569.4597701149426" y="215.22988505747128"/>
      <point x="621.7471264367815" y="275.86206896551727"/>
      <point x="679.4022988505747" y="337.7586206896552" type="curve"/>
      <point x="635.344827586207" y="367.5057471264368" type="line"/>
      <point x="588.2643678160919" y="303.5057471264368"/>
      <point x="539.448275862069" y="245.68965517241378"/>
      <point x="486.0" y="181.60919540229884" type="curve"/>
    </contour>
  </outline>
</glyph>
<glyph name="quotesingle" format="2">
  <advance width="188.81052631578947"/>
  <unicode hex="0027"/>
  <outline>
    <contour>
      <point x="107.78947368421053" y="456.9894736842105" type="curve"/>
      <point x="145.98947368421054" y="457.9894736842105" type="line"/>
      <point x="167.33684210526317" y="554.1052631578947"/>
      <point x="192.34736842105264" y="650.0526315789474"/>
      <point x="221.86315789473684" y="744.0842105263158" type="curve"/>
      <point x="153.1263157894737" y="742.7473684210527" type="line"/>
      <point x="142.21052631578948" y="648.8"/>
      <point x="127.78947368421052" y="553.8526315789474"/>
    </contour>
  </outline>
</glyph>
<glyph name="parenleft" format="2">
  <advance width="370.4842105263158"/>
  <unicode hex="0028"/>
  <outline>
    <contour>
      <point x="209.31578947368422" y="-114.77894736842106" type="curve"/>
      <point x="255.93684210526314" y="-99.65263157894736" type="line"/>
      <point x="163.3684210526316" y="22.347368421052632"/>
      <point x="96.63157894736842" y="158.32631578947365"/>
      <point x="135.54736842105265" y="339.9894736842105" type="curve" smooth="yes"/>
      <point x="174.46315789473684" y="522.6526315789473"/>
      <point x="294.86315789473684" y="642.3157894736842"/>
      <point x="431.59999999999997" y="741.6526315789474" type="curve"/>
      <point x="386.2315789473684" y="762.6105263157895" type="line"/>
      <point x="252.42105263157893" y="659.4736842105262"/>
      <point x="128.22105263157894" y="535.6210526315791"/>
      <point x="87.71578947368421" y="345.0105263157895" type="curve" smooth="yes"/>
      <point x="47.21052631578948" y="155.3157894736842"/>
      <point x="121.32631578947367" y="10.021052631578948"/>
    </contour>
  </outline>
</glyph>
<glyph name="asterisk" format="2">
  <advance width="462.63157894736844"/>
  <unicode hex="002A"/>
  <outline>
    <contour>
      <point x="436.08421052631576" y="345.1263157894737" type="curve"/>
      <point x="467.2315789473684" y="378.11578947368423" type="line"/>
      <point x="410.22105263157897" y="426.5263157894737"/>
      <point x="353.5473684210526" y="476.93684210526317"/>
      <point x="298.70526315789476" y="527.4315789473685" type="curve"/>
      <point x="244.78947368421052" y="581.8526315789474"/>
      <point x="192.95789473684212" y="635.4421052631579"/>
      <point x="141.21052631578948" y="690.1999999999999" type="curve"/>
      <point x="110.97894736842106" y="657.2105263157895" type="line"/>
      <point x="166.98947368421054" y="608.8"/>
      <point x="223.83157894736843" y="558.3052631578947"/>
      <point x="278.58947368421053" y="506.8105263157895" type="curve"/>
      <point x="332.42105263157896" y="453.3894736842105"/>
      <point x="384.33684210526314" y="399.7157894736842"/>
    </contour>
    <contour>
      <point x="84.52631578947368" y="420.5368421052632" type="line"/>
      <point x="153.61052631578949" y="449.29473684210524"/>
      <point x="222.77894736842106" y="476.88421052631577"/>
      <point x="293.86315789473684" y="504.3894736842105" type="curve"/>
      <point x="364.4526315789474" y="528.5473684210526"/>
      <point x="436.87368421052633" y="551.7052631578947"/>
      <point x="508.4631578947368" y="572.8631578947367" type="curve"/>
      <point x="492.7684210526316" y="614.7894736842105" type="line"/>
      <point x="423.6842105263158" y="585.9473684210527"/>
      <point x="354.5157894736842" y="558.3578947368421"/>
      <point x="284.43157894736845" y="531.8526315789474" type="curve"/>
      <point x="212.84210526315792" y="506.69473684210527"/>
      <point x="141.33684210526317" y="484.4526315789474"/>
      <point x="68.74736842105264" y="462.46315789473687" type="curve"/>
    </contour>
    <contour>
      <point x="219.38947368421054" y="301.91578947368424" type="curve"/>
      <point x="263.56842105263155" y="291.9789473684211" type="line"/>
      <point x="275.7263157894737" y="366.4"/>
      <point x="289.0526315789474" y="440.82105263157894"/>
      <point x="302.46315789473687" y="516.0736842105263" type="curve"/>
      <point x="320.22105263157897" y="588.2421052631579"/>
      <point x="337.978947368421" y="661.3263157894737"/>
      <point x="357.8210526315789" y="733.4947368421052" type="curve"/>
      <point x="313.7263157894737" y="743.3473684210527" type="line"/>
      <point x="301.56842105263155" y="668.9263157894737"/>
      <point x="288.2421052631579" y="594.5894736842105"/>
      <point x="274.8315789473684" y="522.0" type="curve"/>
      <point x="257.0736842105263" y="447.08421052631576"/>
      <point x="239.31578947368422" y="374.0"/>
    </contour>
  </outline>
</glyph>
<glyph name="plus" format="2">
  <advance width="583.4421052631578"/>
  <unicode hex="002B"/>
  <outline>
    <contour>
      <point x="227.26315789473682" y="63.23157894736842" type="curve"/>
      <point x="277.33684210526314" y="63.23157894736842" type="line"/>
      <point x="288.16842105263163" y="121.74736842105263"/>
      <point x="299.42105263157896" y="179.01052631578946"/>
      <point x="309.6736842105263" y="227.18947368421053" type="curve"/>
      <point x="339.1684210526316" y="364.91578947368424" type="line"/>
      <point x="349.5052631578947" y="413.34736842105264"/>
      <point x="361.8421052631579" y="469.69473684210527"/>
      <point x="376.59999999999997" y="529.1263157894737" type="curve"/>
      <point x="326.5263157894737" y="529.1263157894737" type="line"/>
      <point x="315.6947368421052" y="470.61052631578946"/>
      <point x="304.4421052631579" y="413.34736842105264"/>
      <point x="294.1052631578947" y="364.8315789473684" type="curve"/>
      <point x="264.61052631578946" y="227.18947368421053" type="line"/>
      <point x="254.3578947368421" y="179.01052631578946"/>
      <point x="242.02105263157895" y="121.74736842105263"/>
    </contour>
    <contour>
      <point x="73.04210526315791" y="271.93684210526317" type="line"/>
      <point x="133.55789473684212" y="274.35789473684207"/>
      <point x="189.90526315789472" y="274.4421052631579"/>
      <point x="238.16842105263157" y="274.4421052631579" type="curve"/>
      <point x="357.66315789473686" y="274.4421052631579" type="line"/>
      <point x="405.9263157894737" y="274.4421052631579"/>
      <point x="462.2736842105263" y="274.35789473684207"/>
      <point x="520.6210526315789" y="271.93684210526317" type="curve"/>
      <point x="531.6526315789474" y="320.4210526315789" type="line"/>
      <point x="471.2210526315789" y="318.0"/>
      <point x="414.8736842105263" y="317.9157894736842"/>
      <point x="366.61052631578946" y="317.9157894736842" type="curve"/>
      <point x="247.1157894736842" y="317.9157894736842" type="line"/>
      <point x="198.85263157894735" y="317.9157894736842"/>
      <point x="142.50526315789475" y="318.0"/>
      <point x="84.07368421052632" y="320.4210526315789" type="curve"/>
    </contour>
  </outline>
</glyph>
<glyph name="comma" format="2">
  <advance width="218.8842105263158"/>
  <unicode hex="002C"/>
  <outline>
    <contour>
      <point x="-44.294736842105266" y="-157.0" type="curve"/>
      <point x="-6.136842105263152" y="-155.9157894736842" type="line"/>
      <point x="40.94736842105262" y="-106.6736842105263"/>
      <point x="103.33684210526314" y="-21.905263157894737"/>
      <point x="116.7578947368421" y="43.2" type="curve" smooth="yes"/>
      <point x="122.51578947368421" y="71.90526315789474"/>
      <point x="114.50526315789475" y="92.18947368421053"/>
      <point x="88.12631578947368" y="97.28421052631579" type="curve"/>
      <point x="55.63157894736842" y="95.61052631578947" type="line"/>
      <point x="53.96842105263158" y="69.0"/>
      <point x="49.8" y="42.38947368421053"/>
      <point x="44.378947368421045" y="16.28421052631579" type="curve"/>
      <point x="32.29473684210526" y="-41.22105263157894"/>
      <point x="5.610526315789479" y="-98.08421052631579"/>
    </contour>
  </outline>
</glyph>
<glyph name="hyphen" format="2">
  <advance width="420.8421052631579"/>
  <unicode hex="002D"/>
  <outline>
    <contour>
      <point x="72.9578947368421" y="271.5157894736842" type="line"/>
      <point x="125.05263157894737" y="273.9368421052631"/>
      <point x="174.06315789473683" y="274.0210526315789"/>
      <point x="215.98947368421054" y="274.0210526315789" type="curve"/>
      <point x="257.91578947368424" y="274.0210526315789"/>
      <point x="306.92631578947373" y="273.9368421052631"/>
      <point x="358.85263157894735" y="271.5157894736842" type="curve"/>
      <point x="368.88421052631577" y="320.0" type="line"/>
      <point x="315.87368421052633" y="317.5789473684211"/>
      <point x="266.77894736842103" y="317.4947368421053"/>
      <point x="224.85263157894738" y="317.4947368421053" type="curve"/>
      <point x="182.92631578947368" y="317.4947368421053"/>
      <point x="134.0" y="317.5789473684211"/>
      <point x="82.98947368421052" y="320.0" type="curve"/>
    </contour>
  </outline>
</glyph>
<glyph name="slash" format="2">
  <advance width="441.95789473684215"/>
  <unicode hex="002F"/>
  <outline>
    <contour>
      <point x="-17.621052631578948" y="0.0" type="curve"/>
      <point x="40.4" y="0.0" type="line"/>
      <point x="85.7157894736842" y="74.0"/>
      <point x="125.95789473684212" y="137.0"/>
      <point x="186.0315789473684" y="228.0" type="curve"/>
      <point x="346.58947368421053" y="474.0" type="line"/>
      <point x="409.66315789473686" y="571.0"/>
      <point x="452.15789473684214" y="636.0"/>
      <point x="505.4105263157894" y="713.0" type="curve"/>
      <point x="447.4736842105263" y="713.0" type="line"/>
      <point x="399.3263157894737" y="636.0"/>
      <point x="358.0" y="571.0"/>
      <point x="296.0105263157895" y="476.0842105263158" type="curve"/>
      <point x="134.3684210526316" y="228.0" type="line"/>
      <point x="74.29473684210528" y="137.0"/>
      <point x="31.799999999999997" y="74.0"/>
    </contour>
  </outline>
</glyph>
<glyph name="zero" format="2">
  <advance width="645.9473684210526"/>
  <unicode hex="0030"/>
  <outline>
    <contour>
      <point x="299.93684210526317" y="-9.505263157894737" type="curve" smooth="yes"/>
      <point x="455.81052631578945" y="-9.505263157894737"/>
      <point x="552.063157894737" y="98.25263157894737"/>
      <point x="597.063157894737" y="308.58947368421053" type="curve" smooth="yes"/>
      <point x="643.8105263157895" y="528.0"/>
      <point x="569.3894736842107" y="696.8421052631579"/>
      <point x="395.08421052631576" y="696.8421052631579" type="curve" smooth="yes"/>
      <point x="232.29473684210527" y="696.8421052631579"/>
      <point x="131.8842105263158" y="582.0842105263158"/>
      <point x="89.8" y="380.41052631578947" type="curve" smooth="yes"/>
      <point x="44.22105263157895" y="164.7578947368421"/>
      <point x="113.05263157894736" y="-9.505263157894737"/>
    </contour>
    <contour>
      <point x="300.61052631578946" y="35.54736842105263" type="curve"/>
      <point x="144.9578947368421" y="38.88421052631579"/>
      <point x="97.83157894736841" y="185.4"/>
      <point x="137.97894736842107" y="373.14736842105265" type="curve" smooth="yes"/>
      <point x="173.71578947368423" y="541.421052631579"/>
      <point x="247.67368421052632" y="648.3684210526316"/>
      <point x="394.66315789473686" y="651.7052631578947" type="curve"/>
      <point x="537.0736842105262" y="648.3684210526316"/>
      <point x="590.2842105263159" y="510.17894736842106"/>
      <point x="549.0526315789474" y="314.8526315789474" type="curve" smooth="yes"/>
      <point x="513.3157894736843" y="146.9157894736842"/>
      <point x="444.93684210526317" y="38.88421052631579"/>
    </contour>
  </outline>
</glyph>
<glyph name="one" format="2">
  <advance width="414.90526315789475"/>
  <unicode hex="0031"/>
  <outline>
    <contour>
      <point x="107.56842105263158" y="508.94736842105266" type="line"/>
      <point x="188.90526315789472" y="553.1999999999999"/>
      <point x="270.4947368421053" y="594.6105263157895"/>
      <point x="352.9157894736842" y="635.8526315789474" type="curve"/>
      <point x="363.70526315789476" y="686.8421052631579" type="line"/>
      <point x="276.6" y="642.8421052631579"/>
      <point x="190.4105263157895" y="599.7578947368421"/>
      <point x="102.47368421052632" y="559.6" type="curve"/>
    </contour>
    <contour>
      <point x="191.34736842105264" y="0.0" type="curve"/>
      <point x="245.79999999999998" y="0.0" type="line"/>
      <point x="259.78947368421046" y="74.49473684210527"/>
      <point x="272.19999999999993" y="139.07368421052632"/>
      <point x="289.28421052631575" y="220.32631578947368" type="curve"/>
      <point x="337.4526315789473" y="447.1684210526316" type="line"/>
      <point x="355.28421052631575" y="531.6631578947369"/>
      <point x="373.53684210526313" y="612.4947368421052"/>
      <point x="391.71578947368414" y="684.5052631578948" type="curve"/>
      <point x="363.70526315789476" y="686.8421052631579" type="line"/>
      <point x="333.5894736842106" y="662.021052631579" type="line"/>
      <point x="320.2631578947368" y="587.7789473684211"/>
      <point x="305.5157894736842" y="517.2842105263157"/>
      <point x="289.6842105263158" y="443.0421052631579" type="curve"/>
      <point x="242.4421052631579" y="220.32631578947368" type="line"/>
      <point x="225.35789473684213" y="139.07368421052632"/>
      <point x="210.02105263157895" y="74.49473684210527"/>
    </contour>
  </outline>
</glyph>
<glyph name="two" format="2">
  <advance width="546.5368421052632"/>
  <unicode hex="0032"/>
  <outline>
    <contour>
      <point x="-0.34736842105262866" y="0.0" type="line"/>
      <point x="436.6421052631579" y="0.0" type="line"/>
      <point x="446.9263157894737" y="48.410526315789475" type="line"/>
      <point x="366.4421052631579" y="44.89473684210526"/>
      <point x="284.5473684210527" y="43.810526315789474"/>
      <point x="204.4842105263158" y="43.810526315789474" type="curve"/>
      <point x="57.10526315789474" y="43.810526315789474" type="line"/>
      <point x="65.36842105263158" y="29.694736842105264" type="line"/>
      <point x="204.49473684210525" y="132.65263157894736" type="line"/>
      <point x="392.9473684210526" y="272.5157894736842"/>
      <point x="497.82105263157894" y="362.57894736842104"/>
      <point x="522.4842105263158" y="481.7263157894737" type="curve" smooth="yes"/>
      <point x="546.1578947368421" y="597.421052631579"/>
      <point x="490.7894736842106" y="696.8421052631579"/>
      <point x="349.2526315789474" y="696.8421052631579" type="curve" smooth="yes"/>
      <point x="283.3368421052632" y="696.8421052631579"/>
      <point x="185.16842105263157" y="658.8526315789474"/>
      <point x="129.9894736842105" y="637.3578947368421" type="curve"/>
      <point x="126.79999999999998" y="581.5263157894738" type="line"/>
      <point x="220.03157894736844" y="629.1894736842105"/>
      <point x="309.53684210526313" y="651.5368421052632"/>
      <point x="344.20000000000005" y="651.5368421052632" type="curve"/>
      <point x="454.30526315789473" y="650.3684210526316"/>
      <point x="494.87368421052633" y="581.578947368421"/>
      <point x="474.8842105263158" y="487.5473684210527" type="curve" smooth="yes"/>
      <point x="451.64210526315793" y="375.5052631578947"/>
      <point x="341.74736842105267" y="286.77894736842103"/>
      <point x="161.71578947368423" y="151.98947368421054" type="curve"/>
      <point x="110.06315789473683" y="114.08421052631579"/>
      <point x="58.74736842105264" y="76.85263157894737"/>
      <point x="8.094736842105265" y="41.53684210526316" type="curve"/>
    </contour>
  </outline>
</glyph>
<glyph name="four" format="2">
  <advance width="592.3103448275862"/>
  <unicode hex="0034"/>
  <outline>
    <contour>
      <point x="319.0919540229885" y="0.0" type="curve"/>
      <point x="373.5862068965517" y="0.0" type="line"/>
      <point x="383.48275862068965" y="61.735632183908045"/>
      <point x="393.66666666666663" y="110.65517241379311"/>
      <point x="408.85057471264366" y="182.75862068965517" type="curve"/>
      <point x="464.2988505747126" y="443.55172413793105" type="line"/>
      <point x="481.1149425287356" y="522.551724137931"/>
      <point x="497.48275862068965" y="601.551724137931"/>
      <point x="519.5862068965516" y="684.551724137931" type="curve"/>
      <point x="463.0919540229885" y="684.551724137931" type="line"/>
      <point x="424.56321839080454" y="639.1034482758621"/>
      <point x="381.48275862068965" y="591.0229885057471"/>
      <point x="339.2183908045977" y="544.7586206896551" type="curve"/>
      <point x="220.87356321839079" y="416.2298850574713" type="line"/>
      <point x="160.97701149425288" y="351.14942528735634"/>
      <point x="80.08045977011494" y="263.62068965517244"/>
      <point x="24.367816091954023" y="205.45977011494253" type="curve"/>
      <point x="16.793103448275865" y="165.68965517241378" type="line"/>
      <point x="385.2413793103448" y="165.68965517241378" type="line"/>
      <point x="433.89655172413796" y="165.68965517241378"/>
      <point x="504.91954022988506" y="165.50574712643677"/>
      <point x="548.3908045977012" y="162.95402298850573" type="curve"/>
      <point x="558.7011494252873" y="212.4022988505747" type="line"/>
      <point x="514.0459770114943" y="209.66666666666666"/>
      <point x="442.65517241379314" y="209.48275862068965"/>
      <point x="394.0" y="209.48275862068965" type="curve"/>
      <point x="380.632183908046" y="209.48275862068965" type="line"/>
      <point x="66.42528735632185" y="209.48275862068965" type="line"/>
      <point x="69.3448275862069" y="187.51724137931035" type="line"/>
      <point x="110.05747126436782" y="234.5977011494253"/>
      <point x="151.32183908045977" y="281.04597701149424"/>
      <point x="194.4022988505747" y="328.1264367816092" type="curve"/>
      <point x="357.0919540229885" y="504.816091954023" type="line"/>
      <point x="406.35632183908046" y="559.080459770115"/>
      <point x="456.0689655172414" y="612.609195402299"/>
      <point x="505.1494252873563" y="663.5862068965517" type="curve"/>
      <point x="460.7241379310345" y="657.4827586206897" type="line"/>
      <point x="447.8275862068965" y="585.0344827586207"/>
      <point x="433.01149425287355" y="511.95402298850576"/>
      <point x="417.1954022988505" y="439.32183908045977" type="curve"/>
      <point x="365.85057471264366" y="197.04597701149424" type="line"/>
      <point x="361.9310344827586" y="182.75862068965517" type="line"/>
      <point x="346.7471264367816" y="110.65517241379311"/>
      <point x="335.5632183908046" y="61.735632183908045"/>
    </contour>
  </outline>
</glyph>
<glyph name="six" format="2">
  <advance width="601.5747126436781"/>
  <unicode hex="0036"/>
  <outline>
    <contour>
      <point x="287.6551724137931" y="-9.551724137931034" type="curve" smooth="yes"/>
      <point x="430.33333333333337" y="-9.551724137931034"/>
      <point x="513.1494252873563" y="83.28735632183908"/>
      <point x="537.1494252873563" y="199.55172413793105" type="curve" smooth="yes"/>
      <point x="563.7011494252873" y="326.39080459770116"/>
      <point x="492.14942528735634" y="437.7586206896552"/>
      <point x="351.8045977011494" y="437.7586206896552" type="curve" smooth="yes"/>
      <point x="278.9310344827587" y="437.7586206896552"/>
      <point x="189.3448275862069" y="391.3333333333333"/>
      <point x="140.44827586206898" y="351.88505747126436" type="curve"/>
      <point x="127.71264367816092" y="352.88505747126436" type="line"/>
      <point x="117.19540229885057" y="333.367816091954"/>
      <point x="113.19540229885058" y="315.735632183908"/>
      <point x="115.0574712643678" y="291.42528735632186" type="curve"/>
      <point x="185.0919540229885" y="352.37931034482756"/>
      <point x="275.3908045977011" y="392.62068965517244"/>
      <point x="342.71264367816093" y="393.62068965517244" type="curve"/>
      <point x="468.25287356321843" y="392.25287356321843"/>
      <point x="511.04597701149424" y="299.8735632183908"/>
      <point x="491.14942528735634" y="206.20689655172413" type="curve" smooth="yes"/>
      <point x="471.2528735632184" y="112.54022988505747"/>
      <point x="407.74712643678157" y="37.87356321839081"/>
      <point x="287.3908045977011" y="35.689655172413794" type="curve"/>
      <point x="146.13793103448276" y="38.42528735632184"/>
      <point x="89.52873563218391" y="154.0689655172414"/>
      <point x="129.42528735632183" y="341.551724137931" type="curve" smooth="yes"/>
      <point x="175.58620689655172" y="558.2758620689656"/>
      <point x="259.54022988505756" y="649.3103448275862"/>
      <point x="402.8390804597701" y="651.4942528735633" type="curve"/>
      <point x="430.0229885057471" y="651.4942528735633"/>
      <point x="498.39080459770116" y="634.9425287356322"/>
      <point x="571.2873563218391" y="596.8620689655171" type="curve"/>
      <point x="587.5172413793103" y="645.0229885057472" type="line"/>
      <point x="542.5977011494253" y="663.6551724137931"/>
      <point x="458.9425287356322" y="696.919540229885"/>
      <point x="402.8390804597701" y="696.919540229885" type="curve" smooth="yes"/>
      <point x="235.57471264367817" y="696.919540229885"/>
      <point x="132.3448275862069" y="583.8850574712643"/>
      <point x="82.60919540229885" y="348.5747126436782" type="curve" smooth="yes"/>
      <point x="37.24137931034483" y="133.18390804597703"/>
      <point x="118.79310344827584" y="-9.551724137931034"/>
    </contour>
  </outline>
</glyph>
<glyph name="seven" format="2">
  <advance width="516.2210526315789"/>
  <unicode hex="0037"/>
  <outline>
    <contour>
      <point x="64.03157894736842" y="0.0" type="curve"/>
      <point x="127.08421052631577" y="0.0" type="line"/>
      <point x="179.6421052631579" y="84.73684210526316"/>
      <point x="235.78947368421052" y="170.30526315789473"/>
      <point x="291.6105263157895" y="253.1263157894737" type="curve"/>
      <point x="388.5052631578947" y="396.93684210526317" type="line"/>
      <point x="447.0736842105263" y="484.33684210526314"/>
      <point x="500.72631578947363" y="564.7368421052631"/>
      <point x="556.3789473684211" y="646.2105263157895" type="curve"/>
      <point x="564.9052631578948" y="684.5052631578948" type="line"/>
      <point x="117.0" y="684.5052631578948" type="line"/>
      <point x="106.71578947368421" y="635.8421052631579" type="line"/>
      <point x="195.3684210526316" y="640.1894736842105"/>
      <point x="282.85263157894735" y="640.6947368421053"/>
      <point x="369.2526315789474" y="640.6947368421053" type="curve"/>
      <point x="515.5578947368422" y="640.6947368421053" type="line"/>
      <point x="503.09473684210525" y="653.4736842105264" type="line"/>
      <point x="468.77894736842103" y="600.4"/>
      <point x="434.87368421052633" y="548.4105263157894"/>
      <point x="399.4631578947368" y="495.0842105263158" type="curve"/>
      <point x="254.57894736842104" y="279.7052631578947" type="line"/>
      <point x="192.7578947368421" y="187.96842105263158"/>
      <point x="128.93684210526317" y="93.4"/>
    </contour>
  </outline>
</glyph>
<glyph name="eight" format="2">
  <advance width="600.7586206896551"/>
  <unicode hex="0038"/>
  <outline>
    <contour>
      <point x="277.65517241379314" y="-9.551724137931034" type="curve" smooth="yes"/>
      <point x="423.9655172413793" y="-9.551724137931034"/>
      <point x="505.14942528735634" y="59.08045977011494"/>
      <point x="527.5172413793103" y="166.0" type="curve" smooth="yes"/>
      <point x="552.5172413793103" y="284.2643678160919"/>
      <point x="476.98850574712645" y="350.1609195402299"/>
      <point x="424.0689655172414" y="365.08045977011494" type="curve"/>
      <point x="425.2528735632184" y="371.816091954023" type="line"/>
      <point x="491.35632183908046" y="384.632183908046"/>
      <point x="555.4367816091954" y="428.71264367816093"/>
      <point x="572.2528735632184" y="506.712643678161" type="curve" smooth="yes"/>
      <point x="595.2528735632184" y="612.6321839080459"/>
      <point x="515.1494252873563" y="696.919540229885"/>
      <point x="372.55172413793105" y="696.919540229885" type="curve" smooth="yes"/>
      <point x="257.60919540229884" y="696.919540229885"/>
      <point x="165.50574712643677" y="649.551724137931"/>
      <point x="145.32183908045977" y="553.632183908046" type="curve" smooth="yes"/>
      <point x="126.50574712643677" y="467.632183908046"/>
      <point x="178.77011494252872" y="403.18390804597703"/>
      <point x="228.68965517241378" y="384.36781609195407" type="curve"/>
      <point x="227.50574712643677" y="377.632183908046" type="line"/>
      <point x="167.4022988505747" y="367.44827586206895"/>
      <point x="74.05747126436782" y="330.816091954023"/>
      <point x="50.241379310344826" y="218.73563218390802" type="curve" smooth="yes"/>
      <point x="26.873563218390803" y="105.63218390804597"/>
      <point x="92.97701149425288" y="-9.551724137931034"/>
    </contour>
    <contour>
      <point x="278.39080459770116" y="35.87356321839081" type="curve"/>
      <point x="123.8735632183908" y="37.24137931034483"/>
      <point x="79.26436781609195" y="123.17241379310344"/>
      <point x="98.97701149425286" y="215.10344827586206" type="curve" smooth="yes"/>
      <point x="120.6896551724138" y="320.2988505747126"/>
      <point x="210.06896551724137" y="349.09195402298855"/>
      <point x="319.2643678160919" y="350.45977011494256" type="curve"/>
      <point x="428.8275862068965" y="349.09195402298855"/>
      <point x="505.04597701149424" y="284.50574712643675"/>
      <point x="481.7011494252873" y="173.86206896551724" type="curve" smooth="yes"/>
      <point x="463.8045977011494" y="87.19540229885058"/>
      <point x="399.8505747126437" y="37.24137931034483"/>
    </contour>
    <contour>
      <point x="335.5747126436782" y="392.2298850574713" type="curve"/>
      <point x="225.5632183908046" y="393.4137931034483"/>
      <point x="173.50574712643677" y="461.816091954023"/>
      <point x="191.4022988505747" y="544.4827586206897" type="curve" smooth="yes"/>
      <point x="207.66666666666666" y="621.2528735632184"/>
      <point x="279.7011494252874" y="650.6781609195402"/>
      <point x="370.0" y="652.0459770114943" type="curve"/>
      <point x="482.45977011494256" y="650.6781609195402"/>
      <point x="543.7816091954022" y="595.7241379310344"/>
      <point x="525.0689655172413" y="509.68965517241384" type="curve" smooth="yes"/>
      <point x="509.17241379310343" y="434.4712643678161"/>
      <point x="443.2183908045977" y="393.4137931034483"/>
    </contour>
  </outline>
</glyph>
<glyph name="less" format="2">
  <advance width="562.5263157894736"/>
  <unicode hex="003C"/>
  <outline>
    <contour>
      <point x="459.8736842105263" y="80.69473684210526" type="curve"/>
      <point x="470.9894736842105" y="131.34736842105264" type="line"/>
      <point x="400.34736842105264" y="161.1578947368421"/>
      <point x="325.9578947368421" y="197.22105263157894"/>
      <point x="254.5684210526316" y="232.36842105263156" type="curve"/>
      <point x="139.77894736842106" y="288.42105263157896" type="line"/>
      <point x="141.86315789473684" y="295.2631578947368" type="line"/>
      <point x="279.38947368421054" y="351.14736842105265" type="line"/>
      <point x="366.10526315789474" y="386.2947368421053"/>
      <point x="455.65263157894736" y="422.1894736842105"/>
      <point x="539.2842105263156" y="452.0" type="curve"/>
      <point x="550.6526315789473" y="509.83157894736837" type="line"/>
      <point x="486.05263157894734" y="482.07368421052627"/>
      <point x="423.7052631578947" y="456.0736842105263"/>
      <point x="369.61052631578946" y="434.0736842105263" type="curve"/>
      <point x="261.2842105263158" y="390.0842105263158" type="line"/>
      <point x="208.93684210526314" y="369.0"/>
      <point x="146.6736842105263" y="344.0842105263158"/>
      <point x="83.2421052631579" y="320.5894736842105" type="curve"/>
      <point x="72.1263157894737" y="269.93684210526317" type="line"/>
      <point x="125.81052631578946" y="246.4421052631579"/>
      <point x="177.9894736842105" y="221.52631578947367"/>
      <point x="220.42105263157893" y="200.44210526315788" type="curve"/>
      <point x="311.0" y="156.45263157894738" type="line"/>
      <point x="355.17894736842106" y="134.45263157894738"/>
      <point x="407.52631578947364" y="107.53684210526315"/>
    </contour>
  </outline>
</glyph>
<glyph name="equal" format="2">
  <advance width="562.5263157894736"/>
  <unicode hex="003D"/>
  <outline>
    <contour>
      <point x="51.46315789473684" y="164.8315789473684" type="line"/>
      <point x="111.06315789473683" y="167.25263157894736"/>
      <point x="167.4105263157895" y="167.33684210526314"/>
      <point x="215.67368421052632" y="167.33684210526314" type="curve"/>
      <point x="313.4842105263158" y="167.33684210526314" type="line"/>
      <point x="361.7473684210526" y="167.33684210526314"/>
      <point x="418.09473684210525" y="167.25263157894736"/>
      <point x="477.35789473684207" y="164.8315789473684" type="curve"/>
      <point x="487.47368421052636" y="213.31578947368422" type="line"/>
      <point x="427.0421052631579" y="210.89473684210526"/>
      <point x="370.69473684210527" y="210.81052631578947"/>
      <point x="322.43157894736845" y="210.81052631578947" type="curve"/>
      <point x="224.62105263157895" y="210.81052631578947" type="line"/>
      <point x="176.35789473684213" y="210.81052631578947"/>
      <point x="120.01052631578946" y="210.89473684210526"/>
      <point x="61.57894736842104" y="213.31578947368422" type="curve"/>
    </contour>
    <contour>
      <point x="95.47368421052632" y="379.0421052631579" type="line"/>
      <point x="155.0736842105263" y="381.4631578947368"/>
      <point x="211.42105263157896" y="381.5473684210526"/>
      <point x="259.68421052631584" y="381.5473684210526" type="curve"/>
      <point x="357.4947368421053" y="381.5473684210526" type="line"/>
      <point x="405.7578947368421" y="381.5473684210526"/>
      <point x="462.10526315789474" y="381.4631578947368"/>
      <point x="521.3684210526316" y="379.0421052631579" type="curve"/>
      <point x="531.4842105263158" y="427.52631578947364" type="line"/>
      <point x="471.0526315789474" y="425.10526315789474"/>
      <point x="414.70526315789476" y="425.0210526315789"/>
      <point x="366.44210526315794" y="425.0210526315789" type="curve"/>
      <point x="268.6315789473685" y="425.0210526315789" type="line"/>
      <point x="220.3684210526316" y="425.0210526315789"/>
      <point x="164.02105263157893" y="425.10526315789474"/>
      <point x="105.58947368421052" y="427.52631578947364" type="curve"/>
    </contour>
  </outline>
</glyph>
<glyph name="greater" format="2">
  <advance width="562.5263157894736"/>
  <unicode hex="003E"/>
  <outline>
    <contour>
      <point x="32.29473684210526" y="80.69473684210526" type="line"/>
      <point x="96.89473684210526" y="108.45263157894736"/>
      <point x="159.2421052631579" y="134.45263157894738"/>
      <point x="213.33684210526317" y="156.45263157894738" type="curve"/>
      <point x="321.66315789473686" y="200.44210526315788" type="line"/>
      <point x="374.0105263157895" y="221.52631578947367"/>
      <point x="436.2736842105263" y="246.4421052631579"/>
      <point x="499.7052631578947" y="269.93684210526317" type="curve"/>
      <point x="510.82105263157894" y="320.5894736842105" type="line"/>
      <point x="457.13684210526316" y="344.0842105263158"/>
      <point x="404.9578947368421" y="369.0"/>
      <point x="362.5263157894737" y="390.0842105263158" type="curve"/>
      <point x="271.9473684210526" y="434.0736842105263" type="line"/>
      <point x="227.76842105263157" y="456.0736842105263"/>
      <point x="175.42105263157893" y="482.98947368421045"/>
      <point x="123.07368421052631" y="509.83157894736837" type="curve"/>
      <point x="111.9578947368421" y="459.178947368421" type="line"/>
      <point x="182.6" y="429.36842105263156"/>
      <point x="256.9894736842105" y="393.30526315789473"/>
      <point x="328.37894736842105" y="358.1578947368421" type="curve"/>
      <point x="443.1684210526316" y="302.10526315789474" type="line"/>
      <point x="441.08421052631576" y="295.2631578947369" type="line"/>
      <point x="303.5578947368421" y="239.37894736842105" type="line"/>
      <point x="216.8421052631579" y="204.23157894736843"/>
      <point x="127.29473684210527" y="168.33684210526317"/>
      <point x="43.66315789473684" y="138.5263157894737" type="curve"/>
    </contour>
  </outline>
</glyph>
<glyph name="at" format="2">
  <advance width="877.2736842105263"/>
  <unicode hex="0040"/>
  <outline>
    <contour>
      <point x="473.68421052631584" y="-124.94736842105263" type="curve" smooth="yes"/>
      <point x="557.8526315789474" y="-124.94736842105263"/>
      <point x="674.5157894736842" y="-85.8736842105263"/>
      <point x="755.8526315789474" y="-50.12631578947368" type="curve"/>
      <point x="755.8526315789474" y="-3.5368421052631582" type="line"/>
      <point x="653.7578947368422" y="-53.21052631578947"/>
      <point x="543.3368421052633" y="-83.2842105263158"/>
      <point x="473.68421052631584" y="-86.45263157894738" type="curve"/>
      <point x="189.7157894736842" y="-83.2842105263158"/>
      <point x="62.89473684210527" y="117.16842105263157"/>
      <point x="108.23157894736842" y="333.42105263157896" type="curve" smooth="yes"/>
      <point x="151.22105263157894" y="537.8631578947368"/>
      <point x="293.8421052631579" y="623.1368421052631"/>
      <point x="468.68421052631584" y="626.3052631578947" type="curve"/>
      <point x="690.821052631579" y="623.1368421052631"/>
      <point x="817.4736842105264" y="457.3578947368421"/>
      <point x="776.6421052631579" y="251.2842105263158" type="curve" smooth="yes"/>
      <point x="761.0631578947368" y="173.30526315789473"/>
      <point x="688.8421052631578" y="100.91578947368421"/>
      <point x="640.5263157894736" y="100.57894736842105" type="curve"/>
      <point x="585.5473684210527" y="102.74736842105263"/>
      <point x="563.7263157894737" y="132.32631578947368"/>
      <point x="577.1473684210526" y="199.01052631578946" type="curve"/>
      <point x="597.9684210526316" y="299.2" type="line"/>
      <point x="611.0526315789474" y="359.4421052631579"/>
      <point x="625.3052631578948" y="418.0210526315789"/>
      <point x="644.6421052631579" y="479.0105263157895" type="curve"/>
      <point x="601.9368421052632" y="475.58947368421053" type="line"/>
      <point x="585.8526315789474" y="421.01052631578943" type="line"/>
      <point x="580.1789473684211" y="421.01052631578943" type="line"/>
      <point x="549.9368421052632" y="454.85263157894735"/>
      <point x="492.36842105263156" y="484.9263157894737"/>
      <point x="441.8842105263158" y="484.9263157894737" type="curve" smooth="yes"/>
      <point x="348.0526315789474" y="484.9263157894737"/>
      <point x="275.14736842105265" y="414.4947368421053"/>
      <point x="251.56842105263158" y="301.17894736842106" type="curve" smooth="yes"/>
      <point x="226.4842105263158" y="182.0842105263158"/>
      <point x="273.4947368421053" y="72.49473684210527"/>
      <point x="393.3157894736842" y="72.49473684210527" type="curve" smooth="yes"/>
      <point x="436.0526315789474" y="72.49473684210527"/>
      <point x="483.9684210526316" y="94.66315789473684"/>
      <point x="528.8736842105263" y="140.2421052631579" type="curve"/>
      <point x="534.4631578947368" y="140.2421052631579" type="line"/>
      <point x="542.0631578947368" y="102.73684210526316"/>
      <point x="571.2631578947369" y="62.66315789473684"/>
      <point x="646.6842105263158" y="62.66315789473684" type="curve" smooth="yes"/>
      <point x="694.5263157894736" y="62.66315789473684"/>
      <point x="794.1368421052632" y="135.31578947368422"/>
      <point x="814.8947368421052" y="243.6" type="curve" smooth="yes"/>
      <point x="858.5684210526316" y="472.87368421052633"/>
      <point x="710.5473684210526" y="664.8"/>
      <point x="469.7684210526316" y="664.8" type="curve" smooth="yes"/>
      <point x="279.0947368421053" y="664.8"/>
      <point x="114.73684210526315" y="563.2947368421053"/>
      <point x="69.14736842105263" y="339.5263157894737" type="curve" smooth="yes"/>
      <point x="20.968421052631577" y="104.97894736842105"/>
      <point x="166.07368421052632" y="-124.94736842105263"/>
    </contour>
    <contour>
      <point x="401.6105263157895" y="112.6842105263158" type="curve"/>
      <point x="307.34736842105264" y="114.6842105263158"/>
      <point x="272.5368421052632" y="193.38947368421054"/>
      <point x="294.10526315789474" y="295.7368421052632" type="curve" smooth="yes"/>
      <point x="312.0947368421053" y="380.10526315789474"/>
      <point x="362.23157894736846" y="441.4842105263158"/>
      <point x="447.67368421052635" y="443.5684210526316" type="curve"/>
      <point x="495.47368421052636" y="444.3157894736842"/>
      <point x="540.021052631579" y="418.2526315789474"/>
      <point x="573.3263157894737" y="383.86315789473684" type="curve"/>
      <point x="533.2631578947369" y="197.78947368421052" type="line"/>
      <point x="489.63157894736844" y="138.0842105263158"/>
      <point x="441.16842105263163" y="114.6842105263158"/>
    </contour>
  </outline>
</glyph>
<glyph name="A" format="2">
  <advance width="675.1578947368421"/>
  <unicode hex="0041"/>
  <anchor x="285.53684210526313" y="0.0" name="bottom"/>
  <anchor x="592.8526315789474" y="0.0" name="ogonek"/>
  <anchor x="435.36842105263156" y="713.0" name="top"/>
  <outline>
    <contour>
      <point x="-24.03157894736842" y="0.0" type="curve"/>
      <point x="42.18947368421052" y="0.0" type="line"/>
      <point x="90.1578947368421" y="89.06315789473683"/>
      <point x="144.1263157894737" y="182.1263157894737"/>
      <point x="194.93684210526314" y="269.2736842105263" type="curve"/>
      <point x="425.0842105263158" y="662.9368421052632" type="line"/>
      <point x="431.9263157894737" y="662.9368421052632" type="line"/>
      <point x="495.2842105263158" y="268.1894736842105" type="line"/>
      <point x="509.0210526315789" y="183.0421052631579"/>
      <point x="524.2526315789473" y="86.39999999999999"/>
      <point x="533.9789473684211" y="0.0" type="curve"/>
      <point x="593.357894736842" y="0.0" type="line"/>
      <point x="578.2736842105263" y="75.0"/>
      <point x="562.1894736842105" y="163.0"/>
      <point x="548.8631578947368" y="242.66315789473683" type="curve"/>
      <point x="508.7157894736842" y="486.9157894736842" type="line"/>
      <point x="494.38947368421054" y="574.0"/>
      <point x="484.3999999999999" y="642.4947368421052"/>
      <point x="476.91578947368424" y="713.0" type="curve"/>
      <point x="396.821052631579" y="713.0" type="line"/>
      <point x="356.42105263157896" y="638.8315789473684"/>
      <point x="318.2631578947369" y="571.9157894736842"/>
      <point x="268.85263157894735" y="487.7473684210526" type="curve"/>
      <point x="124.9578947368421" y="243.0" type="line"/>
      <point x="79.54736842105264" y="166.0"/>
      <point x="25.968421052631577" y="76.83157894736841"/>
    </contour>
    <contour>
      <point x="133.97894736842105" y="195.67368421052632" type="line"/>
      <point x="522.9157894736842" y="195.67368421052632" type="line"/>
      <point x="529.5894736842105" y="238.30526315789473" type="line"/>
      <point x="144.94736842105263" y="238.30526315789473" type="line"/>
    </contour>
  </outline>
</glyph>
<glyph name="B" format="2">
  <advance width="637.4137931034484"/>
  <unicode hex="0042"/>
  <outline>
    <contour>
      <point x="278.57471264367814" y="-1.735632183908046" type="curve"/>
      <point x="488.1724137931035" y="-1.735632183908046"/>
      <point x="555.4367816091955" y="69.63218390804597"/>
      <point x="576.9885057471264" y="172.4712643678161" type="curve" smooth="yes"/>
      <point x="599.8045977011494" y="282.551724137931"/>
      <point x="536.9080459770115" y="339.28735632183907"/>
      <point x="476.0689655172414" y="361.2873563218391" type="curve"/>
      <point x="478.0689655172414" y="368.2068965517242" type="line"/>
      <point x="553.6206896551723" y="391.2873563218391"/>
      <point x="608.3563218390805" y="434.632183908046"/>
      <point x="626.5402298850574" y="522.0" type="curve" smooth="yes"/>
      <point x="649.1724137931034" y="632.3448275862069"/>
      <point x="585.9310344827585" y="714.551724137931"/>
      <point x="435.18390804597703" y="714.551724137931" type="curve"/>
      <point x="344.7126436781609" y="714.551724137931"/>
      <point x="272.48275862068965" y="713.0"/>
      <point x="199.56321839080462" y="713.0" type="curve"/>
      <point x="185.48275862068968" y="632.3678160919541"/>
      <point x="172.0344827586207" y="562.551724137931"/>
      <point x="153.0344827586207" y="473.0" type="curve"/>
      <point x="102.85057471264368" y="237.26436781609195" type="line"/>
      <point x="84.66666666666667" y="149.89655172413794"/>
      <point x="69.29885057471265" y="80.44827586206897"/>
      <point x="49.5632183908046" y="0.0" type="curve"/>
      <point x="85.97701149425288" y="0.0"/>
      <point x="181.08045977011494" y="-1.735632183908046"/>
    </contour>
    <contour>
      <point x="114.63218390804597" y="44.60919540229885" type="line"/>
      <point x="125.89655172413792" y="108.93103448275863"/>
      <point x="138.16091954022988" y="169.17241379310346"/>
      <point x="153.60919540229884" y="242.41379310344828" type="curve"/>
      <point x="201.58620689655172" y="469.6666666666667" type="line"/>
      <point x="217.03448275862067" y="543.0919540229885"/>
      <point x="230.48275862068968" y="603.1494252873563"/>
      <point x="246.29885057471265" y="668.3908045977012" type="curve"/>
      <point x="429.97701149425285" y="668.3908045977012" type="line" smooth="yes"/>
      <point x="543.4367816091955" y="668.3908045977012"/>
      <point x="594.9425287356322" y="616.0689655172414"/>
      <point x="575.4137931034483" y="522.8735632183908" type="curve" smooth="yes"/>
      <point x="558.5172413793103" y="443.65517241379314"/>
      <point x="495.2758620689655" y="383.88505747126436"/>
      <point x="364.2873563218391" y="383.88505747126436" type="curve" smooth="yes"/>
      <point x="173.19540229885055" y="383.88505747126436" type="line"/>
      <point x="163.62068965517238" y="340.82758620689657" type="line"/>
      <point x="360.71264367816093" y="340.82758620689657" type="line" smooth="yes"/>
      <point x="482.90804597701145" y="340.82758620689657"/>
      <point x="548.3103448275863" y="285.1379310344828"/>
      <point x="526.7816091954023" y="180.04597701149424" type="curve" smooth="yes"/>
      <point x="507.88505747126436" y="87.11494252873563"/>
      <point x="440.9310344827586" y="44.60919540229885"/>
      <point x="279.51724137931035" y="44.60919540229885" type="curve" smooth="yes"/>
    </contour>
  </outline>
</glyph>
<glyph name="C" format="2">
  <advance width="685.578947368421"/>
  <unicode hex="0043"/>
  <anchor x="348.2421052631579" y="0.0" name="bottom"/>
  <anchor x="489.08421052631576" y="713.0" name="top"/>
  <outline>
    <contour>
      <point x="381.42105263157896" y="-9.589473684210526" type="curve" smooth="yes"/>
      <point x="448.92631578947373" y="-9.589473684210526"/>
      <point x="526.1789473684211" y="10.410526315789474"/>
      <point x="582.8421052631579" y="39.231578947368426" type="curve"/>
      <point x="587.8736842105262" y="97.81052631578946" type="line"/>
      <point x="526.2842105263156" y="59.473684210526315"/>
      <point x="451.35789473684207" y="37.305263157894736"/>
      <point x="384.29473684210524" y="37.305263157894736" type="curve"/>
      <point x="176.96842105263158" y="40.38947368421052"/>
      <point x="98.09473684210526" y="210.4"/>
      <point x="136.32631578947365" y="391.1473684210526" type="curve" smooth="yes"/>
      <point x="177.72631578947366" y="585.9052631578948"/>
      <point x="308.58947368421053" y="674.7684210526315"/>
      <point x="483.38947368421054" y="677.8526315789474" type="curve"/>
      <point x="522.2210526315789" y="677.8526315789474"/>
      <point x="606.2947368421054" y="659.6842105263158"/>
      <point x="703.8842105263158" y="616.0105263157894" type="curve"/>
      <point x="720.3473684210527" y="668.1789473684211" type="line"/>
      <point x="661.0947368421051" y="691.8421052631579"/>
      <point x="565.2631578947368" y="725.3368421052631"/>
      <point x="487.32631578947365" y="725.3368421052631" type="curve" smooth="yes"/>
      <point x="281.5368421052632" y="725.3368421052631"/>
      <point x="131.05263157894737" y="612.3368421052631"/>
      <point x="86.13684210526316" y="399.33684210526314" type="curve" smooth="yes"/>
      <point x="41.8" y="189.56842105263158"/>
      <point x="144.4842105263158" y="-9.589473684210526"/>
    </contour>
  </outline>
</glyph>
<glyph name="D" format="2">
  <advance width="738.6631578947369"/>
  <unicode hex="0044"/>
  <anchor x="298.33684210526314" y="0.0" name="bottom"/>
  <anchor x="393.14099999999996" y="357.0" name="center"/>
  <anchor x="448.33684210526314" y="713.0" name="top"/>
  <outline>
    <contour>
      <point x="49.5157894736842" y="0.0" type="curve"/>
      <point x="135.6" y="0.0"/>
      <point x="198.05263157894737" y="-1.6736842105263157"/>
      <point x="288.8315789473684" y="-1.6736842105263157" type="curve"/>
      <point x="552.1894736842106" y="-1.6736842105263157"/>
      <point x="658.6105263157895" y="129.0842105263158"/>
      <point x="701.4421052631579" y="332.8315789473684" type="curve" smooth="yes"/>
      <point x="743.5263157894736" y="534.7578947368421"/>
      <point x="640.1894736842106" y="714.5052631578948"/>
      <point x="403.70526315789476" y="714.5052631578948" type="curve"/>
      <point x="337.1578947368421" y="714.5052631578948"/>
      <point x="280.17894736842106" y="713.0"/>
      <point x="199.5157894736842" y="713.0" type="curve"/>
      <point x="185.44210526315788" y="632.3368421052631"/>
      <point x="172.03157894736842" y="562.5894736842105"/>
      <point x="152.94736842105263" y="473.08421052631576" type="curve"/>
      <point x="102.77894736842104" y="237.2421052631579" type="line"/>
      <point x="84.69473684210526" y="149.90526315789472"/>
      <point x="69.27368421052631" y="80.41052631578947"/>
    </contour>
    <contour>
      <point x="115.0" y="44.642105263157895" type="line"/>
      <point x="126.2421052631579" y="109.18947368421053"/>
      <point x="138.56842105263158" y="169.57894736842104"/>
      <point x="153.97894736842105" y="242.79999999999998" type="curve"/>
      <point x="201.8736842105263" y="469.7789473684211" type="line"/>
      <point x="217.3684210526316" y="543.3368421052631"/>
      <point x="230.94736842105263" y="603.5578947368421"/>
      <point x="246.44210526315788" y="668.3578947368421" type="curve"/>
      <point x="391.4947368421053" y="668.3578947368421" type="line"/>
      <point x="612.2842105263157" y="665.1052631578948"/>
      <point x="688.3157894736842" y="514.5999999999999"/>
      <point x="650.9157894736842" y="340.9263157894737" type="curve" smooth="yes"/>
      <point x="612.6842105263157" y="158.5157894736842"/>
      <point x="530.063157894737" y="47.97894736842105"/>
      <point x="291.6842105263158" y="44.642105263157895" type="curve"/>
    </contour>
  </outline>
</glyph>
<glyph name="E" format="2">
  <advance width="592.1034482758621"/>
  <unicode hex="0045"/>
  <anchor x="266.5287356321839" y="0.0" name="bottom"/>
  <anchor x="478.57471264367814" y="0.0" name="ogonek"/>
  <anchor x="416.5287356321839" y="713.0" name="top"/>
  <anchor x="135.0" y="713.0" name="topleft"/>
  <outline>
    <contour>
      <point x="49.5632183908046" y="0.0" type="curve"/>
      <point x="106.79310344827587" y="0.0" type="line"/>
      <point x="108.52873563218391" y="6.942528735632184" type="line"/>
      <point x="121.42528735632185" y="87.39080459770115"/>
      <point x="135.0574712643678" y="156.02298850574712"/>
      <point x="154.0574712643678" y="244.20689655172413" type="curve"/>
      <point x="201.77011494252872" y="468.8735632183908" type="line"/>
      <point x="219.95402298850573" y="557.4252873563219"/>
      <point x="236.32183908045977" y="626.2413793103449"/>
      <point x="256.0574712643678" y="706.8735632183908" type="curve"/>
      <point x="256.7931034482759" y="713.0" type="line"/>
      <point x="199.56321839080462" y="713.0" type="line"/>
      <point x="185.48275862068968" y="632.3678160919541"/>
      <point x="172.0344827586207" y="562.551724137931"/>
      <point x="153.0344827586207" y="473.0" type="curve"/>
      <point x="102.85057471264368" y="237.26436781609195" type="line"/>
      <point x="84.66666666666667" y="149.89655172413794"/>
      <point x="69.29885057471265" y="80.44827586206897"/>
    </contour>
    <contour>
      <point x="94.85057471264368" y="0.0" type="line"/>
      <point x="478.9425287356321" y="0.0" type="line"/>
      <point x="489.43678160919535" y="50.632183908045974" type="line"/>
      <point x="413.5402298850575" y="46.52873563218391"/>
      <point x="333.1954022988506" y="45.3448275862069"/>
      <point x="242.03448275862067" y="45.3448275862069" type="curve"/>
      <point x="104.79310344827586" y="45.3448275862069" type="line"/>
    </contour>
    <contour>
      <point x="163.62068965517238" y="339.82758620689657" type="line"/>
      <point x="305.7816091954023" y="339.82758620689657" type="line"/>
      <point x="398.49425287356325" y="339.82758620689657"/>
      <point x="460.7586206896552" y="339.64367816091954"/>
      <point x="528.6551724137931" y="338.09195402298855" type="curve"/>
      <point x="538.9655172413793" y="388.17241379310343" type="line"/>
      <point x="474.51724137931035" y="384.62068965517244"/>
      <point x="411.25287356321843" y="384.4367816091954"/>
      <point x="316.54022988505744" y="384.4367816091954" type="curve"/>
      <point x="173.37931034482756" y="384.4367816091954" type="line"/>
    </contour>
    <contour>
      <point x="233.43678160919544" y="667.6551724137931" type="line"/>
      <point x="367.04597701149424" y="667.6551724137931" type="line"/>
      <point x="475.0229885057471" y="667.6551724137931"/>
      <point x="549.5517241379312" y="666.2873563218391"/>
      <point x="619.080459770115" y="662.3678160919541" type="curve"/>
      <point x="629.3908045977012" y="713.0" type="line"/>
      <point x="243.37931034482762" y="713.0" type="line"/>
    </contour>
  </outline>
</glyph>
<glyph name="F" format="2">
  <advance width="572.2631578947369"/>
  <unicode hex="0046"/>
  <outline>
    <contour>
      <point x="49.5157894736842" y="0.0" type="curve"/>
      <point x="106.81052631578949" y="0.0" type="line"/>
      <point x="119.8842105263158" y="80.41052631578947"/>
      <point x="133.29473684210527" y="148.0736842105263"/>
      <point x="152.2947368421053" y="237.2421052631579" type="curve"/>
      <point x="201.70526315789476" y="468.8" type="line"/>
      <point x="219.87368421052633" y="557.3894736842105"/>
      <point x="236.29473684210527" y="626.2210526315789"/>
      <point x="256.13684210526316" y="706.8842105263158" type="curve"/>
      <point x="256.8105263157895" y="713.0" type="line"/>
      <point x="199.5157894736842" y="713.0" type="line"/>
      <point x="185.44210526315788" y="632.3368421052631"/>
      <point x="172.03157894736842" y="562.5894736842105"/>
      <point x="152.94736842105263" y="473.08421052631576" type="curve"/>
      <point x="102.77894736842104" y="237.2421052631579" type="line"/>
      <point x="84.69473684210526" y="149.90526315789472"/>
      <point x="69.27368421052631" y="80.41052631578947"/>
    </contour>
    <contour>
      <point x="162.89473684210526" y="338.41052631578947" type="line"/>
      <point x="295.8842105263158" y="338.41052631578947" type="line"/>
      <point x="388.62105263157895" y="338.41052631578947"/>
      <point x="450.77894736842103" y="338.2421052631579"/>
      <point x="518.6842105263158" y="336.56842105263155" type="curve"/>
      <point x="528.9684210526316" y="386.81052631578945" type="line"/>
      <point x="464.64210526315793" y="383.2210526315789"/>
      <point x="401.4" y="383.05263157894734"/>
      <point x="306.57894736842104" y="383.05263157894734" type="curve"/>
      <point x="172.67368421052632" y="383.05263157894734" type="line"/>
    </contour>
    <contour>
      <point x="233.06315789473686" y="667.6" type="line"/>
      <point x="357.46315789473687" y="667.6" type="line"/>
      <point x="465.4421052631579" y="667.6"/>
      <point x="539.9263157894736" y="666.1789473684211"/>
      <point x="609.4947368421053" y="662.421052631579" type="curve"/>
      <point x="619.7789473684211" y="713.0" type="line"/>
      <point x="243.0105263157895" y="713.0" type="line"/>
    </contour>
  </outline>
</glyph>
<glyph name="H" format="2">
  <advance width="750.9263157894737"/>
  <unicode hex="0048"/>
  <anchor x="323.42105263157896" y="0.0" name="bottom"/>
  <anchor x="398.42105263157896" y="357.0" name="center"/>
  <anchor x="473.42105263157896" y="713.0" name="top"/>
  <anchor x="134.50526315789475" y="713.0" name="topleft"/>
  <outline>
    <contour>
      <point x="539.4421052631579" y="0.0" type="curve"/>
      <point x="597.2421052631578" y="0.0" type="line"/>
      <point x="610.3157894736842" y="80.41052631578947"/>
      <point x="623.7263157894737" y="148.0736842105263"/>
      <point x="642.7263157894736" y="237.2421052631579" type="curve"/>
      <point x="692.8947368421052" y="473.08421052631576" type="line"/>
      <point x="711.978947368421" y="562.5894736842105"/>
      <point x="727.4" y="632.3368421052631"/>
      <point x="747.2421052631578" y="713.0" type="curve"/>
      <point x="689.4421052631579" y="713.0" type="line"/>
      <point x="675.3684210526316" y="632.3368421052631"/>
      <point x="661.9578947368421" y="562.5894736842105"/>
      <point x="642.8736842105263" y="473.08421052631576" type="curve"/>
      <point x="592.7052631578948" y="237.2421052631579" type="line"/>
      <point x="574.621052631579" y="149.90526315789472"/>
      <point x="559.2" y="80.41052631578947"/>
    </contour>
    <contour>
      <point x="49.5157894736842" y="0.0" type="curve"/>
      <point x="107.3157894736842" y="0.0" type="line"/>
      <point x="120.38947368421053" y="80.41052631578947"/>
      <point x="133.8" y="148.0736842105263"/>
      <point x="152.8" y="237.2421052631579" type="curve"/>
      <point x="202.96842105263158" y="473.08421052631576" type="line"/>
      <point x="222.05263157894737" y="562.5894736842105"/>
      <point x="237.4736842105263" y="632.3368421052631"/>
      <point x="257.3157894736842" y="713.0" type="curve"/>
      <point x="199.5157894736842" y="713.0" type="line"/>
      <point x="185.44210526315788" y="632.3368421052631"/>
      <point x="172.03157894736842" y="562.5894736842105"/>
      <point x="152.94736842105263" y="473.08421052631576" type="curve"/>
      <point x="102.77894736842104" y="237.2421052631579" type="line"/>
      <point x="84.69473684210526" y="149.90526315789472"/>
      <point x="69.27368421052631" y="80.41052631578947"/>
    </contour>
    <contour>
      <point x="150.0" y="339.33684210526314" type="line"/>
      <point x="641.4736842105262" y="339.33684210526314" type="line"/>
      <point x="651.5052631578947" y="384.7368421052632" type="line"/>
      <point x="160.03157894736842" y="384.7368421052632" type="line"/>
    </contour>
  </outline>
</glyph>
<glyph name="I" format="2">
  <advance width="262.2631578947368"/>
  <unicode hex="0049"/>
  <anchor x="78.21052631578947" y="0.0" name="bottom"/>
  <anchor x="107.73684210526315" y="0.0" name="ogonek"/>
  <anchor x="228.21052631578948" y="713.0" name="top"/>
  <anchor x="134.4105263157895" y="713.0" name="topleft"/>
  <outline>
    <contour>
      <point x="49.936842105263146" y="0.0" type="curve"/>
      <point x="108.1578947368421" y="0.0" type="line"/>
      <point x="121.2315789473684" y="80.41052631578947"/>
      <point x="134.64210526315787" y="148.0736842105263"/>
      <point x="153.6421052631579" y="237.2421052631579" type="curve"/>
      <point x="203.81052631578947" y="473.08421052631576" type="line"/>
      <point x="222.89473684210526" y="562.5894736842105"/>
      <point x="238.3157894736842" y="632.3368421052631"/>
      <point x="258.1578947368421" y="713.0" type="curve"/>
      <point x="199.93684210526317" y="713.0" type="line"/>
      <point x="185.86315789473684" y="632.3368421052631"/>
      <point x="172.45263157894738" y="562.5894736842105"/>
      <point x="153.3684210526316" y="473.08421052631576" type="curve"/>
      <point x="103.19999999999999" y="237.2421052631579" type="line"/>
      <point x="85.1157894736842" y="149.90526315789472"/>
      <point x="69.69473684210526" y="80.41052631578947"/>
    </contour>
  </outline>
</glyph>
<glyph name="J" format="2">
  <advance width="278.2421052631579"/>
  <unicode hex="004A"/>
  <anchor x="93.61052631578949" y="0.0" name="bottom"/>
  <anchor x="243.61052631578949" y="713.0" name="top"/>
  <outline>
    <contour>
      <point x="-67.94736842105263" y="-159.32631578947368" type="curve"/>
      <point x="1.7157894736842123" y="-159.32631578947368" type="line"/>
      <point x="47.88421052631579" y="-114.15789473684211"/>
      <point x="113.05263157894736" y="-43.07368421052632"/>
      <point x="134.30526315789476" y="57.93684210526315" type="curve" smooth="yes"/>
      <point x="148.7263157894737" y="125.12631578947368"/>
      <point x="161.13684210526316" y="197.4"/>
      <point x="178.4736842105263" y="279.0842105263158" type="curve"/>
      <point x="219.78947368421052" y="473.08421052631576" type="line"/>
      <point x="238.8736842105263" y="562.5894736842105"/>
      <point x="254.29473684210527" y="632.3368421052631"/>
      <point x="274.1368421052631" y="713.0" type="curve"/>
      <point x="216.33684210526317" y="713.0" type="line"/>
      <point x="202.26315789473685" y="632.3368421052631"/>
      <point x="188.85263157894738" y="562.5894736842105"/>
      <point x="169.7684210526316" y="473.08421052631576" type="curve"/>
      <point x="122.0421052631579" y="248.86315789473684" type="line"/>
      <point x="81.44210526315788" y="61.694736842105264" type="line"/>
      <point x="62.52631578947368" y="-26.968421052631584"/>
      <point x="1.463157894736839" y="-97.14736842105263"/>
    </contour>
  </outline>
</glyph>
<glyph name="K" format="2">
  <advance width="656.157894736842"/>
  <unicode hex="004B"/>
  <anchor x="283.62105263157895" y="0.0" name="bottom"/>
  <anchor x="433.62105263157895" y="713.0" name="top"/>
  <outline>
    <contour>
      <point x="501.71578947368414" y="0.0" type="curve"/>
      <point x="574.6947368421053" y="0.0" type="line"/>
      <point x="519.2105263157895" y="59.421052631578945"/>
      <point x="436.4947368421052" y="153.93684210526317"/>
      <point x="375.27368421052637" y="224.94736842105263" type="curve"/>
      <point x="243.00000000000003" y="379.22105263157897" type="line"/>
      <point x="244.66315789473686" y="353.6421052631579" type="line"/>
      <point x="417.94736842105266" y="491.7368421052631" type="line"/>
      <point x="510.4210526315789" y="563.4947368421052"/>
      <point x="602.8105263157895" y="636.0000000000001"/>
      <point x="704.5368421052631" y="713.0" type="curve"/>
      <point x="621.9684210526316" y="713.0" type="line"/>
      <point x="526.8736842105262" y="634.7684210526317"/>
      <point x="459.74736842105267" y="580.6105263157895"/>
      <point x="383.0421052631579" y="519.9578947368421" type="curve"/>
      <point x="218.38947368421054" y="390.0736842105263" type="line"/>
      <point x="176.6421052631579" y="390.0736842105263" type="line"/>
      <point x="166.94736842105263" y="345.7684210526316" type="line"/>
      <point x="208.11578947368423" y="345.7684210526316" type="line"/>
      <point x="339.6842105263158" y="192.6315789473684" type="line"/>
      <point x="390.978947368421" y="133.7263157894737"/>
      <point x="442.1894736842105" y="72.90526315789474"/>
    </contour>
    <contour>
      <point x="49.5157894736842" y="0.0" type="curve"/>
      <point x="107.23157894736842" y="0.0" type="line"/>
      <point x="120.30526315789473" y="80.41052631578947"/>
      <point x="133.7157894736842" y="148.0736842105263"/>
      <point x="152.71578947368423" y="237.2421052631579" type="curve"/>
      <point x="202.8842105263158" y="473.08421052631576" type="line"/>
      <point x="221.96842105263158" y="562.5894736842105"/>
      <point x="237.38947368421051" y="632.3368421052631"/>
      <point x="257.2315789473684" y="713.0" type="curve"/>
      <point x="199.5157894736842" y="713.0" type="line"/>
      <point x="185.44210526315788" y="632.3368421052631"/>
      <point x="172.03157894736842" y="562.5894736842105"/>
      <point x="152.94736842105263" y="473.08421052631576" type="curve"/>
      <point x="102.77894736842104" y="237.2421052631579" type="line"/>
      <point x="84.69473684210526" y="149.90526315789472"/>
      <point x="69.27368421052631" y="80.41052631578947"/>
    </contour>
  </outline>
</glyph>
<glyph name="L" format="2">
  <advance width="567.0947368421052"/>
  <unicode hex="004C"/>
  <anchor x="265.1473684210526" y="0.0" name="bottom"/>
  <anchor x="438.62105263157895" y="357.2526315789474" name="center"/>
  <anchor x="286.2315789473684" y="713.0" name="top"/>
  <anchor x="324.9684210526316" y="494.6736842105263" name="topright"/>
  <outline>
    <contour>
      <point x="49.5157894736842" y="0.0" type="curve"/>
      <point x="107.3157894736842" y="0.0" type="line"/>
      <point x="108.98947368421051" y="7.031578947368422" type="line"/>
      <point x="121.97894736842105" y="87.4421052631579"/>
      <point x="136.38947368421051" y="156.93684210526317"/>
      <point x="154.4736842105263" y="244.2736842105263" type="curve"/>
      <point x="202.96842105263158" y="473.08421052631576" type="line"/>
      <point x="222.05263157894737" y="562.5894736842105"/>
      <point x="237.4736842105263" y="632.3368421052631"/>
      <point x="257.3157894736842" y="713.0" type="curve"/>
      <point x="199.5157894736842" y="713.0" type="line"/>
      <point x="185.44210526315788" y="632.3368421052631"/>
      <point x="172.03157894736842" y="562.5894736842105"/>
      <point x="152.94736842105263" y="473.08421052631576" type="curve"/>
      <point x="102.77894736842104" y="237.2421052631579" type="line"/>
      <point x="84.69473684210526" y="149.90526315789472"/>
      <point x="69.27368421052631" y="80.41052631578947"/>
    </contour>
    <contour>
      <point x="94.77894736842104" y="0.0" type="line"/>
      <point x="478.18947368421055" y="0.0" type="line"/>
      <point x="488.81052631578945" y="52.01052631578948" type="line"/>
      <point x="406.3263157894737" y="47.83157894736842"/>
      <point x="336.75789473684216" y="46.242105263157896"/>
      <point x="216.45263157894735" y="46.242105263157896" type="curve"/>
      <point x="104.97894736842103" y="46.242105263157896" type="line"/>
    </contour>
  </outline>
</glyph>
<glyph name="M" format="2">
  <advance width="951.7684210526315"/>
  <unicode hex="004D"/>
  <anchor x="423.75789473684205" y="0.0" name="bottom"/>
  <anchor x="573.7578947368421" y="713.0" name="top"/>
  <outline>
    <contour>
      <point x="18.778947368421054" y="0.0" type="curve"/>
      <point x="77.14736842105263" y="0.0" type="line"/>
      <point x="120.69473684210529" y="137.85263157894735"/>
      <point x="162.9157894736842" y="268.70526315789476"/>
      <point x="199.31578947368422" y="378.7368421052632" type="curve"/>
      <point x="276.9473684210526" y="616.0421052631579" type="line"/>
      <point x="281.04210526315785" y="616.0421052631579" type="line"/>
      <point x="334.5052631578948" y="357.9157894736842" type="line"/>
      <point x="357.9894736842105" y="238.38947368421051"/>
      <point x="383.378947368421" y="100.12631578947368"/>
      <point x="402.18947368421055" y="0.0" type="curve"/>
      <point x="447.1684210526316" y="0.0" type="line"/>
      <point x="511.8736842105264" y="106.45263157894736"/>
      <point x="591.6526315789474" y="236.38947368421051"/>
      <point x="668.1894736842105" y="359.7473684210526" type="curve"/>
      <point x="827.8421052631579" y="616.0421052631579" type="line"/>
      <point x="831.9368421052632" y="616.0421052631579" type="line"/>
      <point x="810.8631578947369" y="378.7368421052632" type="line"/>
      <point x="801.2842105263159" y="268.70526315789476"/>
      <point x="787.2842105263156" y="140.5157894736842"/>
      <point x="770.6947368421052" y="0.0" type="curve"/>
      <point x="828.8210526315789" y="0.0" type="line"/>
      <point x="833.8947368421052" y="80.32631578947368"/>
      <point x="839.221052631579" y="151.1578947368421"/>
      <point x="847.1368421052631" y="237.2421052631579" type="curve"/>
      <point x="868.8842105263158" y="472.9157894736842" type="line"/>
      <point x="876.8" y="560.7473684210526"/>
      <point x="884.2210526315788" y="631.3368421052631"/>
      <point x="893.8105263157895" y="713.0" type="curve"/>
      <point x="832.2631578947368" y="713.0" type="line"/>
      <point x="765.5578947368421" y="600.2947368421053"/>
      <point x="701.3473684210526" y="496.17894736842106"/>
      <point x="635.8" y="391.6421052631579" type="curve"/>
      <point x="442.07368421052627" y="82.1157894736842" type="line"/>
      <point x="437.1473684210526" y="82.1157894736842" type="line"/>
      <point x="374.93684210526317" y="391.6421052631579" type="line"/>
      <point x="354.2" y="496.17894736842106"/>
      <point x="333.5473684210527" y="600.5473684210526"/>
      <point x="315.90526315789475" y="713.0" type="curve"/>
      <point x="256.0315789473684" y="713.0" type="line"/>
      <point x="232.78947368421052" y="630.3368421052631"/>
      <point x="209.9578947368421" y="558.9157894736842"/>
      <point x="180.9578947368421" y="472.9157894736842" type="curve"/>
      <point x="102.70526315789475" y="237.2421052631579" type="line"/>
      <point x="73.70526315789475" y="150.32631578947368"/>
      <point x="49.11578947368422" y="80.07368421052632"/>
    </contour>
  </outline>
</glyph>
<glyph name="N" format="2">
  <advance width="760.578947368421"/>
  <unicode hex="004E"/>
  <anchor x="326.9157894736842" y="0.0" name="bottom"/>
  <anchor x="476.9157894736842" y="713.0" name="top"/>
  <outline>
    <contour>
      <point x="49.5157894736842" y="0.0" type="curve"/>
      <point x="105.88421052631578" y="0.0" type="line"/>
      <point x="118.95789473684209" y="80.41052631578947"/>
      <point x="132.36842105263156" y="148.0736842105263"/>
      <point x="151.3684210526316" y="237.2421052631579" type="curve"/>
      <point x="234.55789473684212" y="632.621052631579" type="line"/>
      <point x="239.5684210526316" y="632.621052631579" type="line"/>
      <point x="362.91578947368424" y="383.1578947368421" type="line"/>
      <point x="436.7894736842105" y="234.31578947368422"/>
      <point x="495.3368421052631" y="112.87368421052632"/>
      <point x="548.2947368421052" y="0.0" type="curve"/>
      <point x="604.1473684210525" y="0.0" type="line"/>
      <point x="617.221052631579" y="80.41052631578947"/>
      <point x="630.6315789473684" y="148.0736842105263"/>
      <point x="649.6315789473684" y="237.2421052631579" type="curve"/>
      <point x="699.8" y="473.08421052631576" type="line"/>
      <point x="718.8842105263158" y="562.5894736842105"/>
      <point x="734.3052631578947" y="632.3368421052631"/>
      <point x="754.1473684210525" y="713.0" type="curve"/>
      <point x="697.7789473684211" y="713.0" type="line"/>
      <point x="683.7052631578947" y="632.3368421052631"/>
      <point x="670.2947368421053" y="562.5894736842105"/>
      <point x="651.2105263157895" y="473.08421052631576" type="curve"/>
      <point x="568.1894736842106" y="84.0421052631579" type="line"/>
      <point x="563.0947368421054" y="84.0421052631579" type="line"/>
      <point x="440.9157894736842" y="331.58947368421053" type="line"/>
      <point x="381.2842105263158" y="452.7789473684211"/>
      <point x="320.32631578947365" y="579.0526315789472"/>
      <point x="256.9578947368421" y="713.0" type="curve"/>
      <point x="199.5157894736842" y="713.0" type="line"/>
      <point x="185.44210526315788" y="632.3368421052631"/>
      <point x="172.03157894736842" y="562.5894736842105"/>
      <point x="152.94736842105263" y="473.08421052631576" type="curve"/>
      <point x="102.77894736842104" y="237.2421052631579" type="line"/>
      <point x="84.69473684210526" y="149.90526315789472"/>
      <point x="69.27368421052631" y="80.41052631578947"/>
    </contour>
  </outline>
</glyph>
<glyph name="O" format="2">
  <advance width="818.3263157894737"/>
  <unicode hex="004F"/>
  <anchor x="357.57894736842104" y="0.0" name="bottom"/>
  <anchor x="432.57894736842104" y="357.0" name="center"/>
  <anchor x="468.5473684210527" y="0.0" name="ogonek"/>
  <anchor x="507.57894736842104" y="713.0" name="top"/>
  <anchor x="125.57894736842105" y="713.0" name="topleft"/>
  <anchor x="791.1684210526316" y="713.0" name="topright"/>
  <outline>
    <contour>
      <point x="402.74736842105267" y="-9.589473684210526" type="curve" smooth="yes"/>
      <point x="593.6947368421053" y="-9.589473684210526"/>
      <point x="736.1052631578948" y="120.83157894736841"/>
      <point x="776.2736842105263" y="309.5052631578947" type="curve" smooth="yes"/>
      <point x="823.3578947368421" y="529.7578947368421"/>
      <point x="698.6105263157895" y="725.3368421052631"/>
      <point x="467.90526315789475" y="725.3368421052631" type="curve" smooth="yes"/>
      <point x="273.2947368421053" y="725.3368421052631"/>
      <point x="129.05263157894737" y="597.5052631578947"/>
      <point x="85.22105263157896" y="393.84210526315786" type="curve" smooth="yes"/>
      <point x="39.22105263157894" y="176.7578947368421"/>
      <point x="167.53684210526316" y="-9.589473684210526"/>
    </contour>
    <contour>
      <point x="403.08421052631576" y="37.305263157894736" type="curve"/>
      <point x="207.69473684210527" y="41.97894736842105"/>
      <point x="93.34736842105262" y="185.0"/>
      <point x="135.49473684210525" y="385.82105263157894" type="curve" smooth="yes"/>
      <point x="172.89473684210526" y="557.578947368421"/>
      <point x="282.7578947368421" y="673.9368421052632"/>
      <point x="467.65263157894736" y="678.4421052631579" type="curve"/>
      <point x="660.8" y="673.7684210526317"/>
      <point x="768.8105263157894" y="521.2526315789474"/>
      <point x="725.8315789473684" y="318.021052631579" type="curve" smooth="yes"/>
      <point x="693.8421052631579" y="161.32631578947368"/>
      <point x="583.9789473684211" y="41.642105263157895"/>
    </contour>
  </outline>
</glyph>
<glyph name="P" format="2">
  <advance width="615.7011494252874"/>
  <unicode hex="0050"/>
  <outline>
    <contour>
      <point x="335.8045977011494" y="301.54022988505744" type="curve"/>
      <point x="538.0459770114942" y="301.54022988505744"/>
      <point x="595.8045977011495" y="374.09195402298855"/>
      <point x="622.1724137931035" y="498.85057471264366" type="curve" smooth="yes"/>
      <point x="649.2758620689656" y="627.735632183908"/>
      <point x="580.2528735632184" y="714.551724137931"/>
      <point x="423.67816091954023" y="714.551724137931" type="curve"/>
      <point x="323.0" y="714.551724137931"/>
      <point x="255.77011494252872" y="713.0"/>
      <point x="199.56321839080462" y="713.0" type="curve"/>
      <point x="231.7471264367816" y="668.3908045977012" type="line"/>
      <point x="415.816091954023" y="668.3908045977012" type="line" smooth="yes"/>
      <point x="496.58620689655174" y="668.3908045977012"/>
      <point x="601.1264367816092" y="643.0229885057471"/>
      <point x="571.1494252873563" y="504.03448275862075" type="curve" smooth="yes"/>
      <point x="545.8045977011494" y="380.8620689655172"/>
      <point x="484.8505747126437" y="346.51724137931035"/>
      <point x="336.7816091954023" y="346.51724137931035" type="curve" smooth="yes"/>
      <point x="168.77011494252872" y="346.51724137931035" type="line"/>
      <point x="159.01149425287355" y="302.7241379310345" type="line"/>
      <point x="199.01149425287358" y="302.7241379310345"/>
      <point x="284.98850574712645" y="301.54022988505744"/>
    </contour>
    <contour>
      <point x="49.5632183908046" y="0.0" type="curve"/>
      <point x="107.16091954022988" y="0.0" type="line"/>
      <point x="120.24137931034483" y="80.44827586206897"/>
      <point x="133.50574712643675" y="148.08045977011494"/>
      <point x="152.50574712643677" y="237.26436781609195" type="curve"/>
      <point x="201.95402298850573" y="468.8735632183908" type="line"/>
      <point x="220.13793103448273" y="557.4252873563219"/>
      <point x="236.50574712643677" y="626.2413793103449"/>
      <point x="256.4252873563218" y="706.8735632183908" type="curve"/>
      <point x="199.56321839080462" y="713.0" type="line"/>
      <point x="185.48275862068968" y="632.3678160919541"/>
      <point x="172.0344827586207" y="562.551724137931"/>
      <point x="153.0344827586207" y="473.0" type="curve"/>
      <point x="102.85057471264368" y="237.26436781609195" type="line"/>
      <point x="84.66666666666667" y="149.89655172413794"/>
      <point x="69.29885057471266" y="80.44827586206897"/>
    </contour>
  </outline>
</glyph>
<glyph name="R" format="2">
  <advance width="662.3333333333333"/>
  <unicode hex="0052"/>
  <anchor x="279.5747126436782" y="0.0" name="bottom"/>
  <anchor x="414.0689655172414" y="713.0" name="top"/>
  <outline>
    <contour>
      <point x="508.49425287356325" y="0.0" type="curve"/>
      <point x="576.3793103448276" y="0.0" type="line"/>
      <point x="536.4827586206897" y="54.81609195402299"/>
      <point x="480.1379310344828" y="137.55172413793105"/>
      <point x="437.1609195402299" y="201.91954022988506" type="curve"/>
      <point x="344.2068965517242" y="342.28735632183907" type="line"/>
      <point x="332.4597701149425" y="317.8505747126437" type="line"/>
      <point x="529.5172413793105" y="316.0344827586207"/>
      <point x="589.2758620689656" y="387.03448275862064"/>
      <point x="614.4597701149426" y="506.1379310344828" type="curve" smooth="yes"/>
      <point x="640.3793103448276" y="626.919540229885"/>
      <point x="570.9885057471264" y="714.551724137931"/>
      <point x="414.22988505747134" y="714.551724137931" type="curve"/>
      <point x="316.3103448275863" y="714.551724137931"/>
      <point x="256.87356321839076" y="713.0"/>
      <point x="199.56321839080462" y="713.0" type="curve"/>
      <point x="226.78160919540227" y="668.3908045977012" type="line"/>
      <point x="406.55172413793105" y="668.3908045977012" type="line" smooth="yes"/>
      <point x="487.32183908045977" y="668.3908045977012"/>
      <point x="590.8620689655173" y="642.9425287356322"/>
      <point x="562.7011494252874" y="510.40229885057465" type="curve" smooth="yes"/>
      <point x="536.9885057471265" y="388.8390804597701"/>
      <point x="474.48275862068965" y="355.04597701149424"/>
      <point x="327.14942528735634" y="355.04597701149424" type="curve" smooth="yes"/>
      <point x="167.29885057471262" y="355.04597701149424" type="line"/>
      <point x="157.54022988505744" y="311.2528735632184" type="line"/>
      <point x="323.64367816091954" y="311.2528735632184" type="line"/>
      <point x="294.55172413793105" y="333.28735632183907" type="line"/>
      <point x="396.05747126436785" y="176.68965517241378" type="line"/>
      <point x="433.11494252873564" y="120.1609195402299"/>
      <point x="470.1724137931034" y="62.44827586206897"/>
    </contour>
    <contour>
      <point x="49.5632183908046" y="0.0" type="curve"/>
      <point x="107.1609195402299" y="0.0" type="line"/>
      <point x="120.24137931034484" y="80.44827586206897"/>
      <point x="133.5057471264368" y="148.08045977011494"/>
      <point x="152.5057471264368" y="237.26436781609195" type="curve"/>
      <point x="201.95402298850576" y="468.8735632183908" type="line"/>
      <point x="220.13793103448276" y="557.4252873563219"/>
      <point x="236.50574712643677" y="626.2413793103448"/>
      <point x="256.42528735632186" y="706.8735632183908" type="curve"/>
      <point x="199.56321839080462" y="713.0" type="line"/>
      <point x="185.48275862068968" y="632.3678160919541"/>
      <point x="172.0344827586207" y="562.551724137931"/>
      <point x="153.0344827586207" y="473.0" type="curve"/>
      <point x="102.85057471264368" y="237.26436781609195" type="line"/>
      <point x="84.66666666666667" y="149.89655172413794"/>
      <point x="69.29885057471266" y="80.44827586206897"/>
    </contour>
  </outline>
</glyph>
<glyph name="S" format="2">
  <advance width="578.4942528735633"/>
  <unicode hex="0053"/>
  <anchor x="242.10344827586206" y="0.0" name="bottom"/>
  <anchor x="392.10344827586204" y="713.0" name="top"/>
  <outline>
    <contour>
      <point x="268.9195402298851" y="-9.551724137931034" type="curve" smooth="yes"/>
      <point x="416.9655172413793" y="-9.551724137931034"/>
      <point x="493.5172413793104" y="53.712643678160916"/>
      <point x="516.2528735632185" y="161.39080459770116" type="curve" smooth="yes"/>
      <point x="535.6206896551724" y="254.04597701149427"/>
      <point x="495.4367816091954" y="319.14942528735634"/>
      <point x="337.35632183908046" y="386.41379310344826" type="curve" smooth="yes"/>
      <point x="203.79310344827587" y="443.4712643678161"/>
      <point x="160.0" y="481.55172413793105"/>
      <point x="177.89655172413794" y="565.4022988505747" type="curve" smooth="yes"/>
      <point x="197.24137931034485" y="656.6781609195402"/>
      <point x="286.8045977011495" y="676.3908045977012"/>
      <point x="368.8390804597701" y="678.3908045977012" type="curve"/>
      <point x="404.65517241379314" y="678.3908045977012"/>
      <point x="477.39080459770116" y="659.0229885057471"/>
      <point x="558.9425287356322" y="613.3908045977012" type="curve"/>
      <point x="575.9885057471264" y="664.8390804597701" type="line"/>
      <point x="521.4367816091954" y="688.7356321839079"/>
      <point x="437.2068965517241" y="725.3678160919541"/>
      <point x="366.81609195402297" y="725.3678160919541" type="curve" smooth="yes"/>
      <point x="231.13793103448276" y="725.3678160919541"/>
      <point x="148.50574712643677" y="670.264367816092"/>
      <point x="127.95402298850574" y="572.3218390804598" type="curve" smooth="yes"/>
      <point x="104.77011494252872" y="464.0344827586207"/>
      <point x="162.13793103448276" y="408.7241379310345"/>
      <point x="305.1954022988506" y="348.1954022988506" type="curve" smooth="yes"/>
      <point x="421.5977011494253" y="299.2183908045977"/>
      <point x="484.2068965517241" y="255.42528735632183"/>
      <point x="466.3103448275862" y="167.94252873563218" type="curve" smooth="yes"/>
      <point x="443.33333333333337" y="58.770114942528735"/>
      <point x="353.13793103448273" y="39.241379310344826"/>
      <point x="269.7356321839081" y="37.241379310344826" type="curve"/>
      <point x="204.2873563218391" y="37.241379310344826"/>
      <point x="126.63218390804597" y="67.60919540229884"/>
      <point x="49.183908045977006" y="113.8735632183908" type="curve"/>
      <point x="31.505747126436784" y="62.97701149425287" type="line"/>
      <point x="87.50574712643679" y="36.52873563218391"/>
      <point x="171.79310344827584" y="-9.551724137931034"/>
    </contour>
  </outline>
</glyph>
<glyph name="T" format="2">
  <advance width="638.1789473684211"/>
  <unicode hex="0054"/>
  <anchor x="268.5052631578947" y="0.0" name="bottom"/>
  <anchor x="342.41052631578947" y="352.11578947368423" name="center"/>
  <anchor x="418.5052631578947" y="713.0" name="top"/>
  <outline>
    <contour>
      <point x="239.97894736842105" y="0.0" type="curve"/>
      <point x="297.69473684210527" y="0.0" type="line"/>
      <point x="310.7684210526316" y="80.41052631578947"/>
      <point x="324.17894736842106" y="148.0736842105263"/>
      <point x="343.17894736842106" y="237.2421052631579" type="curve"/>
      <point x="392.6736842105263" y="468.8" type="line"/>
      <point x="410.8421052631579" y="557.3894736842105"/>
      <point x="427.2631578947369" y="626.2210526315789"/>
      <point x="447.10526315789474" y="706.8842105263158" type="curve"/>
      <point x="447.7789473684211" y="713.0" type="line"/>
      <point x="390.06315789473683" y="713.0" type="line"/>
      <point x="388.4736842105263" y="706.8842105263158" type="line"/>
      <point x="375.4" y="626.2210526315789"/>
      <point x="361.82105263157894" y="556.4736842105264"/>
      <point x="342.7368421052631" y="468.8" type="curve"/>
      <point x="293.2421052631579" y="237.2421052631579" type="line"/>
      <point x="275.15789473684214" y="149.90526315789472"/>
      <point x="259.7368421052632" y="80.41052631578947"/>
    </contour>
    <contour>
      <point x="122.03157894736842" y="660.9894736842106" type="line"/>
      <point x="180.4421052631579" y="664.2526315789473"/>
      <point x="241.6842105263158" y="666.7578947368421"/>
      <point x="325.42105263157896" y="666.7578947368421" type="curve"/>
      <point x="391.41052631578947" y="666.7578947368421" type="line"/>
      <point x="401.52631578947364" y="713.0" type="line"/>
      <point x="132.65263157894736" y="713.0" type="line"/>
    </contour>
    <contour>
      <point x="424.3684210526316" y="666.7578947368421" type="line"/>
      <point x="490.3578947368421" y="666.7578947368421" type="line"/>
      <point x="574.0947368421052" y="666.7578947368421"/>
      <point x="635.9157894736842" y="665.1684210526316"/>
      <point x="692.7368421052632" y="660.9894736842106" type="curve"/>
      <point x="703.3578947368421" y="713.0" type="line"/>
      <point x="434.4842105263158" y="713.0" type="line"/>
    </contour>
  </outline>
</glyph>
<glyph name="V" format="2">
  <advance width="674.0631578947368"/>
  <unicode hex="0056"/>
  <anchor x="285.94736842105266" y="0.0" name="bottom"/>
  <anchor x="435.94736842105266" y="713.0" name="top"/>
  <outline>
    <contour>
      <point x="248.6421052631579" y="0.0" type="curve"/>
      <point x="328.32631578947365" y="0.0" type="line"/>
      <point x="366.89473684210526" y="72.9157894736842"/>
      <point x="417.4631578947368" y="160.66315789473686"/>
      <point x="456.9578947368421" y="226.9157894736842" type="curve"/>
      <point x="587.7684210526317" y="450.0" type="line"/>
      <point x="633.0105263157895" y="527.0842105263158"/>
      <point x="693.5052631578947" y="628.2526315789473"/>
      <point x="746.9263157894737" y="713.0" type="curve"/>
      <point x="679.2631578947369" y="713.0" type="line"/>
      <point x="617.5578947368422" y="602.0315789473684"/>
      <point x="546.6842105263158" y="476.40000000000003"/>
      <point x="483.05263157894734" y="367.2631578947368" type="curve"/>
      <point x="300.4842105263158" y="53.76842105263158" type="line"/>
      <point x="293.6421052631579" y="53.76842105263158" type="line"/>
      <point x="240.3684210526316" y="365.34736842105264" type="line"/>
      <point x="221.47368421052633" y="475.2315789473684"/>
      <point x="200.0" y="603.8631578947368"/>
      <point x="184.4421052631579" y="713.0" type="curve"/>
      <point x="123.96842105263157" y="713.0" type="line"/>
      <point x="142.55789473684212" y="627.3368421052631"/>
      <point x="161.71578947368423" y="524.3368421052633"/>
      <point x="174.8736842105263" y="449.0842105263158" type="curve"/>
      <point x="213.34736842105264" y="226.9157894736842" type="line"/>
      <point x="225.42105263157896" y="158.9157894736842"/>
      <point x="238.98947368421054" y="71.08421052631579"/>
    </contour>
  </outline>
</glyph>
<glyph name="W" format="2">
  <advance width="1005.0631578947368"/>
  <unicode hex="0057"/>
  <anchor x="449.6947368421052" y="0.0" name="bottom"/>
  <anchor x="599.6947368421053" y="713.0" name="top"/>
  <outline>
    <contour>
      <point x="188.51578947368424" y="0.0" type="curve"/>
      <point x="268.65263157894736" y="0.0" type="line"/>
      <point x="316.2842105263158" y="105.78947368421052"/>
      <point x="378.2421052631579" y="233.56842105263158"/>
      <point x="430.37894736842105" y="339.10526315789474" type="curve"/>
      <point x="581.1263157894737" y="645.5578947368421" type="line"/>
      <point x="587.9684210526316" y="645.5578947368421" type="line"/>
      <point x="612.021052631579" y="339.1052631578947" type="line"/>
      <point x="620.0105263157895" y="233.4"/>
      <point x="628.4947368421053" y="106.70526315789473"/>
      <point x="634.8947368421053" y="0.0" type="curve"/>
      <point x="716.957894736842" y="0.0" type="line"/>
      <point x="745.2842105263157" y="68.16842105263157"/>
      <point x="789.6105263157895" y="154.9157894736842"/>
      <point x="826.1894736842105" y="225.9157894736842" type="curve"/>
      <point x="940.0947368421052" y="450.0" type="line"/>
      <point x="980.5894736842105" y="529.8315789473684"/>
      <point x="1031.6736842105263" y="627.421052631579"/>
      <point x="1080.0947368421052" y="713.0" type="curve"/>
      <point x="1012.8526315789475" y="713.0" type="line"/>
      <point x="961.3894736842105" y="604.5368421052632"/>
      <point x="897.5157894736842" y="475.9157894736842"/>
      <point x="843.4631578947368" y="368.3684210526316" type="curve"/>
      <point x="687.9684210526316" y="58.473684210526315" type="line"/>
      <point x="681.1263157894737" y="58.473684210526315" type="line"/>
      <point x="657.578947368421" y="368.2" type="line"/>
      <point x="648.8421052631579" y="480.41052631578947"/>
      <point x="640.4421052631578" y="602.7052631578947"/>
      <point x="634.378947368421" y="713.0" type="curve"/>
      <point x="560.4315789473685" y="713.0" type="line"/>
      <point x="509.71578947368425" y="605.4526315789474"/>
      <point x="447.2526315789474" y="474.8315789473684"/>
      <point x="395.86315789473684" y="369.2842105263158" type="curve"/>
      <point x="243.61052631578949" y="58.473684210526315" type="line"/>
      <point x="236.76842105263157" y="58.473684210526315" type="line"/>
      <point x="210.97894736842107" y="361.7894736842105" type="line"/>
      <point x="201.49473684210528" y="472.1684210526316"/>
      <point x="191.68421052631578" y="602.7894736842105"/>
      <point x="185.78947368421052" y="713.0" type="curve"/>
      <point x="122.8" y="713.0" type="line"/>
      <point x="133.89473684210526" y="629.1684210526316"/>
      <point x="145.38947368421051" y="526.1684210526316"/>
      <point x="152.96842105263158" y="445.42105263157896" type="curve"/>
      <point x="172.70526315789473" y="225.0" type="line"/>
      <point x="179.2842105263158" y="155.9157894736842"/>
      <point x="185.5263157894737" y="71.08421052631579"/>
    </contour>
  </outline>
</glyph>
<glyph name="X" format="2">
  <advance width="667.3368421052631"/>
  <unicode hex="0058"/>
  <outline>
    <contour>
      <point x="-13.621052631578944" y="0.0" type="curve"/>
      <point x="60.95789473684211" y="0.0" type="line"/>
      <point x="117.57894736842107" y="67.81052631578947"/>
      <point x="165.63157894736838" y="124.29473684210527"/>
      <point x="218.34736842105264" y="183.93684210526317" type="curve"/>
      <point x="341.10526315789474" y="324.22105263157897" type="line"/>
      <point x="347.9473684210526" y="324.22105263157897" type="line"/>
      <point x="419.4736842105263" y="184.85263157894738" type="line"/>
      <point x="448.2842105263158" y="128.8736842105263"/>
      <point x="478.84210526315786" y="67.81052631578947"/>
      <point x="510.3052631578947" y="0.0" type="curve"/>
      <point x="577.0421052631579" y="0.0" type="line"/>
      <point x="533.2947368421053" y="74.57894736842105"/>
      <point x="497.13684210526304" y="141.74736842105264"/>
      <point x="457.48421052631574" y="219.0842105263158" type="curve"/>
      <point x="378.3473684210526" y="374.2526315789474" type="line"/>
      <point x="373.6736842105263" y="353.63157894736844" type="line"/>
      <point x="516.3157894736842" y="513.2315789473685" type="line"/>
      <point x="567.5578947368421" y="570.821052631579"/>
      <point x="630.7157894736843" y="639.6631578947369"/>
      <point x="700.3052631578947" y="713.0" type="curve"/>
      <point x="624.7263157894737" y="713.0" type="line"/>
      <point x="567.6842105263158" y="646.5999999999999"/>
      <point x="511.38947368421054" y="578.621052631579"/>
      <point x="457.58947368421053" y="518.6421052631579" type="curve"/>
      <point x="355.4842105263158" y="403.09473684210525" type="line"/>
      <point x="348.6421052631579" y="403.09473684210525" type="line"/>
      <point x="292.7684210526316" y="516.8105263157895" type="line"/>
      <point x="263.95789473684204" y="575.8736842105263"/>
      <point x="232.73684210526315" y="643.9368421052632"/>
      <point x="202.85263157894738" y="713.0" type="curve"/>
      <point x="137.04210526315788" y="713.0" type="line"/>
      <point x="180.12631578947367" y="633.1684210526315"/>
      <point x="213.86315789473684" y="565.8315789473685"/>
      <point x="246.6" y="499.4947368421053" type="curve"/>
      <point x="317.82105263157894" y="354.1578947368421" type="line"/>
      <point x="321.66315789473686" y="374.3578947368421" type="line"/>
      <point x="168.61052631578946" y="200.34736842105264" type="line"/>
      <point x="104.70526315789473" y="127.7578947368421"/>
      <point x="46.63157894736841" y="63.50526315789474"/>
    </contour>
  </outline>
</glyph>
<glyph name="Y" format="2">
  <advance width="636.0736842105263"/>
  <unicode hex="0059"/>
  <anchor x="266.70526315789476" y="0.0" name="bottom"/>
  <anchor x="416.87368421052633" y="713.0" name="top"/>
  <anchor x="117.91578947368421" y="713.0" name="topleft"/>
  <outline>
    <contour>
      <point x="305.9473684210526" y="293.4315789473684" type="line"/>
      <point x="351.52631578947364" y="293.4315789473684" type="line"/>
      <point x="566.4315789473684" y="548.3894736842105" type="line"/>
      <point x="611.2631578947368" y="601.4000000000001"/>
      <point x="659.0947368421052" y="657.1578947368421"/>
      <point x="709.357894736842" y="713.0" type="curve"/>
      <point x="636.5263157894738" y="713.0" type="line"/>
      <point x="556.7578947368421" y="612.9473684210526"/>
      <point x="513.7052631578946" y="559.8"/>
      <point x="444.83157894736837" y="476.41052631578947" type="curve"/>
      <point x="340.14736842105265" y="350.36842105263156" type="line"/>
      <point x="333.3894736842105" y="350.36842105263156" type="line"/>
      <point x="279.7684210526316" y="481.0736842105263" type="line"/>
      <point x="246.46315789473684" y="560.7157894736843"/>
      <point x="227.31578947368422" y="610.2"/>
      <point x="188.77894736842106" y="713.0" type="curve"/>
      <point x="125.54736842105264" y="713.0" type="line"/>
      <point x="156.55789473684212" y="648.0736842105263"/>
      <point x="176.6421052631579" y="602.3157894736842"/>
      <point x="199.22105263157894" y="548.3894736842105" type="curve"/>
    </contour>
    <contour>
      <point x="238.34736842105264" y="0.0" type="curve"/>
      <point x="296.2315789473684" y="0.0" type="line"/>
      <point x="309.30526315789473" y="80.41052631578947"/>
      <point x="322.7157894736842" y="148.0736842105263"/>
      <point x="341.7157894736842" y="237.2421052631579" type="curve"/>
      <point x="362.65263157894736" y="334.6736842105263" type="line"/>
      <point x="312.5473684210526" y="334.6736842105263" type="line"/>
      <point x="291.61052631578946" y="237.2421052631579" type="line"/>
      <point x="273.5263157894737" y="149.90526315789472"/>
      <point x="258.10526315789474" y="80.41052631578947"/>
    </contour>
  </outline>
</glyph>
<glyph name="Z" format="2">
  <advance width="662.7894736842105"/>
  <unicode hex="005A"/>
  <anchor x="279.76842105263154" y="0.0" name="bottom"/>
  <anchor x="354.76842105263154" y="357.0" name="center"/>
  <anchor x="429.76842105263154" y="713.0" name="top"/>
  <outline>
    <contour>
      <point x="0.8105263157894707" y="0.0" type="line"/>
      <point x="553.2315789473683" y="0.0" type="line"/>
      <point x="564.5999999999999" y="52.08421052631579" type="line"/>
      <point x="477.7052631578947" y="45.90526315789474"/>
      <point x="338.4947368421053" y="45.31578947368421"/>
      <point x="243.18947368421055" y="45.31578947368421" type="curve"/>
      <point x="44.74736842105264" y="45.31578947368421" type="line"/>
      <point x="57.252631578947366" y="15.610526315789473" type="line"/>
      <point x="445.62105263157895" y="417.30526315789473" type="line"/>
      <point x="526.8421052631578" y="501.5263157894737"/>
      <point x="608.2315789473683" y="585.6631578947369"/>
      <point x="690.2842105263157" y="667.5368421052632" type="curve"/>
      <point x="699.8947368421052" y="713.0" type="line"/>
      <point x="157.4" y="713.0" type="line"/>
      <point x="146.94736842105263" y="661.4947368421053" type="line"/>
      <point x="255.3368421052632" y="666.1789473684211"/>
      <point x="356.8105263157895" y="667.6842105263158"/>
      <point x="446.36842105263156" y="667.6842105263158" type="curve"/>
      <point x="663.4736842105264" y="667.6842105263158" type="line"/>
      <point x="640.4736842105262" y="690.0631578947368" type="line"/>
      <point x="275.91578947368424" y="311.6736842105263" type="line"/>
      <point x="195.2736842105263" y="228.03157894736842"/>
      <point x="82.55789473684212" y="111.48421052631579"/>
      <point x="9.915789473684207" y="40.27368421052632" type="curve"/>
    </contour>
  </outline>
</glyph>
<glyph name="bracketleft" format="2">
  <advance width="353.42105263157896"/>
  <unicode hex="005B"/>
  <outline>
    <contour>
      <point x="27.684210526315788" y="-113.51578947368421" type="curve"/>
      <point x="80.4421052631579" y="-113.51578947368421" type="line"/>
      <point x="81.11578947368422" y="-106.48421052631579" type="line"/>
      <point x="94.18947368421051" y="-26.073684210526316"/>
      <point x="108.51578947368421" y="43.421052631578945"/>
      <point x="126.6" y="130.7578947368421" type="curve"/>
      <point x="208.17894736842106" y="517.7368421052631" type="line"/>
      <point x="226.34736842105264" y="605.4105263157895"/>
      <point x="241.7684210526316" y="675.1578947368421"/>
      <point x="262.5263157894737" y="755.8210526315789" type="curve"/>
      <point x="264.2" y="761.9368421052632" type="line"/>
      <point x="211.44210526315788" y="761.9368421052632" type="line"/>
      <point x="197.11578947368423" y="682.1894736842105"/>
      <point x="182.78947368421055" y="610.6105263157895"/>
      <point x="164.62105263157895" y="523.8526315789474" type="curve"/>
      <point x="80.69473684210526" y="123.72631578947369" type="line"/>
      <point x="62.61052631578947" y="37.30526315789474"/>
      <point x="47.189473684210526" y="-33.10526315789474"/>
    </contour>
    <contour>
      <point x="68.41052631578948" y="-113.51578947368421" type="line"/>
      <point x="265.4" y="-113.51578947368421" type="line"/>
      <point x="274.17894736842106" y="-69.46315789473684" type="line"/>
      <point x="225.6" y="-71.22105263157894"/>
      <point x="174.02105263157895" y="-71.47368421052632"/>
      <point x="115.69473684210526" y="-71.47368421052632" type="curve"/>
      <point x="76.93684210526317" y="-71.47368421052632" type="line"/>
    </contour>
    <contour>
      <point x="242.21052631578948" y="719.8947368421053" type="line"/>
      <point x="278.5578947368421" y="719.8947368421053" type="line"/>
      <point x="347.8842105263158" y="719.8947368421053"/>
      <point x="395.37894736842105" y="719.3894736842105"/>
      <point x="439.87368421052633" y="717.8842105263159" type="curve"/>
      <point x="449.65263157894736" y="761.9368421052632" type="line"/>
      <point x="250.82105263157894" y="761.9368421052632" type="line"/>
    </contour>
  </outline>
</glyph>
<glyph name="backslash" format="2">
  <advance width="441.95789473684215"/>
  <unicode hex="005C"/>
  <outline>
    <contour>
      <point x="304.15789473684214" y="0.0" type="curve"/>
      <point x="355.99999999999994" y="0.0" type="line"/>
      <point x="337.3263157894737" y="74.0"/>
      <point x="319.41052631578947" y="137.0"/>
      <point x="297.16842105263163" y="228.0" type="curve"/>
      <point x="237.93684210526314" y="475.0842105263158" type="line"/>
      <point x="215.61052631578946" y="570.0"/>
      <point x="200.28421052631577" y="636.9157894736842"/>
      <point x="184.05263157894734" y="713.0" type="curve"/>
      <point x="132.37894736842105" y="713.0" type="line"/>
      <point x="153.96842105263158" y="636.0"/>
      <point x="170.6315789473684" y="571.9157894736842"/>
      <point x="192.9578947368421" y="474.9157894736842" type="curve"/>
      <point x="252.10526315789474" y="228.0" type="line"/>
      <point x="274.43157894736845" y="137.0"/>
      <point x="288.8421052631579" y="74.0"/>
    </contour>
  </outline>
</glyph>
<glyph name="asciicircum" format="2">
  <advance width="595.7263157894737"/>
  <unicode hex="005E"/>
  <outline>
    <contour>
      <point x="513.6210526315788" y="389.36842105263156" type="curve"/>
      <point x="560.4947368421052" y="390.4526315789474" type="line"/>
      <point x="510.5894736842106" y="488.22105263157897"/>
      <point x="464.51578947368426" y="586.7368421052631"/>
      <point x="421.70526315789476" y="684.5052631578948" type="curve"/>
      <point x="349.2421052631579" y="684.5052631578948" type="line"/>
      <point x="269.6842105263158" y="588.8210526315789"/>
      <point x="187.4421052631579" y="493.63157894736844"/>
      <point x="96.21052631578947" y="392.4526315789474" type="curve"/>
      <point x="150.43157894736842" y="392.4526315789474" type="line"/>
      <point x="228.4842105263158" y="475.7578947368421"/>
      <point x="304.0315789473685" y="559.8105263157895"/>
      <point x="378.66315789473686" y="643.1157894736842" type="curve"/>
      <point x="385.42105263157896" y="643.1157894736842" type="line"/>
      <point x="427.65263157894736" y="558.8105263157895"/>
      <point x="468.8842105263158" y="473.6736842105263"/>
    </contour>
  </outline>
</glyph>
<glyph name="underscore" format="2">
  <advance width="386.7368421052632"/>
  <unicode hex="005F"/>
  <outline>
    <contour>
      <point x="-83.3578947368421" y="-100.61052631578947" type="line"/>
      <point x="-23.010526315789473" y="-98.52631578947368"/>
      <point x="33.842105263157904" y="-98.27368421052631"/>
      <point x="81.7684210526316" y="-98.10526315789474" type="curve"/>
      <point x="160.42105263157896" y="-98.10526315789474" type="line"/>
      <point x="208.17894736842103" y="-98.27368421052631"/>
      <point x="264.86315789473684" y="-98.52631578947368"/>
      <point x="323.37894736842105" y="-100.61052631578947" type="curve"/>
      <point x="333.24210526315795" y="-54.96842105263158" type="line"/>
      <point x="272.8105263157895" y="-57.05263157894737"/>
      <point x="215.9578947368421" y="-57.305263157894736"/>
      <point x="168.11578947368423" y="-57.473684210526315" type="curve"/>
      <point x="89.46315789473685" y="-57.473684210526315" type="line"/>
      <point x="41.62105263157895" y="-57.305263157894736"/>
      <point x="-15.063157894736841" y="-57.05263157894737"/>
      <point x="-73.49473684210527" y="-54.96842105263158" type="curve"/>
    </contour>
  </outline>
</glyph>
<glyph name="a" format="2">
  <advance width="519.1264367816092"/>
  <unicode hex="0061"/>
  <anchor x="210.00000000000003" y="0.0" name="bottom"/>
  <anchor x="380.17241379310343" y="0.0" name="ogonek"/>
  <anchor x="316.00000000000006" y="494.735632183908" name="top"/>
  <outline>
    <contour>
      <point x="176.85057471264366" y="-9.367816091954023" type="curve" smooth="yes"/>
      <point x="238.66666666666666" y="-9.367816091954023"/>
      <point x="306.64367816091954" y="26.367816091954023"/>
      <point x="350.17241379310343" y="78.0574712643678" type="curve"/>
      <point x="356.9080459770115" y="78.0574712643678" type="line"/>
      <point x="362.17241379310343" y="0.0" type="line"/>
      <point x="410.3563218390805" y="0.0" type="line"/>
      <point x="403.8045977011494" y="54.28735632183908"/>
      <point x="400.90804597701145" y="99.9425287356322"/>
      <point x="409.2758620689655" y="141.22988505747125" type="curve"/>
      <point x="424.35632183908046" y="211.0" type="line" smooth="yes"/>
      <point x="434.17241379310343" y="255.08045977011494"/>
      <point x="442.3563218390805" y="288.89655172413796"/>
      <point x="448.5402298850575" y="317.632183908046" type="curve" smooth="yes"/>
      <point x="472.09195402298855" y="428.10344827586204"/>
      <point x="421.59770114942523" y="505.1034482758621"/>
      <point x="300.63218390804593" y="505.1034482758621" type="curve" smooth="yes"/>
      <point x="252.34482758620686" y="505.1034482758621"/>
      <point x="179.32183908045977" y="483.83908045977006"/>
      <point x="131.77011494252875" y="471.39080459770116" type="curve"/>
      <point x="124.19540229885058" y="418.78160919540227" type="line"/>
      <point x="201.7241379310345" y="446.22988505747134"/>
      <point x="265.8505747126437" y="460.9655172413793"/>
      <point x="293.11494252873564" y="460.9655172413793" type="curve" smooth="yes"/>
      <point x="381.17241379310343" y="460.9655172413793"/>
      <point x="426.51724137931035" y="417.98850574712645"/>
      <point x="401.2758620689655" y="313.6551724137931" type="curve"/>
      <point x="223.2183908045977" y="279.3103448275862" type="line" smooth="yes"/>
      <point x="140.8505747126437" y="263.67816091954023"/>
      <point x="60.13793103448276" y="243.20689655172416"/>
      <point x="39.321839080459775" y="150.20689655172413" type="curve" smooth="yes"/>
      <point x="18.505747126436784" y="58.39080459770115"/>
      <point x="78.0344827586207" y="-9.367816091954023"/>
    </contour>
    <contour>
      <point x="186.31034482758622" y="33.03448275862069" type="curve" smooth="yes"/>
      <point x="115.11494252873564" y="33.03448275862069"/>
      <point x="70.52873563218391" y="70.27586206896552"/>
      <point x="86.6896551724138" y="148.367816091954" type="curve" smooth="yes"/>
      <point x="99.58620689655172" y="210.58620689655172"/>
      <point x="161.33333333333331" y="226.21839080459768"/>
      <point x="232.36781609195404" y="240.29885057471265" type="curve" smooth="yes"/>
      <point x="344.2758620689655" y="262.8275862068965"/>
      <point x="373.4367816091954" y="272.45977011494256"/>
      <point x="393.51724137931035" y="280.82758620689657" type="curve"/>
      <point x="364.9080459770115" y="147.12643678160916" type="line"/>
      <point x="303.85057471264366" y="61.11494252873563"/>
      <point x="234.16091954022988" y="33.03448275862069"/>
    </contour>
  </outline>
</glyph>
<glyph name="b" format="2">
  <advance width="590.6736842105264"/>
  <unicode hex="0062"/>
  <outline>
    <contour>
      <point x="286.1473684210526" y="-9.589473684210526" type="curve" smooth="yes"/>
      <point x="407.6421052631579" y="-9.589473684210526"/>
      <point x="496.4631578947368" y="77.26315789473684"/>
      <point x="526.4631578947368" y="221.01052631578946" type="curve" smooth="yes"/>
      <point x="557.5473684210526" y="371.17894736842106"/>
      <point x="497.2315789473684" y="505.17894736842106"/>
      <point x="346.1684210526316" y="505.17894736842106" type="curve" smooth="yes"/>
      <point x="292.6842105263158" y="505.17894736842106"/>
      <point x="226.87368421052633" y="467.86315789473684"/>
      <point x="190.9578947368421" y="434.93684210526317" type="curve"/>
      <point x="184.1157894736842" y="434.93684210526317" type="line"/>
      <point x="196.69473684210527" y="493.9157894736842" type="line"/>
      <point x="214.86315789473684" y="579.8421052631579"/>
      <point x="232.8736842105263" y="659.4315789473684"/>
      <point x="255.46315789473684" y="741.0105263157895" type="curve"/>
      <point x="193.0" y="729.2526315789473" type="line"/>
      <point x="182.7684210526316" y="656.3263157894737"/>
      <point x="168.35789473684213" y="578.4105263157895"/>
      <point x="150.5263157894737" y="493.9157894736842" type="curve"/>
      <point x="92.4421052631579" y="220.32631578947368" type="line"/>
      <point x="75.35789473684211" y="139.07368421052632"/>
      <point x="60.021052631578954" y="74.49473684210527"/>
      <point x="41.34736842105263" y="0.0" type="curve"/>
      <point x="83.90526315789472" y="0.0" type="line"/>
      <point x="107.33684210526314" y="79.89473684210527" type="line"/>
      <point x="113.92631578947368" y="79.89473684210527" type="line"/>
      <point x="155.9157894736842" y="28.147368421052633"/>
      <point x="226.98947368421054" y="-9.589473684210526"/>
    </contour>
    <contour>
      <point x="280.33684210526314" y="35.54736842105263" type="curve"/>
      <point x="221.37894736842105" y="35.71578947368421"/>
      <point x="159.8421052631579" y="71.02105263157895"/>
      <point x="119.95789473684209" y="132.30526315789473" type="curve"/>
      <point x="171.43157894736842" y="374.6" type="line"/>
      <point x="221.7263157894737" y="425.4842105263158"/>
      <point x="287.17894736842106" y="459.2947368421053"/>
      <point x="335.2315789473684" y="460.2947368421053" type="curve"/>
      <point x="461.4736842105263" y="457.2947368421053"/>
      <point x="505.52631578947364" y="353.85263157894735"/>
      <point x="479.2105263157894" y="226.02105263157895" type="curve" smooth="yes"/>
      <point x="456.4736842105263" y="117.08421052631579"/>
      <point x="394.0105263157895" y="38.63157894736842"/>
    </contour>
  </outline>
</glyph>
<glyph name="f" format="2">
  <advance width="386.5368421052632"/>
  <unicode hex="0066"/>
  <outline>
    <contour>
      <point x="71.44210526315788" y="0.0" type="curve"/>
      <point x="125.22105263157893" y="0.0" type="line"/>
      <point x="139.21052631578948" y="74.49473684210527"/>
      <point x="151.62105263157895" y="139.07368421052632"/>
      <point x="168.70526315789473" y="220.32631578947368" type="curve"/>
      <point x="223.62105263157895" y="479.1578947368421" type="line"/>
      <point x="227.54736842105262" y="494.6736842105263" type="line"/>
      <point x="228.94736842105263" y="507.0"/>
      <point x="235.17894736842103" y="546.6421052631579"/>
      <point x="240.92631578947368" y="572.6315789473684" type="curve" smooth="yes"/>
      <point x="258.7473684210526" y="656.157894736842"/>
      <point x="296.48421052631574" y="700.0421052631579"/>
      <point x="383.58947368421053" y="700.0421052631579" type="curve" smooth="yes"/>
      <point x="411.32631578947365" y="700.0421052631579"/>
      <point x="443.1684210526316" y="691.0421052631579"/>
      <point x="467.0947368421053" y="681.7894736842105" type="curve"/>
      <point x="480.7157894736842" y="727.421052631579" type="line"/>
      <point x="453.7789473684211" y="736.3368421052631"/>
      <point x="411.0842105263158" y="744.421052631579"/>
      <point x="382.7473684210526" y="744.421052631579" type="curve" smooth="yes"/>
      <point x="291.4" y="744.421052631579"/>
      <point x="222.94736842105263" y="701.5052631578948"/>
      <point x="197.18947368421053" y="578.7263157894737" type="curve" smooth="yes"/>
      <point x="169.53684210526316" y="447.04210526315785"/>
      <point x="152.2" y="364.6421052631579"/>
      <point x="132.62105263157895" y="270.3263157894737" type="curve"/>
      <point x="122.53684210526315" y="220.32631578947368" type="line"/>
      <point x="105.45263157894736" y="139.07368421052632"/>
      <point x="90.1157894736842" y="74.49473684210527"/>
    </contour>
    <contour>
      <point x="70.04210526315791" y="451.0421052631579" type="line"/>
      <point x="185.06315789473683" y="457.4736842105263" type="line"/>
      <point x="200.97894736842105" y="457.4736842105263" type="line"/>
      <point x="267.71578947368425" y="457.30526315789473"/>
      <point x="333.9473684210526" y="455.8"/>
      <point x="401.85263157894735" y="451.0421052631579" type="curve"/>
      <point x="411.46315789473687" y="494.6736842105263" type="line"/>
      <point x="79.65263157894736" y="494.6736842105263" type="line"/>
    </contour>
  </outline>
</glyph>
<glyph name="h" format="2">
  <advance width="570.5263157894738"/>
  <unicode hex="0068"/>
  <guideline x="51.263157894736835" y="716.4421052631578" angle="4.470799999999997"/>
  <anchor x="242.47368421052633" y="0.0" name="bottom"/>
  <anchor x="321.23157894736846" y="409.0" name="center"/>
  <anchor x="372.16842105263163" y="723.8421052631579" name="top"/>
  <outline>
    <contour>
      <point x="41.34736842105263" y="0.0" type="curve"/>
      <point x="95.12631578947368" y="0.0" type="line"/>
      <point x="109.11578947368422" y="74.49473684210527"/>
      <point x="121.52631578947368" y="139.07368421052632"/>
      <point x="138.3578947368421" y="219.23157894736843" type="curve"/>
      <point x="165.6" y="345.03157894736836" type="line"/>
      <point x="221.06315789473683" y="404.15789473684214"/>
      <point x="297.9263157894737" y="459.0315789473684"/>
      <point x="357.29473684210524" y="459.0315789473684" type="curve" smooth="yes"/>
      <point x="448.1473684210526" y="459.0315789473684"/>
      <point x="472.2947368421053" y="405.30526315789473"/>
      <point x="451.13684210526316" y="306.68421052631584" type="curve"/>
      <point x="433.14736842105265" y="219.23157894736843" type="line"/>
      <point x="416.31578947368416" y="139.0736842105263"/>
      <point x="401.0631578947369" y="74.49473684210527"/>
      <point x="382.5578947368421" y="0.0" type="curve"/>
      <point x="436.1684210526316" y="0.0" type="line"/>
      <point x="449.90526315789475" y="74.49473684210527"/>
      <point x="462.48421052631574" y="139.0736842105263"/>
      <point x="479.56842105263155" y="220.32631578947368" type="curve"/>
      <point x="487.56842105263155" y="258.4105263157895"/>
      <point x="494.3263157894737" y="285.09473684210525"/>
      <point x="500.3263157894737" y="312.2631578947368" type="curve" smooth="yes"/>
      <point x="527.0736842105263" y="433.58947368421053"/>
      <point x="480.9894736842105" y="505.17894736842106"/>
      <point x="370.4947368421052" y="505.17894736842106" type="curve" smooth="yes"/>
      <point x="304.5157894736842" y="505.17894736842106"/>
      <point x="226.95789473684212" y="448.8736842105263"/>
      <point x="184.46315789473684" y="410.3684210526316" type="curve"/>
      <point x="178.45263157894738" y="410.3684210526316" type="line"/>
      <point x="196.69473684210527" y="493.9157894736842" type="line"/>
      <point x="214.86315789473684" y="579.8421052631579"/>
      <point x="232.8736842105263" y="659.4315789473685"/>
      <point x="255.46315789473684" y="741.0105263157895" type="curve"/>
      <point x="193.0" y="729.2526315789473" type="line"/>
      <point x="182.7684210526316" y="656.3263157894737"/>
      <point x="168.35789473684213" y="578.4105263157895"/>
      <point x="150.5263157894737" y="493.9157894736842" type="curve"/>
      <point x="92.4421052631579" y="220.32631578947368" type="line"/>
      <point x="75.35789473684211" y="139.07368421052632"/>
      <point x="60.021052631578954" y="74.49473684210527"/>
    </contour>
  </outline>
</glyph>
<glyph name="l" format="2">
  <advance width="243.38947368421051"/>
  <unicode hex="006C"/>
  <anchor x="68.69473684210526" y="0.0" name="bottom"/>
  <anchor x="156.1157894736842" y="409.0" name="center"/>
  <anchor x="222.02105263157895" y="723.8421052631579" name="top"/>
  <anchor x="252.98947368421054" y="494.6736842105263" name="topright"/>
  <outline>
    <contour>
      <point x="41.34736842105263" y="0.0" type="curve"/>
      <point x="95.12631578947368" y="0.0" type="line"/>
      <point x="109.11578947368422" y="74.49473684210527"/>
      <point x="121.52631578947368" y="139.07368421052632"/>
      <point x="138.61052631578949" y="220.32631578947368" type="curve"/>
      <point x="196.69473684210527" y="493.9157894736842" type="line"/>
      <point x="214.86315789473684" y="579.8421052631579"/>
      <point x="232.8736842105263" y="659.4315789473684"/>
      <point x="255.46315789473684" y="741.0105263157895" type="curve"/>
      <point x="193.0" y="729.2526315789473" type="line"/>
      <point x="182.7684210526316" y="656.3263157894737"/>
      <point x="168.35789473684213" y="578.4105263157895"/>
      <point x="150.5263157894737" y="493.9157894736842" type="curve"/>
      <point x="92.4421052631579" y="220.32631578947368" type="line"/>
      <point x="75.35789473684211" y="139.07368421052632"/>
      <point x="60.021052631578954" y="74.49473684210527"/>
    </contour>
  </outline>
</glyph>
<glyph name="m" format="2">
  <advance width="878.1789473684211"/>
  <unicode hex="006D"/>
  <anchor x="398.6631578947368" y="0.0" name="bottom"/>
  <anchor x="502.8315789473684" y="494.6736842105263" name="top"/>
  <outline>
    <contour>
      <point x="47.17894736842105" y="0.0" type="curve"/>
      <point x="100.95789473684209" y="0.0" type="line"/>
      <point x="114.94736842105263" y="74.49473684210527"/>
      <point x="127.35789473684211" y="139.07368421052632"/>
      <point x="144.1894736842105" y="219.23157894736843" type="curve"/>
      <point x="171.4315789473684" y="345.03157894736836" type="line"/>
      <point x="226.89473684210526" y="404.1578947368421"/>
      <point x="299.9263157894737" y="459.0315789473684"/>
      <point x="357.46315789473687" y="459.0315789473684" type="curve" smooth="yes"/>
      <point x="437.1578947368421" y="459.0315789473684"/>
      <point x="461.3052631578948" y="405.30526315789473"/>
      <point x="440.14736842105265" y="306.68421052631584" type="curve"/>
      <point x="422.15789473684214" y="219.23157894736843" type="line"/>
      <point x="405.32631578947365" y="139.0736842105263"/>
      <point x="390.0736842105264" y="74.49473684210527"/>
      <point x="371.5684210526316" y="0.0" type="curve"/>
      <point x="425.17894736842106" y="0.0" type="line"/>
      <point x="438.9157894736842" y="74.49473684210527"/>
      <point x="451.4947368421052" y="139.0736842105263"/>
      <point x="468.57894736842104" y="220.32631578947368" type="curve"/>
      <point x="476.57894736842104" y="258.4105263157895"/>
      <point x="483.33684210526314" y="285.09473684210525"/>
      <point x="489.33684210526314" y="312.2631578947368" type="curve" smooth="yes"/>
      <point x="494.5052631578947" y="336.93684210526317"/>
      <point x="497.33684210526314" y="358.61052631578946"/>
      <point x="497.0" y="379.0315789473684" type="curve"/>
      <point x="495.3263157894737" y="382.69473684210527" type="line"/>
      <point x="492.9894736842105" y="460.51578947368426"/>
      <point x="449.1578947368421" y="505.17894736842106"/>
      <point x="369.74736842105267" y="505.17894736842106" type="curve" smooth="yes"/>
      <point x="305.8421052631579" y="505.17894736842106"/>
      <point x="230.02105263157895" y="448.36842105263156"/>
      <point x="187.68421052631578" y="408.10526315789474" type="curve"/>
      <point x="181.67368421052632" y="408.10526315789474" type="line"/>
      <point x="192.1684210526316" y="498.2631578947368" type="line"/>
      <point x="145.42105263157896" y="494.6736842105263" type="line"/>
      <point x="137.85263157894738" y="419.9157894736842"/>
      <point x="124.3578947368421" y="342.0"/>
      <point x="109.27368421052633" y="270.3263157894737" type="curve"/>
      <point x="98.27368421052633" y="220.32631578947368" type="line"/>
      <point x="81.18947368421054" y="139.07368421052632"/>
      <point x="65.85263157894737" y="74.49473684210527"/>
    </contour>
    <contour>
      <point x="690.2105263157895" y="0.0" type="curve"/>
      <point x="743.821052631579" y="0.0" type="line"/>
      <point x="757.5578947368421" y="74.49473684210527"/>
      <point x="770.1368421052632" y="139.0736842105263"/>
      <point x="787.221052631579" y="220.32631578947368" type="curve"/>
      <point x="795.221052631579" y="258.4105263157895"/>
      <point x="801.9789473684211" y="285.09473684210525"/>
      <point x="807.9789473684211" y="312.2631578947368" type="curve" smooth="yes"/>
      <point x="834.7263157894737" y="433.5894736842106"/>
      <point x="788.6421052631579" y="505.17894736842106"/>
      <point x="688.3894736842105" y="505.17894736842106" type="curve" smooth="yes"/>
      <point x="624.4842105263158" y="505.17894736842106"/>
      <point x="544.1684210526316" y="445.62105263157895"/>
      <point x="499.99999999999994" y="403.5263157894737" type="curve"/>
      <point x="492.0736842105264" y="403.5263157894737" type="line"/>
      <point x="490.0736842105263" y="345.03157894736836" type="line"/>
      <point x="545.5368421052632" y="404.15789473684214"/>
      <point x="618.5684210526316" y="459.0315789473684"/>
      <point x="676.1052631578947" y="459.0315789473684" type="curve" smooth="yes"/>
      <point x="755.8000000000001" y="459.0315789473684"/>
      <point x="779.9473684210526" y="405.30526315789473"/>
      <point x="758.7894736842105" y="306.68421052631584" type="curve"/>
      <point x="740.8" y="219.23157894736843" type="line"/>
      <point x="723.9684210526316" y="139.0736842105263"/>
      <point x="708.7157894736841" y="74.49473684210527"/>
    </contour>
  </outline>
</glyph>
<glyph name="n" format="2">
  <advance width="576.3578947368421"/>
  <unicode hex="006E"/>
  <anchor x="242.33684210526317" y="0.0" name="bottom"/>
  <anchor x="346.5052631578948" y="494.6736842105263" name="top"/>
  <outline>
    <contour>
      <point x="47.17894736842105" y="0.0" type="curve"/>
      <point x="100.95789473684209" y="0.0" type="line"/>
      <point x="114.94736842105263" y="74.49473684210527"/>
      <point x="127.35789473684211" y="139.07368421052632"/>
      <point x="144.1894736842105" y="219.23157894736843" type="curve"/>
      <point x="171.4315789473684" y="345.03157894736836" type="line"/>
      <point x="226.89473684210526" y="404.15789473684214"/>
      <point x="303.7578947368421" y="459.0315789473684"/>
      <point x="363.12631578947367" y="459.0315789473684" type="curve" smooth="yes"/>
      <point x="453.978947368421" y="459.0315789473684"/>
      <point x="478.1263157894737" y="405.30526315789473"/>
      <point x="456.9684210526316" y="306.68421052631584" type="curve"/>
      <point x="438.9789473684211" y="219.23157894736843" type="line"/>
      <point x="422.1473684210526" y="139.0736842105263"/>
      <point x="406.8947368421053" y="74.49473684210527"/>
      <point x="388.38947368421054" y="0.0" type="curve"/>
      <point x="442.0" y="0.0" type="line"/>
      <point x="455.7368421052631" y="74.49473684210527"/>
      <point x="468.31578947368416" y="139.0736842105263"/>
      <point x="485.4" y="220.32631578947368" type="curve"/>
      <point x="493.4" y="258.4105263157895"/>
      <point x="500.1578947368421" y="285.09473684210525"/>
      <point x="506.1578947368421" y="312.2631578947368" type="curve" smooth="yes"/>
      <point x="532.9052631578946" y="433.58947368421053"/>
      <point x="486.82105263157894" y="505.17894736842106"/>
      <point x="376.32631578947365" y="505.17894736842106" type="curve" smooth="yes"/>
      <point x="309.5052631578947" y="505.17894736842106"/>
      <point x="230.10526315789477" y="448.36842105263156"/>
      <point x="187.68421052631578" y="408.10526315789474" type="curve"/>
      <point x="181.67368421052632" y="408.10526315789474" type="line"/>
      <point x="192.1684210526316" y="498.2631578947368" type="line"/>
      <point x="145.42105263157896" y="494.6736842105263" type="line"/>
      <point x="137.85263157894738" y="419.9157894736842"/>
      <point x="124.3578947368421" y="342.0"/>
      <point x="109.27368421052633" y="270.3263157894737" type="curve"/>
      <point x="98.27368421052633" y="220.32631578947368" type="line"/>
      <point x="81.18947368421054" y="139.07368421052632"/>
      <point x="65.85263157894737" y="74.49473684210527"/>
    </contour>
  </outline>
</glyph>
<glyph name="o" format="2">
  <advance width="597.0842105263158"/>
  <unicode hex="006F"/>
  <anchor x="246.00000000000003" y="0.0" name="bottom"/>
  <anchor x="298.0842105263158" y="247.33684210526314" name="center"/>
  <anchor x="339.62105263157895" y="0.0" name="ogonek"/>
  <anchor x="350.16842105263163" y="494.6736842105263" name="top"/>
  <anchor x="588.4" y="494.6736842105263" name="topright"/>
  <outline>
    <contour>
      <point x="272.58947368421053" y="-9.589473684210526" type="curve" smooth="yes"/>
      <point x="404.4526315789474" y="-9.589473684210526"/>
      <point x="506.36842105263156" y="84.98947368421052"/>
      <point x="535.6210526315789" y="222.16842105263157" type="curve" smooth="yes"/>
      <point x="567.6210526315789" y="371.2526315789474"/>
      <point x="488.77894736842103" y="505.17894736842106"/>
      <point x="325.41052631578947" y="505.17894736842106" type="curve" smooth="yes"/>
      <point x="204.45263157894738" y="505.17894736842106"/>
      <point x="92.54736842105264" y="420.7578947368421"/>
      <point x="62.37894736842105" y="273.5052631578947" type="curve" smooth="yes"/>
      <point x="32.294736842105266" y="128.0842105263158"/>
      <point x="104.96842105263157" y="-9.589473684210526"/>
    </contour>
    <contour>
      <point x="274.92631578947373" y="34.62105263157895" type="curve"/>
      <point x="133.94736842105263" y="37.78947368421052"/>
      <point x="83.97894736842105" y="143.97894736842105"/>
      <point x="109.54736842105264" y="266.3263157894737" type="curve" smooth="yes"/>
      <point x="132.36842105263156" y="377.59999999999997"/>
      <point x="208.65263157894734" y="457.8"/>
      <point x="325.1578947368421" y="460.9684210526316" type="curve"/>
      <point x="456.4" y="457.63157894736844"/>
      <point x="515.7684210526315" y="357.6842105263158"/>
      <point x="488.4526315789474" y="229.26315789473685" type="curve" smooth="yes"/>
      <point x="465.7157894736842" y="121.07368421052631"/>
      <point x="392.2631578947368" y="37.78947368421052"/>
    </contour>
  </outline>
</glyph>
<glyph name="p" format="2">
  <advance width="596.5052631578948"/>
  <unicode hex="0070"/>
  <outline>
    <contour>
      <point x="5.263157894736845" y="-194.33684210526314" type="curve"/>
      <point x="60.46315789473684" y="-192.0" type="line"/>
      <point x="73.2" y="-117.50526315789473"/>
      <point x="85.52631578947368" y="-52.92631578947368"/>
      <point x="103.27368421052631" y="27.231578947368423" type="curve"/>
      <point x="114.93684210526315" y="78.88421052631578" type="line"/>
      <point x="121.4421052631579" y="78.88421052631578" type="line"/>
      <point x="163.09473684210528" y="27.810526315789474"/>
      <point x="233.4105263157895" y="-9.589473684210526"/>
      <point x="291.978947368421" y="-9.589473684210526" type="curve" smooth="yes"/>
      <point x="413.4736842105263" y="-9.589473684210526"/>
      <point x="502.29473684210524" y="77.26315789473684"/>
      <point x="532.2947368421052" y="221.01052631578946" type="curve" smooth="yes"/>
      <point x="563.378947368421" y="371.17894736842106"/>
      <point x="503.06315789473683" y="505.17894736842106"/>
      <point x="352.0" y="505.17894736842106" type="curve" smooth="yes"/>
      <point x="296.9263157894736" y="505.17894736842106"/>
      <point x="229.52631578947367" y="466.52631578947364"/>
      <point x="192.10526315789474" y="431.7578947368421" type="curve"/>
      <point x="185.17894736842106" y="431.7578947368421" type="line"/>
      <point x="192.92631578947368" y="498.2631578947368" type="line"/>
      <point x="145.42105263157896" y="494.6736842105263" type="line"/>
      <point x="137.85263157894738" y="419.9157894736842"/>
      <point x="124.3578947368421" y="342.0"/>
      <point x="109.27368421052633" y="270.3263157894737" type="curve"/>
      <point x="57.357894736842105" y="28.326315789473686" type="line"/>
      <point x="40.27368421052632" y="-52.92631578947368"/>
      <point x="23.93684210526316" y="-119.84210526315789"/>
    </contour>
    <contour>
      <point x="286.1684210526316" y="35.54736842105263" type="curve"/>
      <point x="227.21052631578948" y="35.71578947368421"/>
      <point x="165.67368421052632" y="71.02105263157895"/>
      <point x="125.78947368421052" y="132.30526315789473" type="curve"/>
      <point x="177.26315789473682" y="374.6" type="line"/>
      <point x="227.55789473684212" y="425.4842105263158"/>
      <point x="293.0105263157895" y="459.2947368421053"/>
      <point x="341.06315789473683" y="460.2947368421053" type="curve"/>
      <point x="467.30526315789473" y="457.2947368421053"/>
      <point x="511.3578947368421" y="353.85263157894735"/>
      <point x="485.04210526315785" y="226.02105263157895" type="curve" smooth="yes"/>
      <point x="462.30526315789473" y="117.08421052631579"/>
      <point x="399.8421052631579" y="38.63157894736842"/>
    </contour>
  </outline>
</glyph>
<glyph name="q" format="2">
  <advance width="585.4210526315788"/>
  <unicode hex="0071"/>
  <outline>
    <contour>
      <point x="347.5473684210526" y="-194.33684210526314" type="curve"/>
      <point x="402.32631578947365" y="-192.0" type="line"/>
      <point x="416.31578947368416" y="-117.50526315789473"/>
      <point x="428.72631578947363" y="-52.92631578947368"/>
      <point x="445.81052631578945" y="28.326315789473686" type="curve"/>
      <point x="496.89473684210526" y="270.3263157894737" type="line"/>
      <point x="512.0631578947368" y="343.16842105263163"/>
      <point x="531.5684210526316" y="422.33684210526314"/>
      <point x="555.6631578947369" y="498.2631578947368" type="curve"/>
      <point x="508.7473684210526" y="494.6736842105263" type="line"/>
      <point x="487.74736842105267" y="425.34736842105264" type="line"/>
      <point x="480.9052631578948" y="425.34736842105264" type="line"/>
      <point x="442.66315789473686" y="467.3578947368421"/>
      <point x="371.8421052631579" y="505.17894736842106"/>
      <point x="304.6105263157895" y="505.17894736842106" type="curve" smooth="yes"/>
      <point x="183.1157894736842" y="505.17894736842106"/>
      <point x="94.29473684210527" y="418.32631578947365"/>
      <point x="64.29473684210527" y="274.57894736842104" type="curve" smooth="yes"/>
      <point x="33.21052631578948" y="124.41052631578947"/>
      <point x="93.52631578947368" y="-9.589473684210526"/>
      <point x="244.5894736842105" y="-9.589473684210526" type="curve" smooth="yes"/>
      <point x="295.41052631578947" y="-9.589473684210526"/>
      <point x="360.13684210526316" y="22.14736842105263"/>
      <point x="402.5473684210526" y="71.5578947368421" type="curve"/>
      <point x="409.22105263157897" y="71.5578947368421" type="line"/>
      <point x="399.3894736842105" y="27.231578947368423" type="line"/>
      <point x="382.55789473684206" y="-52.92631578947368"/>
      <point x="366.2210526315789" y="-119.84210526315789"/>
    </contour>
    <contour>
      <point x="255.5263157894737" y="35.294736842105266" type="curve"/>
      <point x="129.2842105263158" y="37.37894736842105"/>
      <point x="84.31578947368422" y="142.65263157894736"/>
      <point x="111.54736842105264" y="269.5684210526316" type="curve" smooth="yes"/>
      <point x="135.20000000000002" y="380.33684210526314"/>
      <point x="196.74736842105264" y="456.9578947368421"/>
      <point x="310.42105263157896" y="460.0421052631579" type="curve"/>
      <point x="372.12631578947367" y="458.9578947368421"/>
      <point x="432.7473684210526" y="427.3157894736842"/>
      <point x="474.46315789473687" y="380.6842105263158" type="curve"/>
      <point x="423.90526315789475" y="144.79999999999998" type="line"/>
      <point x="379.10526315789474" y="77.43157894736841"/>
      <point x="315.4842105263158" y="37.21052631578947"/>
    </contour>
  </outline>
</glyph>
<glyph name="r" format="2">
  <advance width="397.7052631578947"/>
  <unicode hex="0072"/>
  <anchor x="70.10526315789474" y="0.0" name="bottom"/>
  <anchor x="284.5052631578948" y="494.6736842105263" name="top"/>
  <outline>
    <contour>
      <point x="47.17894736842105" y="0.0" type="curve"/>
      <point x="100.95789473684209" y="0.0" type="line"/>
      <point x="114.94736842105263" y="74.49473684210527"/>
      <point x="127.35789473684211" y="139.07368421052632"/>
      <point x="144.1894736842105" y="219.23157894736843" type="curve"/>
      <point x="163.68421052631578" y="309.62105263157895" type="line"/>
      <point x="240.29473684210527" y="432.10526315789474"/>
      <point x="305.021052631579" y="457.09473684210525"/>
      <point x="344.8315789473684" y="457.09473684210525" type="curve" smooth="yes"/>
      <point x="362.7473684210526" y="457.09473684210525"/>
      <point x="380.9157894736842" y="453.8421052631579"/>
      <point x="406.6736842105263" y="443.75789473684216" type="curve"/>
      <point x="421.55789473684206" y="494.2631578947369" type="line"/>
      <point x="403.6421052631579" y="500.17894736842106"/>
      <point x="377.4736842105263" y="505.17894736842106"/>
      <point x="353.65263157894736" y="505.17894736842106" type="curve" smooth="yes"/>
      <point x="310.65263157894736" y="505.17894736842106"/>
      <point x="247.84210526315792" y="484.3473684210526"/>
      <point x="183.10526315789474" y="394.36842105263156" type="curve"/>
      <point x="177.09473684210528" y="394.36842105263156" type="line"/>
      <point x="192.1684210526316" y="498.2631578947368" type="line"/>
      <point x="145.42105263157896" y="494.6736842105263" type="line"/>
      <point x="137.85263157894738" y="419.9157894736842"/>
      <point x="124.3578947368421" y="342.0"/>
      <point x="109.27368421052633" y="270.3263157894737" type="curve"/>
      <point x="98.27368421052633" y="220.32631578947368" type="line"/>
      <point x="81.18947368421054" y="139.07368421052632"/>
      <point x="65.85263157894737" y="74.49473684210527"/>
    </contour>
  </outline>
</glyph>
<glyph name="u" format="2">
  <advance width="552.8736842105263"/>
  <unicode hex="0075"/>
  <anchor x="224.68421052631575" y="0.0" name="bottom"/>
  <anchor x="416.75789473684205" y="0.0" name="ogonek"/>
  <anchor x="328.7684210526316" y="494.6736842105263" name="top"/>
  <anchor x="574.8842105263158" y="494.6736842105263" name="topright"/>
  <outline>
    <contour>
      <point x="200.52631578947367" y="-9.589473684210526" type="curve" smooth="yes"/>
      <point x="261.8526315789473" y="-9.589473684210526"/>
      <point x="341.2526315789474" y="47.22105263157895"/>
      <point x="383.67368421052635" y="87.48421052631579" type="curve"/>
      <point x="389.6842105263158" y="87.48421052631579" type="line"/>
      <point x="372.77894736842103" y="0.0" type="line"/>
      <point x="417.26315789473676" y="0.0" type="line"/>
      <point x="431.25263157894733" y="74.49473684210527"/>
      <point x="443.57894736842104" y="139.07368421052632"/>
      <point x="460.66315789473686" y="220.32631578947368" type="curve"/>
      <point x="471.8315789473684" y="271.1684210526316" type="line"/>
      <point x="489.1684210526316" y="353.7684210526316"/>
      <point x="504.5052631578948" y="420.17894736842106"/>
      <point x="524.0105263157894" y="494.6736842105263" type="curve"/>
      <point x="469.5684210526316" y="494.6736842105263" type="line"/>
      <point x="457.41052631578947" y="420.17894736842106"/>
      <point x="443.9157894736842" y="353.7684210526316"/>
      <point x="426.1684210526316" y="273.61052631578946" type="curve"/>
      <point x="399.7578947368421" y="150.13684210526313" type="line"/>
      <point x="344.2947368421053" y="91.01052631578948"/>
      <point x="267.4315789473684" y="36.136842105263156"/>
      <point x="213.55789473684212" y="36.136842105263156" type="curve" smooth="yes"/>
      <point x="122.70526315789473" y="36.136842105263156"/>
      <point x="98.55789473684209" y="89.86315789473684"/>
      <point x="119.63157894736841" y="188.4842105263158" type="curve"/>
      <point x="136.8736842105263" y="273.61052631578946" type="line"/>
      <point x="153.62105263157892" y="353.7684210526316"/>
      <point x="169.9578947368421" y="422.5157894736842"/>
      <point x="189.46315789473684" y="497.0105263157895" type="curve"/>
      <point x="133.76842105263157" y="494.6736842105263" type="line"/>
      <point x="121.61052631578946" y="420.17894736842106"/>
      <point x="108.45263157894736" y="353.9368421052631"/>
      <point x="90.19999999999999" y="271.1684210526316" type="curve"/>
      <point x="82.19999999999999" y="235.83157894736843"/>
      <point x="76.86315789473683" y="210.49473684210525"/>
      <point x="70.86315789473683" y="183.32631578947368" type="curve" smooth="yes"/>
      <point x="44.11578947368421" y="62.0"/>
      <point x="90.03157894736843" y="-9.589473684210526"/>
    </contour>
  </outline>
</glyph>
<glyph name="v" format="2">
  <advance width="503.3263157894737"/>
  <unicode hex="0076"/>
  <outline>
    <contour>
      <point x="169.77894736842106" y="0.0" type="curve"/>
      <point x="231.46315789473687" y="0.0" type="line"/>
      <point x="266.70526315789476" y="62.084210526315786"/>
      <point x="302.2842105263158" y="123.25263157894737"/>
      <point x="339.0315789473684" y="185.25263157894736" type="curve"/>
      <point x="391.69473684210527" y="273.4210526315789" type="line"/>
      <point x="434.5263157894737" y="346.58947368421053"/>
      <point x="479.27368421052637" y="421.58947368421053"/>
      <point x="526.5263157894736" y="494.6736842105263" type="curve"/>
      <point x="466.07368421052627" y="494.6736842105263" type="line"/>
      <point x="416.86315789473684" y="405.46315789473687"/>
      <point x="367.0631578947369" y="317.41052631578947"/>
      <point x="313.2631578947369" y="225.69473684210527" type="curve"/>
      <point x="212.32631578947368" y="52.09473684210526" type="line"/>
      <point x="205.4842105263158" y="52.09473684210526" type="line"/>
      <point x="177.5157894736842" y="225.69473684210527" type="line"/>
      <point x="162.2" y="317.41052631578947"/>
      <point x="148.13684210526316" y="405.5473684210526"/>
      <point x="136.15789473684208" y="497.0105263157895" type="curve"/>
      <point x="82.8" y="494.6736842105263" type="line"/>
      <point x="98.05263157894736" y="422.6736842105263"/>
      <point x="111.96842105263157" y="347.5052631578947"/>
      <point x="124.63157894736842" y="275.33684210526314" type="curve"/>
      <point x="139.37894736842105" y="187.25263157894736" type="line"/>
      <point x="150.1263157894737" y="127.0"/>
      <point x="160.62105263157895" y="62.084210526315786"/>
    </contour>
  </outline>
</glyph>
<glyph name="w" format="2">
  <advance width="791.7368421052631"/>
  <unicode hex="0077"/>
  <anchor x="344.69473684210527" y="0.0" name="bottom"/>
  <anchor x="448.7789473684211" y="494.6736842105263" name="top"/>
  <outline>
    <contour>
      <point x="144.77894736842106" y="0.0" type="curve"/>
      <point x="206.70526315789473" y="0.0" type="line"/>
      <point x="250.42105263157893" y="85.9578947368421"/>
      <point x="298.30526315789473" y="178.49473684210525"/>
      <point x="342.61052631578946" y="262.62105263157895" type="curve"/>
      <point x="428.38947368421054" y="426.0421052631579" type="line"/>
      <point x="435.06315789473683" y="426.0421052631579" type="line"/>
      <point x="453.12631578947367" y="264.87368421052633" type="line"/>
      <point x="462.1157894736842" y="181.49473684210525"/>
      <point x="471.9368421052631" y="84.12631578947368"/>
      <point x="479.421052631579" y="0.0" type="curve"/>
      <point x="546.1157894736842" y="0.0" type="line"/>
      <point x="577.1894736842105" y="61.084210526315786"/>
      <point x="610.021052631579" y="124.16842105263157"/>
      <point x="644.9368421052632" y="189.25263157894736" type="curve"/>
      <point x="691.7684210526315" y="276.25263157894733" type="line"/>
      <point x="730.7684210526317" y="348.58947368421053"/>
      <point x="769.6842105263157" y="420.58947368421053"/>
      <point x="814.1894736842105" y="494.6736842105263" type="curve"/>
      <point x="753.6526315789474" y="494.6736842105263" type="line"/>
      <point x="714.5157894736842" y="414.5368421052632"/>
      <point x="661.6315789473684" y="313.9894736842105"/>
      <point x="615.2421052631579" y="226.02105263157895" type="curve"/>
      <point x="523.4631578947369" y="52.084210526315786" type="line"/>
      <point x="517.621052631579" y="52.084210526315786" type="line"/>
      <point x="498.978947368421" y="224.93684210526317" type="line"/>
      <point x="489.24210526315784" y="313.90526315789475"/>
      <point x="479.6736842105263" y="407.70526315789476"/>
      <point x="472.4421052631579" y="494.6736842105263" type="curve"/>
      <point x="417.86315789473684" y="494.6736842105263" type="line"/>
      <point x="371.40000000000003" y="402.0421052631579"/>
      <point x="325.0105263157895" y="312.2421052631579"/>
      <point x="278.53684210526313" y="223.10526315789474" type="curve"/>
      <point x="189.50526315789475" y="52.084210526315786" type="line"/>
      <point x="183.66315789473686" y="52.084210526315786" type="line"/>
      <point x="164.10526315789474" y="219.44210526315788" type="line"/>
      <point x="154.3684210526316" y="307.4947368421053"/>
      <point x="142.96842105263156" y="407.12631578947367"/>
      <point x="135.73684210526315" y="497.0105263157895" type="curve"/>
      <point x="81.37894736842105" y="494.6736842105263" type="line"/>
      <point x="94.88421052631578" y="419.67368421052635"/>
      <point x="103.8" y="349.4210526315789"/>
      <point x="112.54736842105262" y="276.25263157894733" type="curve"/>
      <point x="124.12631578947368" y="187.33684210526314" type="line"/>
      <point x="131.87368421052633" y="124.25263157894737"/>
      <point x="138.62105263157895" y="62.084210526315786"/>
    </contour>
  </outline>
</glyph>
<glyph name="x" format="2">
  <advance width="518.6736842105263"/>
  <unicode hex="0078"/>
  <outline>
    <contour>
      <point x="-20.03157894736842" y="0.0" type="curve"/>
      <point x="47.926315789473676" y="0.0" type="line"/>
      <point x="89.55789473684212" y="47.568421052631585"/>
      <point x="121.2" y="82.38947368421053"/>
      <point x="164.42105263157893" y="129.21052631578948" type="curve"/>
      <point x="248.86315789473684" y="220.26315789473685" type="line"/>
      <point x="254.53684210526316" y="220.26315789473685" type="line"/>
      <point x="306.1578947368421" y="126.9578947368421" type="line"/>
      <point x="331.9684210526316" y="80.38947368421053"/>
      <point x="350.28421052631586" y="46.400000000000006"/>
      <point x="372.75789473684216" y="0.0" type="curve"/>
      <point x="433.0421052631579" y="0.0" type="line"/>
      <point x="394.2947368421053" y="62.50526315789474"/>
      <point x="371.8" y="101.92631578947368"/>
      <point x="344.64210526315793" y="150.0105263157895" type="curve"/>
      <point x="281.3263157894737" y="262.0210526315789" type="line"/>
      <point x="279.7473684210526" y="245.57894736842104" type="line"/>
      <point x="379.5684210526316" y="351.0" type="line"/>
      <point x="425.9789473684211" y="400.0842105263158"/>
      <point x="454.89473684210526" y="430.42105263157896"/>
      <point x="518.4736842105265" y="494.6736842105263" type="curve"/>
      <point x="450.43157894736845" y="494.6736842105263" type="line"/>
      <point x="409.63157894736844" y="447.10526315789474"/>
      <point x="377.7368421052631" y="412.11578947368423"/>
      <point x="337.09473684210525" y="368.0421052631579" type="curve"/>
      <point x="257.9789473684211" y="282.4842105263158" type="line"/>
      <point x="253.05263157894737" y="282.4842105263158" type="line"/>
      <point x="208.58947368421053" y="368.12631578947367" type="line"/>
      <point x="187.27368421052634" y="409.36842105263156"/>
      <point x="167.95789473684212" y="447.52631578947364"/>
      <point x="145.4" y="497.0105263157895" type="curve"/>
      <point x="88.37894736842105" y="494.6736842105263" type="line"/>
      <point x="123.9578947368421" y="433.5052631578947"/>
      <point x="142.53684210526313" y="398.1684210526316"/>
      <point x="169.52631578947367" y="347.2526315789474" type="curve"/>
      <point x="224.7578947368421" y="241.9157894736842" type="line"/>
      <point x="227.34736842105264" y="260.18947368421055" type="line"/>
      <point x="124.28421052631579" y="150.26315789473685" type="line"/>
      <point x="78.0421052631579" y="100.7578947368421"/>
      <point x="44.54736842105263" y="65.50526315789475"/>
    </contour>
  </outline>
</glyph>
<glyph name="y" format="2">
  <advance width="506.9894736842105"/>
  <unicode hex="0079"/>
  <anchor x="312.3894736842105" y="0.0" name="bottom"/>
  <anchor x="306.4526315789474" y="494.6736842105263" name="top"/>
  <outline>
    <contour>
      <point x="50.926315789473676" y="-194.33684210526314" type="curve"/>
      <point x="111.54736842105264" y="-192.0" type="line"/>
      <point x="152.45263157894738" y="-120.0"/>
      <point x="201.20000000000005" y="-38.66315789473684"/>
      <point x="278.7789473684211" y="88.33684210526316" type="curve"/>
      <point x="363.5263157894737" y="227.50526315789475" type="line"/>
      <point x="439.27368421052637" y="352.58947368421053"/>
      <point x="477.10526315789474" y="413.6736842105263"/>
      <point x="528.1052631578948" y="494.6736842105263" type="curve"/>
      <point x="467.9052631578947" y="494.6736842105263" type="line"/>
      <point x="417.6947368421053" y="404.7894736842105"/>
      <point x="366.9789473684211" y="317.9052631578947"/>
      <point x="312.17894736842106" y="225.2736842105263" type="curve"/>
      <point x="208.32631578947368" y="51.421052631578945" type="line"/>
      <point x="201.4842105263158" y="51.421052631578945" type="line"/>
      <point x="175.34736842105264" y="224.44210526315788" type="line"/>
      <point x="160.86315789473684" y="317.2421052631579"/>
      <point x="147.71578947368423" y="404.2105263157895"/>
      <point x="135.90526315789472" y="497.0105263157895" type="curve"/>
      <point x="82.54736842105262" y="494.6736842105263" type="line"/>
      <point x="97.88421052631578" y="423.58947368421053"/>
      <point x="110.71578947368421" y="347.58947368421053"/>
      <point x="122.46315789473684" y="276.5052631578947" type="curve"/>
      <point x="137.1263157894737" y="186.50526315789475" type="line"/>
      <point x="147.95789473684212" y="120.25263157894737"/>
      <point x="158.28421052631577" y="49.421052631578945"/>
      <point x="168.44210526315788" y="-18.66315789473684" type="curve"/>
      <point x="171.78947368421055" y="-1.1368421052631579" type="line"/>
      <point x="133.78947368421052" y="-64.97894736842105"/>
      <point x="92.52631578947368" y="-130.49473684210528"/>
    </contour>
  </outline>
</glyph>
<glyph name="z" format="2">
  <advance width="486.5473684210526"/>
  <unicode hex="007A"/>
  <anchor x="189.2736842105263" y="0.0" name="bottom"/>
  <anchor x="241.3578947368421" y="247.33684210526314" name="center"/>
  <anchor x="293.44210526315794" y="494.6736842105263" name="top"/>
  <outline>
    <contour>
      <point x="-9.768421052631577" y="0.0" type="line"/>
      <point x="395.81052631578945" y="0.0" type="line"/>
      <point x="405.5052631578947" y="43.96842105263158" type="line"/>
      <point x="332.4421052631579" y="40.705263157894734"/>
      <point x="235.13684210526316" y="39.11578947368421"/>
      <point x="176.82105263157894" y="39.11578947368421" type="curve"/>
      <point x="47.61052631578947" y="39.11578947368421" type="line"/>
      <point x="54.04210526315789" y="27.16842105263158" type="line"/>
      <point x="273.86315789473684" y="253.73684210526315" type="line"/>
      <point x="340.3368421052632" y="322.1263157894737"/>
      <point x="424.3894736842105" y="407.42105263157896"/>
      <point x="476.12631578947367" y="459.3157894736842" type="curve"/>
      <point x="483.3157894736842" y="494.6736842105263" type="line"/>
      <point x="94.98947368421052" y="494.6736842105263" type="line"/>
      <point x="85.21052631578948" y="450.28421052631575" type="line"/>
      <point x="164.2736842105263" y="454.7157894736842"/>
      <point x="262.74736842105267" y="455.4736842105263"/>
      <point x="320.14736842105265" y="455.4736842105263" type="curve"/>
      <point x="436.94736842105266" y="455.4736842105263" type="line"/>
      <point x="429.7578947368421" y="476.58947368421053" type="line"/>
      <point x="210.01052631578946" y="249.42105263157896" type="line"/>
      <point x="147.45263157894738" y="184.69473684210527"/>
      <point x="73.89473684210525" y="109.5578947368421"/>
      <point x="-2.915789473684209" y="31.842105263157894" type="curve"/>
    </contour>
  </outline>
</glyph>
<glyph name="braceleft" format="2">
  <advance width="381.93684210526317"/>
  <unicode hex="007B"/>
  <outline>
    <contour>
      <point x="220.05263157894734" y="-113.51578947368421" type="curve" smooth="yes"/>
      <point x="294.8315789473684" y="-113.51578947368421" type="line"/>
      <point x="303.44210526315794" y="-70.13684210526316" type="line"/>
      <point x="270.2736842105263" y="-71.38947368421053"/>
      <point x="243.2736842105263" y="-71.47368421052632"/>
      <point x="226.2736842105263" y="-71.47368421052632" type="curve"/>
      <point x="155.7263157894737" y="-71.13684210526317"/>
      <point x="130.4105263157895" y="-29.568421052631578"/>
      <point x="141.90526315789472" y="30.326315789473682" type="curve" smooth="yes"/>
      <point x="174.96842105263158" y="195.82105263157894" type="line" smooth="yes"/>
      <point x="189.79999999999998" y="268.2421052631579"/>
      <point x="168.96842105263158" y="298.57894736842104"/>
      <point x="129.10526315789474" y="318.0842105263158" type="curve"/>
      <point x="130.2736842105263" y="324.8421052631579" type="line"/>
      <point x="178.30526315789473" y="343.93684210526317"/>
      <point x="210.64210526315787" y="370.62105263157895"/>
      <point x="227.97894736842105" y="447.87368421052633" type="curve" smooth="yes"/>
      <point x="268.7894736842105" y="633.5894736842105" type="line" smooth="yes"/>
      <point x="282.4526315789473" y="696.2315789473685"/>
      <point x="318.6842105263158" y="719.6421052631579"/>
      <point x="384.65263157894736" y="719.8947368421053" type="curve"/>
      <point x="404.40000000000003" y="719.8947368421053"/>
      <point x="434.06315789473683" y="719.8105263157895"/>
      <point x="468.5578947368421" y="718.5578947368422" type="curve"/>
      <point x="478.1684210526316" y="761.9368421052632" type="line"/>
      <point x="384.72631578947363" y="761.9368421052632" type="line" smooth="yes"/>
      <point x="295.6" y="761.9368421052632"/>
      <point x="239.56842105263158" y="725.5894736842106"/>
      <point x="221.89473684210526" y="642.221052631579" type="curve"/>
      <point x="209.23157894736843" y="580.6526315789473"/>
      <point x="196.2421052631579" y="510.43157894736845"/>
      <point x="183.49473684210528" y="448.86315789473684" type="curve"/>
      <point x="167.08421052631581" y="371.38947368421054"/>
      <point x="110.61052631578947" y="343.4736842105263"/>
      <point x="60.45263157894737" y="343.4736842105263" type="curve" smooth="yes"/>
      <point x="30.936842105263157" y="343.4736842105263" type="line"/>
      <point x="22.74736842105263" y="304.0315789473684" type="line"/>
      <point x="52.26315789473684" y="304.0315789473684" type="line" smooth="yes"/>
      <point x="102.42105263157895" y="304.0315789473684"/>
      <point x="146.89473684210526" y="276.11578947368423"/>
      <point x="130.4842105263158" y="198.6421052631579" type="curve"/>
      <point x="118.90526315789475" y="142.83157894736843"/>
      <point x="105.98947368421054" y="87.93684210526317"/>
      <point x="94.41052631578948" y="32.126315789473686" type="curve"/>
      <point x="77.65263157894738" y="-48.49473684210526"/>
      <point x="122.6842105263158" y="-113.51578947368421"/>
    </contour>
  </outline>
</glyph>
<glyph name="asciitilde" format="2">
  <advance width="562.5263157894736"/>
  <unicode hex="007E"/>
  <outline>
    <contour>
      <point x="404.0947368421053" y="229.29473684210527" type="curve" smooth="yes"/>
      <point x="461.70526315789476" y="229.29473684210527"/>
      <point x="500.9684210526315" y="271.2526315789474"/>
      <point x="517.1473684210525" y="349.5578947368421" type="curve"/>
      <point x="480.06315789473683" y="349.5578947368421" type="line"/>
      <point x="463.4842105263158" y="296.7578947368421"/>
      <point x="445.32631578947365" y="275.6"/>
      <point x="404.43157894736845" y="273.5157894736842" type="curve"/>
      <point x="333.20000000000005" y="275.93684210526317"/>
      <point x="261.9368421052631" y="363.3157894736842"/>
      <point x="182.2736842105263" y="363.3157894736842" type="curve" smooth="yes"/>
      <point x="124.15789473684211" y="363.3157894736842"/>
      <point x="83.81052631578947" y="320.3578947368421"/>
      <point x="66.71578947368421" y="243.05263157894737" type="curve"/>
      <point x="103.8" y="243.05263157894737" type="line"/>
      <point x="120.37894736842105" y="295.85263157894735"/>
      <point x="140.62105263157898" y="317.01052631578943"/>
      <point x="180.7684210526316" y="319.09473684210525" type="curve"/>
      <point x="252.49473684210525" y="316.6736842105263"/>
      <point x="324.09473684210525" y="229.29473684210527"/>
    </contour>
  </outline>
</glyph>
<glyph name="cent" format="2">
  <advance width="499.6421052631579"/>
  <unicode hex="00A2"/>
  <anchor x="236.56842105263158" y="0.0" name="bottom"/>
  <anchor x="332.4947368421053" y="494.6736842105263" name="top"/>
  <outline>
    <contour>
      <point x="174.20000000000002" y="-137.0" type="curve"/>
      <point x="219.0736842105263" y="-137.0" type="line"/>
      <point x="241.14736842105262" y="-20.16842105263158"/>
      <point x="263.2315789473684" y="84.0"/>
      <point x="286.2315789473684" y="192.0842105263158" type="curve"/>
      <point x="308.2315789473684" y="294.33684210526314" type="line"/>
      <point x="331.2315789473684" y="402.42105263157896"/>
      <point x="353.2315789473684" y="506.33684210526314"/>
      <point x="381.0736842105263" y="623.421052631579" type="curve"/>
      <point x="336.2" y="623.421052631579" type="line"/>
      <point x="314.0421052631579" y="506.42105263157896"/>
      <point x="292.0421052631579" y="402.33684210526314"/>
      <point x="269.0421052631579" y="294.33684210526314" type="curve"/>
      <point x="247.0421052631579" y="192.0842105263158" type="line"/>
      <point x="224.1263157894737" y="84.33684210526316"/>
      <point x="202.0421052631579" y="-19.91578947368421"/>
    </contour>
    <contour>
      <point x="278.09473684210525" y="-9.336842105263159" type="curve" smooth="yes"/>
      <point x="324.1684210526316" y="-9.336842105263159"/>
      <point x="375.8315789473684" y="8.073684210526316"/>
      <point x="402.8315789473684" y="21.56842105263158" type="curve"/>
      <point x="405.44210526315794" y="74.03157894736842" type="line"/>
      <point x="369.0315789473684" y="52.53684210526316"/>
      <point x="320.53684210526313" y="35.95789473684211"/>
      <point x="281.9684210526316" y="35.04210526315789" type="curve" smooth="yes"/>
      <point x="151.28421052631577" y="37.04210526315789"/>
      <point x="79.06315789473685" y="123.15789473684211"/>
      <point x="109.63157894736842" y="266.83157894736837" type="curve" smooth="yes"/>
      <point x="136.2" y="390.58947368421053"/>
      <point x="220.97894736842105" y="455.29473684210524"/>
      <point x="327.9157894736842" y="460.29473684210524" type="curve"/>
      <point x="363.56842105263155" y="460.29473684210524"/>
      <point x="420.30526315789473" y="444.7157894736842"/>
      <point x="474.7263157894737" y="412.13684210526316" type="curve"/>
      <point x="489.2631578947368" y="460.021052631579" type="line"/>
      <point x="449.0105263157895" y="479.51578947368426"/>
      <point x="387.08421052631576" y="505.09473684210525"/>
      <point x="328.74736842105267" y="505.09473684210525" type="curve" smooth="yes"/>
      <point x="195.21052631578948" y="505.09473684210525"/>
      <point x="90.63157894736842" y="410.34736842105264"/>
      <point x="62.463157894736845" y="273.92631578947373" type="curve" smooth="yes"/>
      <point x="28.957894736842107" y="110.07368421052632"/>
      <point x="114.39999999999999" y="-9.336842105263159"/>
    </contour>
  </outline>
</glyph>
<glyph name="sterling" format="2">
  <advance width="582.7052631578947"/>
  <unicode hex="00A3"/>
  <outline>
    <contour>
      <point x="19.547368421052635" y="0.0" type="line"/>
      <point x="496.04210526315785" y="0.0" type="line"/>
      <point x="506.41052631578947" y="48.83157894736842" type="line"/>
      <point x="418.0842105263158" y="44.48421052631579"/>
      <point x="340.0105263157895" y="44.31578947368421"/>
      <point x="208.44210526315788" y="44.31578947368421" type="curve"/>
      <point x="62.21052631578948" y="44.31578947368421" type="line"/>
      <point x="70.4" y="24.389473684210525" type="line"/>
      <point x="162.32631578947368" y="101.62105263157895"/>
      <point x="181.07368421052632" y="165.18947368421055"/>
      <point x="193.73684210526318" y="222.8421052631579" type="curve" smooth="yes"/>
      <point x="246.78947368421052" y="469.7894736842105" type="line" smooth="yes"/>
      <point x="273.4421052631579" y="593.7263157894737"/>
      <point x="330.5052631578947" y="650.0315789473684"/>
      <point x="432.62105263157895" y="651.2842105263157" type="curve"/>
      <point x="469.2736842105263" y="651.2842105263157"/>
      <point x="527.9263157894737" y="635.7052631578947"/>
      <point x="584.3473684210526" y="603.9578947368421" type="curve"/>
      <point x="600.6421052631579" y="652.021052631579" type="line"/>
      <point x="557.7157894736843" y="671.4315789473685"/>
      <point x="492.6105263157895" y="696.8421052631579"/>
      <point x="431.2631578947368" y="696.8421052631579" type="curve" smooth="yes"/>
      <point x="315.95789473684215" y="696.8421052631579"/>
      <point x="229.61052631578946" y="627.7368421052631"/>
      <point x="198.44210526315788" y="478.6421052631579" type="curve" smooth="yes"/>
      <point x="180.94736842105263" y="399.57894736842104"/>
      <point x="160.9578947368421" y="297.2631578947369"/>
      <point x="144.1263157894737" y="217.02105263157895" type="curve"/>
      <point x="134.29473684210527" y="169.53684210526316"/>
      <point x="114.88421052631578" y="103.6421052631579"/>
      <point x="27.147368421052636" y="34.83157894736842" type="curve"/>
    </contour>
    <contour>
      <point x="87.37894736842107" y="359.1684210526316" type="line"/>
      <point x="147.8105263157895" y="361.5894736842105"/>
      <point x="204.2421052631579" y="361.6736842105263"/>
      <point x="252.50526315789475" y="361.6736842105263" type="curve"/>
      <point x="283.6842105263158" y="361.6736842105263" type="line"/>
      <point x="331.9473684210526" y="361.6736842105263"/>
      <point x="388.2105263157894" y="361.5894736842105"/>
      <point x="446.6421052631579" y="359.1684210526316" type="curve"/>
      <point x="456.0" y="402.4526315789474" type="line"/>
      <point x="396.4842105263158" y="400.0315789473685"/>
      <point x="340.05263157894734" y="399.94736842105266"/>
      <point x="291.7894736842105" y="399.94736842105266" type="curve"/>
      <point x="260.61052631578946" y="399.94736842105266" type="line"/>
      <point x="212.34736842105264" y="399.94736842105266"/>
      <point x="156.08421052631581" y="400.0315789473685"/>
      <point x="96.73684210526315" y="402.4526315789474" type="curve"/>
    </contour>
  </outline>
</glyph>
<glyph name="currency" format="2">
  <advance width="607.0736842105263"/>
  <unicode hex="00A4"/>
  <outline>
    <contour>
      <point x="304.11578947368423" y="125.36842105263159" type="curve" smooth="yes"/>
      <point x="411.56842105263155" y="125.36842105263159"/>
      <point x="484.58947368421053" y="180.87368421052633"/>
      <point x="507.34736842105264" y="296.56842105263155" type="curve" smooth="yes"/>
      <point x="531.0210526315789" y="415.17894736842106"/>
      <point x="450.0" y="515.3789473684211"/>
      <point x="332.53684210526313" y="515.3789473684211" type="curve" smooth="yes"/>
      <point x="231.49473684210528" y="515.3789473684211"/>
      <point x="150.3157894736842" y="460.7894736842105"/>
      <point x="127.5578947368421" y="345.09473684210525" type="curve" smooth="yes"/>
      <point x="103.88421052631578" y="225.56842105263158"/>
      <point x="182.98947368421054" y="125.36842105263159"/>
    </contour>
    <contour>
      <point x="82.82105263157895" y="66.8421052631579" type="line"/>
      <point x="124.57894736842104" y="109.10526315789474"/>
      <point x="165.50526315789472" y="147.1157894736842"/>
      <point x="200.5157894736842" y="180.04210526315788" type="curve"/>
      <point x="170.9157894736842" y="212.14736842105265" type="line"/>
      <point x="135.98947368421054" y="179.30526315789473"/>
      <point x="93.97894736842105" y="141.46315789473684"/>
      <point x="49.63157894736842" y="102.78947368421053" type="curve"/>
    </contour>
    <contour>
      <point x="307.1263157894737" y="169.66315789473686" type="curve"/>
      <point x="214.75789473684208" y="172.0"/>
      <point x="153.8736842105263" y="247.1263157894737"/>
      <point x="171.94736842105263" y="339.2421052631579" type="curve" smooth="yes"/>
      <point x="188.93684210526314" y="427.8526315789474"/>
      <point x="252.39999999999998" y="469.0842105263158"/>
      <point x="329.86315789473684" y="471.33684210526314" type="curve"/>
      <point x="419.65263157894736" y="468.9157894736842"/>
      <point x="481.2" y="393.62105263157895"/>
      <point x="463.2105263157895" y="302.7578947368421" type="curve" smooth="yes"/>
      <point x="445.2210526315789" y="212.6421052631579"/>
      <point x="390.0" y="171.66315789473686"/>
    </contour>
    <contour>
      <point x="197.32631578947368" y="420.44210526315794" type="curve"/>
      <point x="228.26315789473682" y="449.62105263157895" type="line"/>
      <point x="195.33684210526314" y="485.5473684210526"/>
      <point x="157.49473684210525" y="526.5578947368421"/>
      <point x="118.82105263157895" y="570.9894736842105" type="curve"/>
      <point x="84.1263157894737" y="538.0526315789474" type="line"/>
      <point x="125.55789473684212" y="497.2105263157895"/>
      <point x="164.4842105263158" y="455.3684210526316"/>
    </contour>
    <contour>
      <point x="520.0842105263158" y="70.84210526315789" type="curve"/>
      <point x="554.7789473684211" y="103.77894736842106" type="line"/>
      <point x="513.3473684210526" y="144.62105263157895"/>
      <point x="474.42105263157896" y="186.46315789473684"/>
      <point x="441.5789473684211" y="221.38947368421054" type="curve"/>
      <point x="410.64210526315793" y="192.21052631578945" type="line"/>
      <point x="443.5684210526316" y="156.28421052631577"/>
      <point x="481.41052631578947" y="115.27368421052633"/>
    </contour>
    <contour>
      <point x="467.98947368421057" y="429.6842105263158" type="line"/>
      <point x="502.9157894736842" y="462.5263157894737"/>
      <point x="544.9263157894737" y="500.36842105263156"/>
      <point x="589.2736842105263" y="539.042105263158" type="curve"/>
      <point x="556.0842105263158" y="574.9894736842106" type="line"/>
      <point x="514.3263157894737" y="532.7263157894738"/>
      <point x="473.4" y="494.7157894736842"/>
      <point x="438.3894736842105" y="461.7894736842105" type="curve"/>
    </contour>
  </outline>
</glyph>
<glyph name="yen" format="2">
  <advance width="609.7368421052631"/>
  <unicode hex="00A5"/>
  <outline>
    <contour>
      <point x="290.0315789473684" y="282.2736842105263" type="line"/>
      <point x="333.85263157894735" y="282.2736842105263" type="line"/>
      <point x="536.8421052631579" y="525.0631578947368" type="line"/>
      <point x="583.5894736842106" y="580.9052631578948"/>
      <point x="629.2526315789473" y="635.578947368421"/>
      <point x="673.4315789473684" y="684.5052631578948" type="curve"/>
      <point x="605.2842105263157" y="684.5052631578948" type="line"/>
      <point x="529.1789473684212" y="587.4526315789473"/>
      <point x="492.4526315789474" y="542.8"/>
      <point x="428.32631578947365" y="465.2421052631579" type="curve"/>
      <point x="322.7263157894737" y="337.2842105263158" type="line"/>
      <point x="316.0526315789474" y="337.2842105263158" type="line"/>
      <point x="266.17894736842106" y="461.0736842105263" type="line"/>
      <point x="234.78947368421052" y="539.2105263157895"/>
      <point x="216.5578947368421" y="585.7894736842105"/>
      <point x="179.93684210526314" y="684.5052631578948" type="curve"/>
      <point x="120.30526315789474" y="684.5052631578948" type="line"/>
      <point x="157.8947368421053" y="603.1578947368421"/>
      <point x="170.6421052631579" y="572.5684210526316"/>
      <point x="190.22105263157894" y="524.8105263157895" type="curve"/>
    </contour>
    <contour>
      <point x="224.68421052631578" y="0.0" type="curve"/>
      <point x="280.3894736842105" y="0.0" type="line"/>
      <point x="293.0421052631579" y="77.41052631578947"/>
      <point x="306.8736842105263" y="143.90526315789475"/>
      <point x="324.8736842105263" y="227.07368421052632" type="curve"/>
      <point x="344.81052631578945" y="321.2526315789474" type="line"/>
      <point x="296.7157894736842" y="321.2526315789474" type="line"/>
      <point x="276.77894736842103" y="227.1578947368421" type="line"/>
      <point x="258.77894736842103" y="143.98947368421054"/>
      <point x="244.77894736842106" y="77.41052631578947"/>
    </contour>
    <contour>
      <point x="64.71578947368421" y="150.3578947368421" type="line"/>
      <point x="124.23157894736842" y="152.77894736842106"/>
      <point x="180.57894736842104" y="152.86315789473684"/>
      <point x="228.8421052631579" y="152.86315789473684" type="curve"/>
      <point x="341.7052631578947" y="152.86315789473684" type="line"/>
      <point x="389.9684210526316" y="152.86315789473684"/>
      <point x="446.3157894736842" y="152.77894736842106"/>
      <point x="505.6631578947368" y="150.3578947368421" type="curve"/>
      <point x="513.6842105263158" y="191.53684210526316" type="line"/>
      <point x="454.1684210526316" y="189.53684210526316"/>
      <point x="397.82105263157894" y="189.45263157894738"/>
      <point x="349.55789473684206" y="189.45263157894738" type="curve"/>
      <point x="236.69473684210527" y="189.45263157894738" type="line"/>
      <point x="188.43157894736842" y="189.45263157894738"/>
      <point x="132.0842105263158" y="189.53684210526316"/>
      <point x="72.73684210526315" y="191.53684210526316" type="curve"/>
    </contour>
    <contour>
      <point x="92.72631578947367" y="284.9052631578947" type="line"/>
      <point x="153.07368421052632" y="286.9052631578947"/>
      <point x="209.42105263157896" y="286.9894736842105"/>
      <point x="257.6842105263158" y="286.9894736842105" type="curve"/>
      <point x="370.5473684210526" y="286.9894736842105" type="line"/>
      <point x="418.8105263157895" y="286.9894736842105"/>
      <point x="475.15789473684214" y="286.9052631578947"/>
      <point x="533.6736842105264" y="284.9052631578947" type="curve"/>
      <point x="542.6105263157896" y="326.08421052631576" type="line"/>
      <point x="483.0105263157895" y="323.66315789473686"/>
      <point x="426.66315789473686" y="323.57894736842104"/>
      <point x="378.4" y="323.57894736842104" type="curve"/>
      <point x="265.53684210526313" y="323.57894736842104" type="line"/>
      <point x="217.2736842105263" y="323.57894736842104"/>
      <point x="160.92631578947368" y="323.66315789473686"/>
      <point x="101.66315789473683" y="326.08421052631576" type="curve"/>
    </contour>
  </outline>
</glyph>
<glyph name="brokenbar" format="2">
  <advance width="254.37894736842105"/>
  <unicode hex="00A6"/>
  <outline>
    <contour>
      <point x="131.11578947368423" y="365.1578947368421" type="line"/>
      <point x="174.58947368421053" y="365.1578947368421" type="line"/>
      <point x="193.67368421052632" y="456.1578947368421" type="line"/>
      <point x="216.67368421052632" y="564.1578947368421"/>
      <point x="238.7578947368421" y="668.1578947368421"/>
      <point x="266.5157894736842" y="785.1578947368421" type="curve"/>
      <point x="217.35789473684213" y="785.1578947368421" type="line"/>
      <point x="195.11578947368423" y="668.1578947368421"/>
      <point x="173.20000000000002" y="564.1578947368421"/>
      <point x="150.20000000000002" y="456.1578947368421" type="curve"/>
    </contour>
    <contour>
      <point x="17.357894736842113" y="-154.8421052631579" type="curve"/>
      <point x="66.5157894736842" y="-154.8421052631579" type="line"/>
      <point x="88.75789473684209" y="-37.8421052631579"/>
      <point x="110.6736842105263" y="66.15789473684211"/>
      <point x="133.67368421052632" y="174.1578947368421" type="curve"/>
      <point x="152.67368421052632" y="265.1578947368421" type="line"/>
      <point x="109.2" y="265.1578947368421" type="line"/>
      <point x="90.2" y="174.1578947368421" type="line"/>
      <point x="67.2" y="66.15789473684211"/>
      <point x="45.03157894736844" y="-37.8421052631579"/>
    </contour>
  </outline>
</glyph>
<glyph name="copyright" format="2">
  <advance width="825.4631578947368"/>
  <unicode hex="00A9"/>
  <outline>
    <contour>
      <point x="436.2315789473684" y="-9.589473684210526" type="curve" smooth="yes"/>
      <point x="653.421052631579" y="-9.589473684210526"/>
      <point x="788.4947368421052" y="141.57894736842104"/>
      <point x="788.4947368421052" y="344.0842105263158" type="curve" smooth="yes"/>
      <point x="788.4947368421052" y="540.3368421052631"/>
      <point x="659.5052631578948" y="696.8421052631579"/>
      <point x="433.89473684210526" y="696.8421052631579" type="curve" smooth="yes"/>
      <point x="212.2" y="696.8421052631579"/>
      <point x="76.96842105263158" y="543.1684210526316"/>
      <point x="76.96842105263158" y="344.0" type="curve" smooth="yes"/>
      <point x="76.96842105263158" y="151.42105263157896"/>
      <point x="200.62105263157895" y="-9.589473684210526"/>
    </contour>
    <contour>
      <point x="443.4842105263158" y="155.9157894736842" type="curve" smooth="yes"/>
      <point x="486.2315789473684" y="155.9157894736842"/>
      <point x="524.7368421052631" y="171.32631578947368"/>
      <point x="550.9894736842105" y="180.90526315789472" type="curve"/>
      <point x="544.9894736842105" y="224.1578947368421" type="line"/>
      <point x="510.16842105263163" y="205.66315789473686"/>
      <point x="476.7578947368421" y="195.0"/>
      <point x="447.10526315789474" y="195.0" type="curve"/>
      <point x="355.23157894736846" y="196.9157894736842"/>
      <point x="305.9157894736842" y="253.71578947368423"/>
      <point x="305.9157894736842" y="345.1684210526316" type="curve" smooth="yes"/>
      <point x="305.9157894736842" y="442.2736842105263"/>
      <point x="361.63157894736844" y="491.4947368421052"/>
      <point x="438.9157894736842" y="493.57894736842104" type="curve"/>
      <point x="457.5789473684211" y="493.57894736842104"/>
      <point x="497.90526315789475" y="484.57894736842104"/>
      <point x="544.7368421052631" y="461.7473684210526" type="curve"/>
      <point x="549.3263157894737" y="505.33684210526314" type="line"/>
      <point x="521.0736842105263" y="516.2526315789473"/>
      <point x="475.15789473684214" y="533.0"/>
      <point x="437.2315789473684" y="533.0" type="curve" smooth="yes"/>
      <point x="328.63157894736844" y="533.0"/>
      <point x="263.9684210526316" y="451.0842105263158"/>
      <point x="263.9684210526316" y="344.7473684210526" type="curve" smooth="yes"/>
      <point x="263.9684210526316" y="238.41052631578947"/>
      <point x="328.6421052631579" y="155.9157894736842"/>
    </contour>
    <contour>
      <point x="436.14736842105265" y="29.23157894736842" type="curve"/>
      <point x="239.41052631578947" y="33.56842105263158"/>
      <point x="116.46315789473684" y="147.7263157894737"/>
      <point x="116.46315789473684" y="344.0" type="curve" smooth="yes"/>
      <point x="116.46315789473684" y="536.5368421052632"/>
      <point x="243.49473684210525" y="653.6842105263158"/>
      <point x="433.9789473684211" y="658.021052631579" type="curve"/>
      <point x="625.5473684210526" y="653.6842105263158"/>
      <point x="749.0" y="538.2842105263157"/>
      <point x="749.0" y="344.0842105263158" type="curve" smooth="yes"/>
      <point x="749.0" y="148.54736842105265"/>
      <point x="624.2105263157895" y="33.56842105263158"/>
    </contour>
  </outline>
</glyph>
<glyph name="ordfeminine" format="2">
  <advance width="390.2068965517241"/>
  <unicode hex="00AA"/>
  <outline>
    <contour>
      <point x="189.8735632183908" y="334.264367816092" type="curve" smooth="yes"/>
      <point x="236.6896551724138" y="334.264367816092"/>
      <point x="287.2183908045977" y="361.44827586206895"/>
      <point x="320.48275862068965" y="402.08045977011494" type="curve"/>
      <point x="325.8505747126437" y="402.08045977011494" type="line"/>
      <point x="329.66666666666674" y="341.44827586206895" type="line"/>
      <point x="370.9655172413793" y="341.44827586206895" type="line"/>
      <point x="366.5977011494253" y="383.367816091954"/>
      <point x="364.14942528735634" y="415.65517241379314"/>
      <point x="370.51724137931035" y="450.2068965517241" type="curve"/>
      <point x="381.7816091954023" y="502.89655172413796" type="line" smooth="yes"/>
      <point x="388.5977011494253" y="535.7931034482759"/>
      <point x="396.7816091954023" y="565.7931034482759"/>
      <point x="399.96551724137936" y="581.4482758620691" type="curve" smooth="yes"/>
      <point x="418.14942528735634" y="667.367816091954"/>
      <point x="378.9425287356322" y="725.3678160919541"/>
      <point x="286.91954022988506" y="725.3678160919541" type="curve" smooth="yes"/>
      <point x="250.0" y="725.3678160919541"/>
      <point x="193.7126436781609" y="709.3678160919541"/>
      <point x="157.16091954022988" y="699.735632183908" type="curve"/>
      <point x="150.6896551724138" y="655.1724137931035" type="line"/>
      <point x="210.77011494252872" y="676.3563218390805"/>
      <point x="258.60919540229884" y="686.9080459770115"/>
      <point x="279.0574712643678" y="686.9080459770115" type="curve" smooth="yes"/>
      <point x="344.0344827586207" y="686.9080459770115"/>
      <point x="378.5632183908046" y="656.1954022988506"/>
      <point x="360.4022988505747" y="583.551724137931" type="curve"/>
      <point x="226.97701149425288" y="557.655172413793" type="line" smooth="yes"/>
      <point x="163.68965517241384" y="545.655172413793"/>
      <point x="103.16091954022988" y="524.9999999999999"/>
      <point x="87.16091954022988" y="453.632183908046" type="curve" smooth="yes"/>
      <point x="71.16091954022988" y="384.4482758620689"/>
      <point x="115.79310344827587" y="334.264367816092"/>
    </contour>
    <contour>
      <point x="201.86206896551724" y="371.98850574712645" type="curve" smooth="yes"/>
      <point x="150.35632183908046" y="371.98850574712645"/>
      <point x="115.19540229885058" y="396.7011494252873"/>
      <point x="127.27586206896552" y="455.1034482758621" type="curve" smooth="yes"/>
      <point x="137.72413793103448" y="504.1609195402299"/>
      <point x="183.9655172413793" y="514.7931034482758"/>
      <point x="234.65517241379308" y="525.2413793103448" type="curve" smooth="yes"/>
      <point x="318.7701149425287" y="542.3218390804598"/>
      <point x="335.2183908045977" y="548.1379310344827"/>
      <point x="354.2988505747127" y="556.1379310344828" type="curve"/>
      <point x="332.4022988505747" y="454.47126436781616" type="line"/>
      <point x="288.16091954022994" y="389.88505747126436"/>
      <point x="237.6551724137931" y="371.98850574712645"/>
    </contour>
  </outline>
</glyph>
<glyph name="logicalnot" format="2">
  <advance width="562.5263157894736"/>
  <unicode hex="00AC"/>
  <outline>
    <contour>
      <point x="409.14736842105265" y="63.23157894736842" type="curve"/>
      <point x="458.1368421052631" y="63.23157894736842" type="line"/>
      <point x="468.05263157894734" y="120.83157894736841"/>
      <point x="480.2210526315789" y="178.92631578947368"/>
      <point x="490.4736842105263" y="227.10526315789474" type="curve"/>
      <point x="510.7368421052631" y="320.4210526315789" type="line"/>
      <point x="450.30526315789473" y="318.0"/>
      <point x="393.9578947368421" y="317.9157894736842"/>
      <point x="345.69473684210527" y="317.9157894736842" type="curve"/>
      <point x="246.2" y="317.9157894736842" type="line"/>
      <point x="197.93684210526314" y="317.9157894736842"/>
      <point x="141.58947368421053" y="318.0"/>
      <point x="83.15789473684211" y="320.4210526315789" type="curve"/>
      <point x="73.04210526315791" y="271.93684210526317" type="line"/>
      <point x="132.6421052631579" y="274.35789473684207"/>
      <point x="188.9894736842105" y="274.4421052631579"/>
      <point x="237.25263157894736" y="274.4421052631579" type="curve"/>
      <point x="336.74736842105267" y="274.4421052631579" type="line"/>
      <point x="381.5052631578948" y="274.4421052631579"/>
      <point x="434.2631578947369" y="274.35789473684207"/>
      <point x="488.93684210526317" y="271.93684210526317" type="curve"/>
      <point x="462.91578947368424" y="304.2105263157895" type="line"/>
      <point x="446.4947368421053" y="227.18947368421053" type="line"/>
      <point x="436.2421052631579" y="179.01052631578946"/>
      <point x="423.9052631578947" y="120.83157894736841"/>
    </contour>
  </outline>
</glyph>
<glyph name="plusminus" format="2">
  <advance width="562.5263157894736"/>
  <unicode hex="00B1"/>
  <outline>
    <contour>
      <point x="14.305263157894736" y="-2.5052631578947366" type="line"/>
      <point x="73.82105263157895" y="-0.08421052631578947"/>
      <point x="130.25263157894736" y="0.0"/>
      <point x="178.5157894736842" y="0.0" type="curve"/>
      <point x="278.0105263157895" y="0.0" type="line"/>
      <point x="326.2736842105263" y="0.0"/>
      <point x="382.53684210526313" y="-0.08421052631578947"/>
      <point x="441.88421052631577" y="-2.5052631578947366" type="curve"/>
      <point x="452.0" y="45.97894736842105" type="line"/>
      <point x="392.4" y="43.5578947368421"/>
      <point x="336.05263157894734" y="43.473684210526315"/>
      <point x="287.7894736842105" y="43.473684210526315" type="curve"/>
      <point x="188.29473684210527" y="43.473684210526315" type="line"/>
      <point x="140.03157894736842" y="43.473684210526315"/>
      <point x="83.6842105263158" y="43.5578947368421"/>
      <point x="24.42105263157895" y="45.97894736842105" type="curve"/>
    </contour>
    <contour>
      <point x="89.6421052631579" y="352.2631578947369" type="line"/>
      <point x="150.1578947368421" y="354.6842105263158"/>
      <point x="206.50526315789472" y="354.7684210526316"/>
      <point x="254.76842105263157" y="354.7684210526316" type="curve"/>
      <point x="354.2631578947369" y="354.7684210526316" type="line"/>
      <point x="402.5263157894737" y="354.7684210526316"/>
      <point x="458.87368421052633" y="354.6842105263158"/>
      <point x="517.2210526315788" y="352.2631578947369" type="curve"/>
      <point x="527.3368421052631" y="400.7473684210526" type="line"/>
      <point x="467.82105263157894" y="398.3263157894737"/>
      <point x="411.4736842105263" y="398.2421052631579"/>
      <point x="363.2105263157895" y="398.2421052631579" type="curve"/>
      <point x="263.7157894736842" y="398.2421052631579" type="line"/>
      <point x="215.45263157894735" y="398.2421052631579"/>
      <point x="159.10526315789474" y="398.3263157894737"/>
      <point x="99.7578947368421" y="400.7473684210526" type="curve"/>
    </contour>
    <contour>
      <point x="234.2" y="145.2421052631579" type="curve"/>
      <point x="284.1894736842105" y="145.2421052631579" type="line"/>
      <point x="295.021052631579" y="203.7578947368421"/>
      <point x="306.2736842105263" y="261.0210526315789"/>
      <point x="316.5263157894737" y="309.2842105263158" type="curve"/>
      <point x="345.34736842105264" y="443.7263157894737" type="line"/>
      <point x="355.6" y="491.9894736842105"/>
      <point x="367.9368421052632" y="548.3368421052631"/>
      <point x="382.69473684210527" y="607.7684210526315" type="curve"/>
      <point x="332.70526315789476" y="607.7684210526315" type="line"/>
      <point x="321.87368421052633" y="549.2526315789473"/>
      <point x="310.62105263157895" y="491.9894736842105"/>
      <point x="300.36842105263156" y="443.7263157894737" type="curve"/>
      <point x="271.5473684210526" y="309.2842105263158" type="line"/>
      <point x="261.29473684210524" y="261.0210526315789"/>
      <point x="248.9578947368421" y="203.7578947368421"/>
    </contour>
  </outline>
</glyph>
<glyph name="micro" format="2">
  <advance width="552.5368421052632"/>
  <unicode hex="00B5"/>
  <outline>
    <contour>
      <point x="-14.063157894736845" y="-194.33684210526314" type="curve"/>
      <point x="41.136842105263156" y="-192.0" type="line"/>
      <point x="53.87368421052632" y="-117.50526315789473"/>
      <point x="66.2" y="-52.92631578947368"/>
      <point x="83.94736842105263" y="27.231578947368423" type="curve" smooth="yes"/>
      <point x="94.18947368421053" y="74.86315789473684" type="line"/>
      <point x="77.76842105263158" y="74.86315789473684" type="line"/>
      <point x="91.10526315789474" y="20.810526315789474"/>
      <point x="132.67368421052632" y="-9.589473684210526"/>
      <point x="203.22105263157894" y="-9.589473684210526" type="curve" smooth="yes"/>
      <point x="263.53684210526313" y="-9.589473684210526"/>
      <point x="341.8421052631579" y="47.305263157894736"/>
      <point x="385.25263157894733" y="89.48421052631578" type="curve"/>
      <point x="391.2631578947368" y="89.48421052631578" type="line"/>
      <point x="397.67368421052635" y="0.0" type="line"/>
      <point x="444.7473684210526" y="0.0" type="line"/>
      <point x="438.3263157894737" y="54.34736842105263"/>
      <point x="436.25263157894733" y="102.69473684210527"/>
      <point x="444.58947368421053" y="143.21052631578948" type="curve"/>
      <point x="471.7473684210526" y="271.33684210526314" type="line"/>
      <point x="489.08421052631576" y="353.8526315789474"/>
      <point x="506.5894736842106" y="420.2631578947368"/>
      <point x="522.0" y="494.6736842105263" type="curve"/>
      <point x="469.4842105263158" y="494.6736842105263" type="line"/>
      <point x="457.3263157894737" y="420.17894736842106"/>
      <point x="443.83157894736837" y="353.7684210526316"/>
      <point x="426.08421052631576" y="273.61052631578946" type="curve"/>
      <point x="399.67368421052635" y="150.13684210526313" type="line"/>
      <point x="344.2105263157895" y="91.01052631578948"/>
      <point x="267.34736842105264" y="36.136842105263156"/>
      <point x="213.47368421052633" y="36.136842105263156" type="curve" smooth="yes"/>
      <point x="122.62105263157893" y="36.136842105263156"/>
      <point x="98.47368421052632" y="89.86315789473684"/>
      <point x="119.54736842105264" y="188.4842105263158" type="curve"/>
      <point x="136.78947368421055" y="273.61052631578946" type="line"/>
      <point x="153.62105263157895" y="353.6842105263158"/>
      <point x="173.8736842105263" y="422.5157894736842"/>
      <point x="187.70526315789473" y="497.0105263157895" type="curve"/>
      <point x="133.68421052631578" y="494.6736842105263" type="line"/>
      <point x="121.52631578947367" y="420.17894736842106"/>
      <point x="108.36842105263158" y="353.9368421052631"/>
      <point x="90.1157894736842" y="271.1684210526316" type="curve"/>
      <point x="38.03157894736842" y="28.326315789473686" type="line"/>
      <point x="20.947368421052627" y="-52.92631578947368"/>
      <point x="4.61052631578947" y="-119.84210526315789"/>
    </contour>
  </outline>
</glyph>
<glyph name="paragraph" format="2">
  <advance width="529.7473684210527"/>
  <unicode hex="00B6"/>
  <outline>
    <contour>
      <point x="257.8315789473685" y="308.87368421052633" type="curve" smooth="yes"/>
      <point x="260.5157894736842" y="308.87368421052633" type="line"/>
      <point x="342.9894736842105" y="713.0" type="line"/>
      <point x="304.42105263157896" y="713.0" type="line"/>
      <point x="209.88421052631577" y="713.0"/>
      <point x="122.47368421052632" y="647.1578947368421"/>
      <point x="98.30526315789473" y="531.2315789473683" type="curve" smooth="yes"/>
      <point x="74.13684210526316" y="417.05263157894734"/>
      <point x="133.06315789473686" y="308.87368421052633"/>
    </contour>
    <contour>
      <point x="132.6526315789474" y="-174.25263157894736" type="curve"/>
      <point x="176.50526315789477" y="-174.25263157894736" type="line"/>
      <point x="199.00000000000003" y="-57.16842105263158"/>
      <point x="220.91578947368424" y="47.66315789473685"/>
      <point x="243.91578947368424" y="155.74736842105264" type="curve"/>
      <point x="292.0" y="383.0" type="line"/>
      <point x="315.0" y="491.0842105263158"/>
      <point x="337.0842105263158" y="595.9157894736842"/>
      <point x="364.8421052631579" y="713.0" type="curve"/>
      <point x="323.57894736842104" y="713.0" type="line"/>
      <point x="298.57894736842104" y="595.9157894736842"/>
      <point x="276.57894736842104" y="491.0842105263158"/>
      <point x="253.57894736842107" y="383.0" type="curve"/>
      <point x="205.49473684210528" y="155.74736842105264" type="line"/>
      <point x="182.49473684210528" y="47.66315789473685"/>
      <point x="160.4105263157895" y="-57.16842105263158"/>
    </contour>
    <contour>
      <point x="267.9578947368421" y="-174.25263157894736" type="curve"/>
      <point x="311.8105263157895" y="-174.25263157894736" type="line"/>
      <point x="334.0526315789474" y="-57.16842105263158"/>
      <point x="355.9684210526316" y="47.66315789473685"/>
      <point x="378.9684210526316" y="155.74736842105264" type="curve"/>
      <point x="427.05263157894734" y="383.0" type="line"/>
      <point x="450.05263157894734" y="491.0842105263158"/>
      <point x="472.13684210526316" y="595.9157894736842"/>
      <point x="499.89473684210526" y="713.0" type="curve"/>
      <point x="455.78947368421046" y="713.0" type="line"/>
      <point x="433.54736842105257" y="595.9157894736842"/>
      <point x="411.6315789473684" y="491.0842105263158"/>
      <point x="388.6315789473684" y="383.0" type="curve"/>
      <point x="340.5473684210526" y="155.74736842105264" type="line"/>
      <point x="317.5473684210526" y="47.66315789473685"/>
      <point x="295.4631578947368" y="-57.16842105263158"/>
    </contour>
    <contour>
      <point x="328.3684210526316" y="675.421052631579" type="line"/>
      <point x="427.86315789473684" y="675.421052631579" type="line"/>
      <point x="476.1263157894737" y="675.421052631579"/>
      <point x="532.3894736842104" y="675.3368421052631"/>
      <point x="590.8210526315789" y="672.9157894736842" type="curve"/>
      <point x="599.5052631578948" y="713.0" type="line"/>
      <point x="540.0736842105263" y="713.0"/>
      <point x="483.7263157894737" y="713.0"/>
      <point x="435.4631578947368" y="713.0" type="curve"/>
      <point x="335.9684210526316" y="713.0" type="line"/>
    </contour>
  </outline>
</glyph>
<glyph name="ordmasculine" format="2">
  <advance width="453.0105263157895"/>
  <unicode hex="00BA"/>
  <outline>
    <contour>
      <point x="266.7578947368421" y="334.0736842105263" type="curve" smooth="yes"/>
      <point x="365.86315789473684" y="334.0736842105263"/>
      <point x="443.7789473684211" y="405.82105263157894"/>
      <point x="465.94736842105266" y="510.4947368421052" type="curve" smooth="yes"/>
      <point x="490.0315789473684" y="623.6631578947367"/>
      <point x="430.3578947368421" y="725.3368421052631"/>
      <point x="306.9157894736842" y="725.3368421052631" type="curve" smooth="yes"/>
      <point x="215.96842105263158" y="725.3368421052631"/>
      <point x="130.81052631578947" y="662.0"/>
      <point x="107.72631578947369" y="549.7473684210526" type="curve" smooth="yes"/>
      <point x="84.64210526315789" y="438.3263157894737"/>
      <point x="141.2315789473684" y="334.0736842105263"/>
    </contour>
    <contour>
      <point x="268.92631578947373" y="372.41052631578947" type="curve"/>
      <point x="168.49473684210525" y="374.57894736842104"/>
      <point x="129.7684210526316" y="451.70526315789476"/>
      <point x="148.7578947368421" y="543.9052631578948" type="curve" smooth="yes"/>
      <point x="165.9157894736842" y="628.8631578947369"/>
      <point x="225.54736842105265" y="684.9157894736842"/>
      <point x="306.66315789473686" y="687.0" type="curve"/>
      <point x="398.1052631578948" y="684.7473684210527"/>
      <point x="445.65263157894736" y="616.6105263157896"/>
      <point x="424.8315789473684" y="515.421052631579" type="curve" smooth="yes"/>
      <point x="407.6736842105263" y="433.2947368421053"/>
      <point x="350.0421052631579" y="374.57894736842104"/>
    </contour>
  </outline>
</glyph>
